M48
; DRILL file KiCad 10.0.4 date 2026-07-20T11:51:41
; FORMAT={-:-/ absolute / metric / decimal}
; #@! TF.CreationDate,2026-07-20T11:51:41+03:00
; #@! TF.GenerationSoftware,Kicad,Pcbnew,10.0.4
; #@! TF.FileFunction,Plated,1,4,PTH
FMAT,2
METRIC
; #@! TA.AperFunction,Plated,PTH,ViaDrill
T1C0.300
; #@! TA.AperFunction,Plated,PTH,ComponentDrill
T2C0.300
; #@! TA.AperFunction,Plated,PTH,ViaDrill
T3C0.400
; #@! TA.AperFunction,Plated,PTH,ComponentDrill
T4C0.600
; #@! TA.AperFunction,Plated,PTH,ComponentDrill
T5C0.750
; #@! TA.AperFunction,Plated,PTH,ComponentDrill
T6C1.000
; #@! TA.AperFunction,Plated,PTH,ComponentDrill
T7C1.020
%
G90
G05
T1
X95.655Y-91.295
X95.9Y-50.9
X96.025Y-99.35
X96.15Y-66.4
X96.15Y-94.875
X96.2Y-59.35
X96.25Y-54.925
X96.375Y-62.65
X96.5Y-45.825
X96.843Y-92.482
X96.925Y-69.4
X96.925Y-71.15
X96.925Y-72.8
X96.925Y-74.725
X96.925Y-76.475
X96.925Y-77.975
X96.925Y-79.45
X96.925Y-80.775
X96.925Y-85.6
X96.925Y-87.125
X96.925Y-88.625
X97.112Y-90.488
X97.412Y-67.787
X97.5Y-72.8
X97.625Y-73.425
X97.675Y-74.1
X97.675Y-74.8
X97.925Y-72.3
X97.95Y-75.475
X98.0Y-52.0
X98.15Y-72.9
X98.225Y-73.525
X98.275Y-76.1
X98.3Y-74.825
X98.325Y-71.825
X98.35Y-74.175
X98.425Y-85.425
X98.55Y-72.425
X98.6Y-75.4
X98.725Y-64.25
X98.725Y-68.575
X98.75Y-67.25
X98.75Y-67.9
X98.75Y-73.0
X98.775Y-66.425
X98.85Y-73.625
X98.85Y-76.675
X98.875Y-89.675
X98.925Y-74.85
X98.925Y-75.975
X98.95Y-92.975
X98.965Y-71.767
X98.975Y-74.225
X99.0Y-78.6
X99.094Y-81.069
X99.15Y-72.375
X99.25Y-75.425
X99.3Y-77.25
X99.363Y-85.8
X99.364Y-82.898
X99.4Y-72.975
X99.45Y-76.35
X99.475Y-73.6
X99.55Y-74.85
X99.593Y-71.85
X99.6Y-74.225
X99.625Y-90.1
X99.775Y-75.775
X99.8Y-72.425
X99.8Y-94.725
X99.875Y-76.91
X99.91Y-77.575
X99.938Y-64.886
X100.0Y-85.225
X100.05Y-73.05
X100.1Y-73.725
X100.116Y-76.311
X100.171Y-71.838
X100.175Y-45.048
X100.175Y-46.011
X100.175Y-75.0
X100.225Y-74.325
X100.256Y-69.852
X100.3Y-70.862
X100.375Y-75.6
X100.4Y-100.275
X100.425Y-66.425
X100.425Y-72.325
X100.45Y-65.5
X100.501Y-62.696
X100.525Y-80.388
X100.6Y-90.925
X100.617Y-60.936
X100.675Y-57.198
X100.675Y-72.925
X100.68Y-59.009
X100.7Y-73.55
X100.739Y-76.125
X100.775Y-50.6
X100.775Y-52.15
X100.775Y-53.9
X100.775Y-55.425
X100.775Y-89.1
X100.825Y-74.975
X100.85Y-71.85
X100.85Y-74.15
X101.0Y-75.55
X101.02Y-66.331
X101.25Y-72.7
X101.275Y-73.325
X101.3Y-74.55
X101.325Y-91.275
X101.366Y-76.025
X101.425Y-73.95
X101.428Y-72.111
X101.575Y-56.075
X101.575Y-56.7
X101.575Y-57.325
X101.575Y-75.275
X101.614Y-81.25
X101.625Y-45.0
X101.625Y-45.65
X101.625Y-46.3
X101.775Y-97.775
X101.875Y-72.85
X101.875Y-73.475
X101.875Y-86.35
X101.9Y-74.675
X101.946Y-75.786
X102.05Y-74.075
X102.059Y-72.25
X102.2Y-75.225
X102.25Y-94.6
X102.3Y-45.0
X102.3Y-45.65
X102.3Y-46.3
X102.3Y-56.075
X102.3Y-56.7
X102.3Y-57.325
X102.475Y-91.15
X102.5Y-72.725
X102.5Y-73.375
X102.525Y-74.575
X102.55Y-75.725
X102.654Y-73.967
X102.775Y-75.125
X102.85Y-66.8
X102.85Y-67.45
X103.075Y-53.625
X103.075Y-55.175
X103.1Y-94.6
X103.14Y-74.459
X103.175Y-75.725
X103.175Y-92.5
X103.225Y-64.05
X103.275Y-60.75
X103.375Y-48.6
X103.397Y-75.046
X103.4Y-78.05
X103.402Y-52.895
X103.5Y-66.8
X103.5Y-67.45
X103.7Y-70.1
X103.785Y-75.54
X103.881Y-84.592
X103.95Y-94.6
X103.975Y-97.05
X103.975Y-100.325
X104.032Y-80.893
X104.051Y-71.614
X104.125Y-65.5
X104.15Y-66.8
X104.15Y-67.45
X104.225Y-77.075
X104.556Y-72.212
X104.65Y-51.725
X104.7Y-56.05
X104.7Y-56.7
X104.7Y-57.35
X104.725Y-64.85
X104.725Y-80.9
X104.75Y-45.0
X104.75Y-45.65
X104.75Y-46.3
X104.875Y-58.375
X104.988Y-85.26
X105.0Y-94.475
X105.025Y-96.75
X105.125Y-65.9
X105.325Y-63.225
X105.6Y-97.2
X106.0Y-48.6
X106.1Y-90.25
X106.228Y-85.313
X106.283Y-96.86
X106.375Y-55.1
X106.425Y-53.6
X106.487Y-98.975
X106.75Y-61.6
X106.775Y-51.417
X106.9Y-94.525
X107.025Y-75.575
X107.071Y-92.51
X107.125Y-50.4
X107.175Y-71.525
X107.175Y-74.97
X107.225Y-45.5
X107.225Y-59.65
X107.323Y-74.304
X107.45Y-73.65
X107.575Y-79.825
X107.625Y-96.925
X107.65Y-75.375
X107.658Y-72.982
X107.682Y-81.051
X107.8Y-74.75
X107.875Y-66.075
X107.9Y-74.05
X107.983Y-72.399
X108.062Y-98.975
X108.075Y-73.425
X108.128Y-86.134
X108.175Y-75.7
X108.2Y-79.575
X108.225Y-92.6
X108.3Y-96.925
X108.325Y-75.075
X108.328Y-71.78
X108.375Y-72.875
X108.375Y-74.45
X108.45Y-82.0
X108.575Y-73.85
X108.6Y-48.6
X108.614Y-84.009
X108.617Y-71.258
X108.65Y-67.2
X108.675Y-61.6
X108.675Y-70.675
X108.675Y-72.325
X108.825Y-54.0
X108.825Y-79.375
X108.85Y-73.275
X108.95Y-74.975
X108.975Y-74.35
X108.975Y-87.8
X108.975Y-89.3
X109.0Y-71.7
X109.0Y-92.55
X109.025Y-96.925
X109.15Y-72.75
X109.225Y-73.775
X109.246Y-81.717
X109.25Y-70.55
X109.25Y-71.15
X109.3Y-51.525
X109.3Y-94.525
X109.325Y-67.425
X109.348Y-83.692
X109.375Y-72.175
X109.445Y-82.897
X109.45Y-79.1
X109.575Y-73.2
X109.575Y-74.4
X109.6Y-75.025
X109.625Y-71.625
X109.637Y-98.975
X109.725Y-60.1
X109.775Y-45.475
X109.85Y-73.825
X109.9Y-86.275
X109.95Y-94.525
X109.975Y-46.625
X109.975Y-72.125
X109.975Y-72.725
X110.025Y-84.825
X110.151Y-84.035
X110.175Y-73.3
X110.225Y-71.575
X110.225Y-74.4
X110.225Y-75.05
X110.4Y-58.025
X110.425Y-76.875
X110.43Y-82.221
X110.475Y-73.825
X110.525Y-76.25
X110.55Y-75.625
X110.597Y-77.487
X110.6Y-72.075
X110.6Y-72.7
X110.6Y-78.125
X110.6Y-94.525
X110.741Y-78.754
X110.8Y-73.3
X110.85Y-74.4
X110.85Y-75.05
X110.871Y-92.704
X110.875Y-71.525
X110.975Y-53.7
X111.05Y-76.875
X111.075Y-54.925
X111.1Y-73.85
X111.15Y-76.25
X111.2Y-75.625
X111.2Y-77.65
X111.225Y-72.075
X111.225Y-72.7
X111.4Y-61.6
X111.4Y-73.3
X111.425Y-48.55
X111.475Y-74.4
X111.5Y-66.6
X111.5Y-75.05
X111.525Y-71.525
X111.593Y-82.716
X111.6Y-68.25
X111.7Y-73.825
X111.825Y-75.85
X111.85Y-72.075
X111.85Y-72.725
X111.928Y-51.822
X112.019Y-50.725
X112.05Y-73.3
X112.2Y-74.2
X112.225Y-45.4
X112.261Y-84.022
X112.275Y-99.175
X112.425Y-99.95
X112.65Y-46.75
X112.672Y-83.175
X112.825Y-94.575
X112.899Y-71.074
X112.925Y-79.975
X112.975Y-58.075
X113.175Y-76.95
X113.5Y-66.6
X113.5Y-68.25
X113.6Y-79.975
X113.65Y-83.592
X113.675Y-73.9
X113.696Y-72.862
X113.8Y-54.325
X113.897Y-71.125
X114.012Y-94.902
X114.025Y-61.6
X114.15Y-48.5
X114.25Y-79.975
X114.25Y-88.21
X114.295Y-86.295
X114.425Y-92.625
X114.499Y-84.329
X114.8Y-45.5
X114.825Y-60.1
X114.875Y-52.1
X114.875Y-79.975
X114.9Y-100.325
X114.986Y-56.211
X115.1Y-70.525
X115.101Y-72.778
X115.16Y-75.162
X115.199Y-83.292
X115.225Y-68.275
X115.299Y-94.442
X115.3Y-66.6
X115.874Y-83.292
X115.875Y-58.025
X115.899Y-94.442
X116.0Y-55.45
X116.175Y-54.125
X116.225Y-48.625
X116.225Y-69.225
X116.36Y-70.225
X116.36Y-70.875
X116.524Y-83.292
X116.524Y-94.442
X116.625Y-61.6
X116.625Y-81.041
X116.65Y-68.25
X116.673Y-98.587
X116.9Y-66.6
X117.0Y-69.575
X117.01Y-70.225
X117.01Y-70.875
X117.01Y-71.525
X117.01Y-72.175
X117.025Y-46.55
X117.025Y-54.05
X117.124Y-81.864
X117.149Y-83.292
X117.149Y-94.442
X117.375Y-60.1
X117.425Y-45.45
X117.425Y-96.575
X117.497Y-100.45
X117.65Y-69.575
X117.66Y-70.225
X117.66Y-70.875
X117.66Y-71.525
X117.66Y-72.175
X117.66Y-72.825
X117.66Y-73.475
X117.75Y-98.7
X117.816Y-82.851
X118.0Y-54.4
X118.05Y-87.625
X118.1Y-68.25
X118.175Y-84.675
X118.175Y-86.0
X118.3Y-69.6
X118.31Y-70.25
X118.31Y-70.9
X118.31Y-71.55
X118.31Y-72.2
X118.31Y-72.85
X118.31Y-73.5
X118.31Y-74.15
X118.4Y-77.175
X118.4Y-93.625
X118.425Y-66.6
X118.425Y-91.9
X118.45Y-95.1
X118.55Y-89.875
X118.643Y-53.6
X118.735Y-77.8
X118.735Y-78.45
X118.735Y-79.1
X118.735Y-79.75
X118.735Y-80.4
X118.76Y-81.05
X118.875Y-91.15
X118.95Y-69.6
X118.96Y-70.25
X118.96Y-70.9
X118.96Y-71.55
X118.96Y-72.2
X118.96Y-72.85
X118.96Y-73.5
X119.075Y-48.5
X119.3Y-61.6
X119.385Y-77.825
X119.385Y-78.475
X119.385Y-79.125
X119.385Y-79.775
X119.385Y-80.425
X119.4Y-97.875
X119.41Y-81.075
X119.579Y-68.25
X119.6Y-69.6
X119.61Y-70.25
X119.61Y-70.9
X119.61Y-71.55
X119.61Y-72.2
X119.61Y-72.85
X119.639Y-51.275
X119.7Y-53.6
X119.875Y-84.675
X119.89Y-89.385
X119.9Y-45.5
X119.9Y-60.1
X120.035Y-77.825
X120.035Y-78.475
X120.035Y-79.125
X120.035Y-79.775
X120.035Y-80.425
X120.06Y-81.075
X120.1Y-82.75
X120.175Y-46.65
X120.175Y-54.45
X120.2Y-66.525
X120.3Y-88.025
X120.325Y-99.775
X120.685Y-73.425
X120.685Y-78.475
X120.685Y-79.125
X120.685Y-79.775
X120.685Y-80.425
X120.71Y-81.075
X121.2Y-58.05
X121.335Y-78.475
X121.335Y-79.125
X121.335Y-79.775
X121.335Y-80.425
X121.36Y-81.075
X121.375Y-92.65
X121.675Y-54.35
X121.75Y-48.525
X121.925Y-74.475
X121.95Y-98.575
X121.975Y-79.125
X121.975Y-79.775
X121.975Y-80.425
X122.0Y-81.075
X122.025Y-53.6
X122.1Y-75.55
X122.15Y-61.6
X122.179Y-52.1
X122.275Y-70.5
X122.45Y-45.475
X122.475Y-67.3
X122.55Y-90.95
X122.625Y-85.75
X122.8Y-46.5
X122.8Y-54.4
X122.925Y-88.225
X122.991Y-72.65
X123.2Y-86.845
X123.225Y-94.85
X123.275Y-89.385
X123.3Y-82.725
X123.375Y-74.575
X123.65Y-99.6
X123.723Y-52.85
X123.77Y-65.78
X123.775Y-54.15
X123.825Y-62.25
X123.9Y-86.845
X124.0Y-70.45
X124.054Y-81.105
X124.25Y-48.525
X124.35Y-98.175
X124.474Y-79.688
X124.65Y-91.375
X124.775Y-89.385
X124.925Y-67.125
X124.95Y-52.275
X124.975Y-45.45
X125.282Y-62.343
X125.4Y-85.275
X125.405Y-65.295
X125.425Y-79.6
X125.55Y-70.175
X125.725Y-89.385
X125.875Y-84.075
X126.025Y-54.2
X126.05Y-87.9
X126.14Y-79.6
X126.225Y-48.575
X126.275Y-52.75
X126.318Y-81.993
X126.375Y-95.625
X126.65Y-70.175
X126.773Y-80.518
X127.007Y-64.068
X127.007Y-93.932
X127.175Y-79.25
X127.25Y-74.21
X127.25Y-74.925
X127.255Y-62.195
X127.375Y-60.775
X127.426Y-66.8
X127.675Y-46.825
X127.75Y-70.175
X127.85Y-91.0
X127.981Y-85.665
X128.0Y-99.1
X128.025Y-75.625
X128.05Y-82.7
X128.305Y-94.755
X128.445Y-65.505
X128.655Y-63.595
X128.692Y-96.89
X128.75Y-58.1
X128.8Y-52.75
X128.803Y-54.35
X128.825Y-48.55
X129.075Y-73.6
X129.325Y-66.875
X129.325Y-69.4
X129.325Y-71.6
X129.4Y-61.575
X129.799Y-52.901
X130.025Y-45.35
X130.05Y-73.6
X130.05Y-75.75
X130.075Y-66.075
X130.225Y-46.8
X130.5Y-62.55
X130.55Y-60.85
X130.709Y-65.325
X130.825Y-66.875
X130.825Y-69.4
X130.825Y-71.6
X130.999Y-54.45
X131.2Y-63.925
X131.343Y-52.875
X131.675Y-73.575
X131.925Y-48.525
X132.258Y-50.385
X132.6Y-45.3
X132.675Y-71.075
X132.825Y-46.725
X132.975Y-60.9
X133.55Y-69.025
X133.75Y-67.025
X133.825Y-54.275
X134.076Y-63.949
X134.1Y-62.65
X134.475Y-48.475
X135.125Y-45.275
X135.35Y-46.625
X135.55Y-65.625
X135.95Y-60.925
X135.975Y-68.725
X136.0Y-63.975
X136.275Y-54.275
X136.275Y-73.725
X136.423Y-52.875
X136.9Y-48.5
X137.112Y-68.75
X137.625Y-63.525
X137.725Y-45.375
X137.75Y-52.875
X138.1Y-69.025
X138.625Y-64.65
X138.65Y-54.3
X138.65Y-61.025
X138.863Y-62.225
X138.95Y-72.625
X138.963Y-52.8
X138.975Y-48.55
X139.0Y-70.35
X139.851Y-68.2
X140.0Y-51.0
X140.225Y-62.225
X140.275Y-45.4
X140.275Y-61.025
X140.425Y-73.5
X140.475Y-46.7
X140.475Y-64.9
X140.713Y-70.65
X140.85Y-66.55
X141.25Y-54.325
X141.425Y-48.65
X141.503Y-52.775
X141.618Y-57.998
X141.737Y-70.65
X142.2Y-62.225
X142.217Y-61.025
X142.625Y-75.129
X142.65Y-64.825
X142.725Y-45.55
X142.725Y-66.175
X142.825Y-51.825
X143.975Y-66.175
X144.043Y-52.8
X144.15Y-61.2
X144.25Y-54.3
X144.25Y-64.7
X144.55Y-48.475
X144.941Y-50.42
X145.15Y-45.575
X145.275Y-68.983
X145.35Y-56.45
X145.35Y-59.7
X145.35Y-62.6
X145.45Y-66.975
X145.55Y-65.525
X145.575Y-46.7
X146.2Y-54.375
X146.4Y-63.7
X146.55Y-48.575
X146.583Y-52.8
X147.15Y-60.775
X147.775Y-45.475
X147.775Y-69.5
X148.0Y-46.8
X148.15Y-64.949
X148.175Y-57.525
X148.325Y-61.85
X148.4Y-67.825
X148.6Y-54.375
X148.875Y-66.8
X149.05Y-71.3
X149.1Y-48.6
X149.123Y-52.8
X150.025Y-52.775
X150.325Y-45.45
X150.6Y-46.75
X150.75Y-57.778
X151.625Y-54.1
X151.625Y-68.3
X151.7Y-48.55
X151.775Y-65.8
X152.5Y-71.3
X152.975Y-69.65
X153.35Y-63.7
X153.45Y-53.5
X153.699Y-56.726
X153.775Y-61.0
X154.2Y-73.675
X154.319Y-45.587
X154.825Y-67.8
X155.356Y-56.119
X155.575Y-58.975
X155.594Y-69.615
X157.35Y-59.825
X157.676Y-73.009
X157.7Y-57.875
X158.0Y-69.425
X158.5Y-51.325
X158.525Y-45.8
T2
X104.7Y-75.575
X105.4Y-75.575
X106.1Y-75.575
X118.31Y-75.0
X118.31Y-75.7
X118.31Y-76.4
T3
X103.265Y-87.56
X103.265Y-89.06
X104.515Y-87.56
X104.515Y-89.06
X106.114Y-86.275
X123.725Y-96.625
T5
X120.625Y-93.825
X120.625Y-95.825
X133.4Y-72.625
X135.4Y-72.625
X137.4Y-72.625
X142.45Y-72.625
X144.45Y-72.625
X146.45Y-72.625
X148.45Y-72.625
X156.775Y-64.475
X156.775Y-66.475
X156.775Y-68.475
X156.775Y-70.475
T6
X121.6Y-84.305
X121.6Y-86.845
X121.6Y-89.385
X127.325Y-84.305
X127.325Y-86.845
X127.325Y-89.385
T7
X103.403Y-56.785
X103.403Y-59.325
X105.943Y-56.785
X105.943Y-59.325
X108.483Y-56.785
X108.483Y-59.325
X111.023Y-56.785
X111.023Y-59.325
X113.563Y-56.785
X113.563Y-59.325
X116.103Y-56.785
X116.103Y-59.325
X118.643Y-56.785
X118.643Y-59.325
X121.183Y-56.785
X121.183Y-59.325
X123.723Y-56.785
X123.723Y-59.325
X126.263Y-56.785
X126.263Y-59.325
X128.803Y-56.785
X128.803Y-59.325
X131.343Y-56.785
X131.343Y-59.325
X133.883Y-56.785
X133.883Y-59.325
X136.423Y-56.785
X136.423Y-59.325
X138.963Y-56.785
X138.963Y-59.325
X141.503Y-56.785
X141.503Y-59.325
X144.043Y-56.785
X144.043Y-59.325
X146.583Y-56.785
X146.583Y-59.325
X149.123Y-56.785
X149.123Y-59.325
X151.663Y-56.785
X151.663Y-59.325
T4
G00X102.5Y-95.4
M15
G01X102.5Y-96.0
M16
G05
G00X102.5Y-99.2
M15
G01X102.5Y-99.8
M16
G05
G00X111.14Y-95.4
M15
G01X111.14Y-96.0
M16
G05
G00X111.14Y-99.2
M15
G01X111.14Y-99.8
M16
G05
M30
