%TF.GenerationSoftware,KiCad,Pcbnew,10.0.4*%
%TF.CreationDate,2026-07-20T16:53:14+03:00*%
%TF.ProjectId,RSC_extension_board,5253435f-6578-4746-956e-73696f6e5f62,rev?*%
%TF.SameCoordinates,Original*%
%TF.FileFunction,Paste,Top*%
%TF.FilePolarity,Positive*%
%FSLAX46Y46*%
G04 Gerber Fmt 4.6, Leading zero omitted, Abs format (unit mm)*
G04 Created by KiCad (PCBNEW 10.0.4) date 2026-07-20 16:53:14*
%MOMM*%
%LPD*%
G01*
G04 APERTURE LIST*
G04 Aperture macros list*
%AMRoundRect*
0 Rectangle with rounded corners*
0 $1 Rounding radius*
0 $2 $3 $4 $5 $6 $7 $8 $9 X,Y pos of 4 corners*
0 Add a 4 corners polygon primitive as box body*
4,1,4,$2,$3,$4,$5,$6,$7,$8,$9,$2,$3,0*
0 Add four circle primitives for the rounded corners*
1,1,$1+$1,$2,$3*
1,1,$1+$1,$4,$5*
1,1,$1+$1,$6,$7*
1,1,$1+$1,$8,$9*
0 Add four rect primitives between the rounded corners*
20,1,$1+$1,$2,$3,$4,$5,0*
20,1,$1+$1,$4,$5,$6,$7,0*
20,1,$1+$1,$6,$7,$8,$9,0*
20,1,$1+$1,$8,$9,$2,$3,0*%
G04 Aperture macros list end*
%ADD10RoundRect,0.250000X0.412500X1.100000X-0.412500X1.100000X-0.412500X-1.100000X0.412500X-1.100000X0*%
%ADD11RoundRect,0.250000X-0.412500X-1.100000X0.412500X-1.100000X0.412500X1.100000X-0.412500X1.100000X0*%
%ADD12RoundRect,0.237500X-0.237500X0.250000X-0.237500X-0.250000X0.237500X-0.250000X0.237500X0.250000X0*%
%ADD13RoundRect,0.237500X-0.237500X0.300000X-0.237500X-0.300000X0.237500X-0.300000X0.237500X0.300000X0*%
%ADD14RoundRect,0.237500X0.300000X0.237500X-0.300000X0.237500X-0.300000X-0.237500X0.300000X-0.237500X0*%
%ADD15RoundRect,0.250000X0.475000X-0.337500X0.475000X0.337500X-0.475000X0.337500X-0.475000X-0.337500X0*%
%ADD16RoundRect,0.250000X0.337500X0.475000X-0.337500X0.475000X-0.337500X-0.475000X0.337500X-0.475000X0*%
%ADD17RoundRect,0.237500X0.237500X-0.250000X0.237500X0.250000X-0.237500X0.250000X-0.237500X-0.250000X0*%
%ADD18RoundRect,0.100000X-0.437500X0.150000X-0.437500X-0.150000X0.437500X-0.150000X0.437500X0.150000X0*%
%ADD19RoundRect,0.162500X-0.437500X0.162500X-0.437500X-0.162500X0.437500X-0.162500X0.437500X0.162500X0*%
%ADD20RoundRect,0.237500X-0.300000X-0.237500X0.300000X-0.237500X0.300000X0.237500X-0.300000X0.237500X0*%
%ADD21RoundRect,0.237500X-0.250000X-0.237500X0.250000X-0.237500X0.250000X0.237500X-0.250000X0.237500X0*%
%ADD22RoundRect,0.250000X-0.305000X0.305000X-0.305000X-0.305000X0.305000X-0.305000X0.305000X0.305000X0*%
%ADD23RoundRect,0.062500X-0.062500X0.337500X-0.062500X-0.337500X0.062500X-0.337500X0.062500X0.337500X0*%
%ADD24RoundRect,0.062500X-0.337500X0.062500X-0.337500X-0.062500X0.337500X-0.062500X0.337500X0.062500X0*%
%ADD25RoundRect,0.200000X-0.750000X-0.200000X0.750000X-0.200000X0.750000X0.200000X-0.750000X0.200000X0*%
%ADD26RoundRect,0.150000X-0.625000X0.150000X-0.625000X-0.150000X0.625000X-0.150000X0.625000X0.150000X0*%
%ADD27RoundRect,0.250000X-0.650000X0.350000X-0.650000X-0.350000X0.650000X-0.350000X0.650000X0.350000X0*%
%ADD28RoundRect,0.245000X1.605000X-0.245000X1.605000X0.245000X-1.605000X0.245000X-1.605000X-0.245000X0*%
%ADD29RoundRect,0.058478X0.136447X-0.280522X0.136447X0.280522X-0.136447X0.280522X-0.136447X-0.280522X0*%
%ADD30RoundRect,0.042375X-0.324875X-0.098875X0.324875X-0.098875X0.324875X0.098875X-0.324875X0.098875X0*%
%ADD31RoundRect,0.076275X0.177975X-1.279725X0.177975X1.279725X-0.177975X1.279725X-0.177975X-1.279725X0*%
%ADD32RoundRect,0.042375X0.324875X-0.098875X0.324875X0.098875X-0.324875X0.098875X-0.324875X-0.098875X0*%
%ADD33RoundRect,0.050850X-0.259900X-0.118650X0.259900X-0.118650X0.259900X0.118650X-0.259900X0.118650X0*%
%ADD34RoundRect,0.033900X0.079100X-0.333350X0.079100X0.333350X-0.079100X0.333350X-0.079100X-0.333350X0*%
%ADD35RoundRect,0.042375X0.098875X-0.324875X0.098875X0.324875X-0.098875X0.324875X-0.098875X-0.324875X0*%
%ADD36RoundRect,0.237500X0.237500X-0.300000X0.237500X0.300000X-0.237500X0.300000X-0.237500X-0.300000X0*%
%ADD37RoundRect,0.237500X0.250000X0.237500X-0.250000X0.237500X-0.250000X-0.237500X0.250000X-0.237500X0*%
%ADD38RoundRect,0.200000X-0.200000X0.200000X-0.200000X-0.200000X0.200000X-0.200000X0.200000X0.200000X0*%
%ADD39R,1.400000X0.900000*%
%ADD40RoundRect,0.150000X0.350000X-0.150000X0.350000X0.150000X-0.350000X0.150000X-0.350000X-0.150000X0*%
%ADD41RoundRect,0.105000X0.105000X-0.245000X0.105000X0.245000X-0.105000X0.245000X-0.105000X-0.245000X0*%
%ADD42RoundRect,0.245000X-0.245000X-1.605000X0.245000X-1.605000X0.245000X1.605000X-0.245000X1.605000X0*%
%ADD43RoundRect,0.250000X-0.475000X0.337500X-0.475000X-0.337500X0.475000X-0.337500X0.475000X0.337500X0*%
%ADD44RoundRect,0.150000X-0.350000X0.150000X-0.350000X-0.150000X0.350000X-0.150000X0.350000X0.150000X0*%
%ADD45RoundRect,0.105000X-0.105000X0.245000X-0.105000X-0.245000X0.105000X-0.245000X0.105000X0.245000X0*%
%ADD46RoundRect,0.058478X0.280522X0.136447X-0.280522X0.136447X-0.280522X-0.136447X0.280522X-0.136447X0*%
%ADD47RoundRect,0.076275X1.279725X0.177975X-1.279725X0.177975X-1.279725X-0.177975X1.279725X-0.177975X0*%
%ADD48RoundRect,0.042375X0.098875X0.324875X-0.098875X0.324875X-0.098875X-0.324875X0.098875X-0.324875X0*%
%ADD49RoundRect,0.050850X0.118650X-0.259900X0.118650X0.259900X-0.118650X0.259900X-0.118650X-0.259900X0*%
%ADD50RoundRect,0.033900X0.333350X0.079100X-0.333350X0.079100X-0.333350X-0.079100X0.333350X-0.079100X0*%
%ADD51RoundRect,0.042375X0.324875X0.098875X-0.324875X0.098875X-0.324875X-0.098875X0.324875X-0.098875X0*%
%ADD52RoundRect,0.175000X-0.175000X-0.425000X0.175000X-0.425000X0.175000X0.425000X-0.175000X0.425000X0*%
%ADD53RoundRect,0.190000X0.190000X0.410000X-0.190000X0.410000X-0.190000X-0.410000X0.190000X-0.410000X0*%
%ADD54RoundRect,0.200000X0.200000X0.400000X-0.200000X0.400000X-0.200000X-0.400000X0.200000X-0.400000X0*%
%ADD55RoundRect,0.175000X0.175000X0.425000X-0.175000X0.425000X-0.175000X-0.425000X0.175000X-0.425000X0*%
%ADD56RoundRect,0.190000X-0.190000X-0.410000X0.190000X-0.410000X0.190000X0.410000X-0.190000X0.410000X0*%
%ADD57RoundRect,0.200000X-0.200000X-0.400000X0.200000X-0.400000X0.200000X0.400000X-0.200000X0.400000X0*%
%ADD58O,1.100000X1.700000*%
G04 APERTURE END LIST*
D10*
%TO.C,C59*%
X119187500Y-80775000D03*
X116062500Y-80775000D03*
%TD*%
D11*
%TO.C,C56*%
X110912500Y-82250000D03*
X114037500Y-82250000D03*
%TD*%
D12*
%TO.C,R13*%
X107613512Y-83810000D03*
X107613512Y-81985000D03*
%TD*%
D13*
%TO.C,C55*%
X113173512Y-84630000D03*
X113173512Y-86355000D03*
%TD*%
D14*
%TO.C,C8*%
X142437500Y-69700000D03*
X140712500Y-69700000D03*
%TD*%
D13*
%TO.C,C5*%
X119075000Y-86845000D03*
X119075000Y-88570000D03*
%TD*%
D12*
%TO.C,PFM2*%
X112960000Y-72062500D03*
X112960000Y-73887500D03*
%TD*%
D14*
%TO.C,C53*%
X109015000Y-90060000D03*
X107290000Y-90060000D03*
%TD*%
D12*
%TO.C,R3*%
X131800000Y-66075000D03*
X131800000Y-67900000D03*
%TD*%
D15*
%TO.C,C38*%
X114160000Y-79012500D03*
X114160000Y-76937500D03*
%TD*%
D16*
%TO.C,C39*%
X106462500Y-79775000D03*
X104387500Y-79775000D03*
%TD*%
D17*
%TO.C,RFBB1*%
X99550000Y-70862500D03*
X99550000Y-69037500D03*
%TD*%
D16*
%TO.C,C45*%
X101937500Y-67325000D03*
X99862500Y-67325000D03*
%TD*%
D17*
%TO.C,RFBB2*%
X120685000Y-72637500D03*
X120685000Y-70812500D03*
%TD*%
D18*
%TO.C,D1*%
X113425000Y-89767500D03*
X111101000Y-89767500D03*
%TD*%
D19*
%TO.C,Q1*%
X146375000Y-68895000D03*
X146375000Y-66975000D03*
X144275000Y-67935000D03*
%TD*%
D13*
%TO.C,C6*%
X124825000Y-86845000D03*
X124825000Y-88570000D03*
%TD*%
D12*
%TO.C,RENT2*%
X115910000Y-75162500D03*
X115910000Y-76987500D03*
%TD*%
%TO.C,R10*%
X104613512Y-81985000D03*
X104613512Y-83810000D03*
%TD*%
D20*
%TO.C,C49*%
X103912500Y-93462500D03*
X105637500Y-93462500D03*
%TD*%
D17*
%TO.C,R18*%
X97150000Y-83810000D03*
X97150000Y-81985000D03*
%TD*%
D14*
%TO.C,C54*%
X109010512Y-91535000D03*
X107285512Y-91535000D03*
%TD*%
%TO.C,C47*%
X102337500Y-93625000D03*
X100612500Y-93625000D03*
%TD*%
D17*
%TO.C,R9*%
X103113512Y-83810000D03*
X103113512Y-81985000D03*
%TD*%
D20*
%TO.C,C1*%
X148337500Y-68960000D03*
X150062500Y-68960000D03*
%TD*%
D21*
%TO.C,RENT1*%
X104187500Y-78050000D03*
X106012500Y-78050000D03*
%TD*%
D14*
%TO.C,C52*%
X108996091Y-88560000D03*
X107271091Y-88560000D03*
%TD*%
D22*
%TO.C,U5*%
X104515000Y-87560000D03*
X103135000Y-87560000D03*
X104515000Y-88940000D03*
X103135000Y-88940000D03*
D23*
X105075000Y-86275000D03*
X104575000Y-86275000D03*
X104075000Y-86275000D03*
X103575000Y-86275000D03*
X103075000Y-86275000D03*
X102575000Y-86275000D03*
D24*
X101850000Y-87000000D03*
X101850000Y-87500000D03*
X101850000Y-88000000D03*
X101850000Y-88500000D03*
X101850000Y-89000000D03*
X101850000Y-89500000D03*
D23*
X102575000Y-90225000D03*
X103075000Y-90225000D03*
X103575000Y-90225000D03*
X104075000Y-90225000D03*
X104575000Y-90225000D03*
X105075000Y-90225000D03*
D24*
X105800000Y-89500000D03*
X105800000Y-89000000D03*
X105800000Y-88500000D03*
X105800000Y-88000000D03*
X105800000Y-87500000D03*
X105800000Y-87000000D03*
%TD*%
D17*
%TO.C,R20*%
X99613512Y-88635000D03*
X99613512Y-86810000D03*
%TD*%
D15*
%TO.C,C40*%
X112185000Y-79012500D03*
X112185000Y-76937500D03*
%TD*%
%TO.C,C46*%
X125685000Y-73237500D03*
X125685000Y-71162500D03*
%TD*%
D17*
%TO.C,R15*%
X100113512Y-83810000D03*
X100113512Y-81985000D03*
%TD*%
D12*
%TO.C,R16*%
X101613512Y-81985000D03*
X101613512Y-83810000D03*
%TD*%
D17*
%TO.C,R5*%
X102500000Y-70862500D03*
X102500000Y-69037500D03*
%TD*%
D15*
%TO.C,C57*%
X127685000Y-73237500D03*
X127685000Y-71162500D03*
%TD*%
D14*
%TO.C,C50*%
X108993934Y-87060000D03*
X107268934Y-87060000D03*
%TD*%
D25*
%TO.C,Q2*%
X133800000Y-66125000D03*
X133800000Y-68025000D03*
X136800000Y-67075000D03*
%TD*%
D26*
%TO.C,J9*%
X125200000Y-93625000D03*
X125200000Y-94625000D03*
X125200000Y-95625000D03*
X125200000Y-96625000D03*
D27*
X127725000Y-92325000D03*
X127725000Y-97925000D03*
%TD*%
D21*
%TO.C,FPWM1*%
X100862500Y-77100000D03*
X102687500Y-77100000D03*
%TD*%
D12*
%TO.C,R8*%
X113573512Y-91705000D03*
X113573512Y-93530000D03*
%TD*%
D15*
%TO.C,C37*%
X109325000Y-78062500D03*
X109325000Y-75987500D03*
%TD*%
D28*
%TO.C,L1*%
X106275000Y-70585000D03*
X106275000Y-68215000D03*
%TD*%
D12*
%TO.C,R19*%
X98613512Y-81985000D03*
X98613512Y-83810000D03*
%TD*%
%TO.C,FPWM2*%
X115935000Y-71862500D03*
X115935000Y-73687500D03*
%TD*%
%TO.C,PFM1*%
X99775000Y-78562500D03*
X99775000Y-80387500D03*
%TD*%
D21*
%TO.C,R6*%
X122147500Y-73350000D03*
X123972500Y-73350000D03*
%TD*%
D17*
%TO.C,R23*%
X156375000Y-59812500D03*
X156375000Y-57987500D03*
%TD*%
D21*
%TO.C,R14*%
X111350000Y-87884548D03*
X113175000Y-87884548D03*
%TD*%
D12*
%TO.C,RENB1*%
X102725000Y-78562500D03*
X102725000Y-80387500D03*
%TD*%
D29*
%TO.C,U4*%
X117382500Y-76600000D03*
D30*
X117185000Y-76425000D03*
D31*
X118310000Y-75700000D03*
D29*
X119237500Y-76600000D03*
D30*
X119435000Y-76425000D03*
D32*
X119435000Y-75775000D03*
D33*
X119485000Y-75025000D03*
D34*
X119310000Y-74825000D03*
D35*
X118835000Y-74825000D03*
X117785000Y-74825000D03*
D33*
X117135000Y-75000000D03*
D34*
X117310000Y-74825000D03*
D32*
X117185000Y-75775000D03*
%TD*%
D36*
%TO.C,C41*%
X107600000Y-78012500D03*
X107600000Y-76287500D03*
%TD*%
D14*
%TO.C,C2*%
X137112500Y-69700000D03*
X135387500Y-69700000D03*
%TD*%
D17*
%TO.C,R17*%
X98113512Y-88635000D03*
X98113512Y-86810000D03*
%TD*%
D37*
%TO.C,RFBT2*%
X123972500Y-71875000D03*
X122147500Y-71875000D03*
%TD*%
D12*
%TO.C,R11*%
X111348512Y-84580000D03*
X111348512Y-86405000D03*
%TD*%
D21*
%TO.C,R21*%
X149762500Y-67485000D03*
X151587500Y-67485000D03*
%TD*%
D38*
%TO.C,LED2*%
X99613512Y-90810000D03*
X98113512Y-90810000D03*
%TD*%
D39*
%TO.C,LED1*%
X113900000Y-99950000D03*
X116300000Y-99950000D03*
%TD*%
D17*
%TO.C,R22*%
X154850000Y-59812500D03*
X154850000Y-57987500D03*
%TD*%
D12*
%TO.C,RT1*%
X101250000Y-78562500D03*
X101250000Y-80387500D03*
%TD*%
D40*
%TO.C,Q4*%
X115633512Y-85997500D03*
X116763512Y-85997500D03*
X115633512Y-85287500D03*
X116763512Y-85287500D03*
D41*
X115223512Y-84517500D03*
X115873512Y-84517500D03*
X116523512Y-84517500D03*
X117173512Y-84517500D03*
X115223512Y-87517500D03*
X115873512Y-87517500D03*
X116523512Y-87517500D03*
X117173512Y-87517500D03*
%TD*%
D13*
%TO.C,C51*%
X112100000Y-91780000D03*
X112100000Y-93505000D03*
%TD*%
D20*
%TO.C,C43*%
X104587500Y-73187500D03*
X106312500Y-73187500D03*
%TD*%
D42*
%TO.C,L2*%
X123275000Y-77125000D03*
X125645000Y-77125000D03*
%TD*%
D14*
%TO.C,C7*%
X156775000Y-73675000D03*
X155050000Y-73675000D03*
%TD*%
D17*
%TO.C,R12*%
X106113512Y-83810000D03*
X106113512Y-81985000D03*
%TD*%
D13*
%TO.C,C44*%
X120685000Y-74862500D03*
X120685000Y-76587500D03*
%TD*%
D21*
%TO.C,R1*%
X114712500Y-97475000D03*
X116537500Y-97475000D03*
%TD*%
D20*
%TO.C,C42*%
X115922500Y-78450000D03*
X117647500Y-78450000D03*
%TD*%
D14*
%TO.C,C48*%
X109112500Y-93500000D03*
X107387500Y-93500000D03*
%TD*%
D43*
%TO.C,C58*%
X110300000Y-68237500D03*
X110300000Y-70312500D03*
%TD*%
D44*
%TO.C,Q3*%
X116765000Y-91645000D03*
X115635000Y-91645000D03*
X116765000Y-92355000D03*
X115635000Y-92355000D03*
D45*
X117175000Y-93125000D03*
X116525000Y-93125000D03*
X115875000Y-93125000D03*
X115225000Y-93125000D03*
X117175000Y-90125000D03*
X116525000Y-90125000D03*
X115875000Y-90125000D03*
X115225000Y-90125000D03*
%TD*%
D21*
%TO.C,R7*%
X107215427Y-85564128D03*
X109040427Y-85564128D03*
%TD*%
D46*
%TO.C,U3*%
X106300000Y-76502500D03*
D35*
X106125000Y-76700000D03*
D47*
X105400000Y-75575000D03*
D46*
X106300000Y-74647500D03*
D35*
X106125000Y-74450000D03*
D48*
X105475000Y-74450000D03*
D49*
X104725000Y-74400000D03*
D50*
X104525000Y-74575000D03*
D51*
X104525000Y-75050000D03*
X104525000Y-76100000D03*
D49*
X104700000Y-76750000D03*
D50*
X104525000Y-76575000D03*
D48*
X105475000Y-76700000D03*
%TD*%
D37*
%TO.C,RENB2*%
X114397500Y-75350000D03*
X112572500Y-75350000D03*
%TD*%
D52*
%TO.C,J16*%
X106320000Y-95620000D03*
D53*
X108340000Y-95620000D03*
D54*
X109570000Y-95620000D03*
D55*
X107320000Y-95620000D03*
D56*
X105300000Y-95620000D03*
D57*
X104070000Y-95620000D03*
D58*
X102500000Y-95700000D03*
X102500000Y-99500000D03*
X111140000Y-95700000D03*
X111140000Y-99500000D03*
%TD*%
D12*
%TO.C,RT2*%
X114435000Y-72062500D03*
X114435000Y-73887500D03*
%TD*%
D37*
%TO.C,R2*%
X149787500Y-66025000D03*
X147962500Y-66025000D03*
%TD*%
D17*
%TO.C,R4*%
X138800000Y-67900000D03*
X138800000Y-66075000D03*
%TD*%
D12*
%TO.C,RFBT1*%
X101025000Y-69037500D03*
X101025000Y-70862500D03*
%TD*%
M02*
