M48
; DRILL file KiCad 10.0.4 date 2026-07-20T16:53:16
; FORMAT={-:-/ absolute / metric / decimal}
; #@! TF.CreationDate,2026-07-20T16:53:16+03:00
; #@! TF.GenerationSoftware,Kicad,Pcbnew,10.0.4
; #@! TF.FileFunction,NonPlated,1,4,NPTH
FMAT,2
METRIC
; #@! TA.AperFunction,NonPlated,NPTH,ComponentDrill
T1C1.016
; #@! TA.AperFunction,NonPlated,NPTH,ComponentDrill
T2C2.700
%
G90
G05
T1
X103.403Y-47.313
X103.403Y-49.853
X105.943Y-47.313
X105.943Y-49.853
X108.483Y-47.313
X108.483Y-49.853
X111.023Y-47.313
X111.023Y-49.853
X113.563Y-47.313
X113.563Y-49.853
X116.103Y-47.313
X116.103Y-49.853
X118.643Y-47.313
X118.643Y-49.853
X121.183Y-47.313
X121.183Y-49.853
X123.723Y-47.313
X123.723Y-49.853
X126.263Y-47.313
X126.263Y-49.853
X128.803Y-47.313
X128.803Y-49.853
X131.343Y-47.313
X131.343Y-49.853
X133.883Y-47.313
X133.883Y-49.853
X136.423Y-47.313
X136.423Y-49.853
X138.963Y-47.313
X138.963Y-49.853
X141.503Y-47.313
X141.503Y-49.853
X144.043Y-47.313
X144.043Y-49.853
X146.583Y-47.313
X146.583Y-49.853
X149.123Y-47.313
X149.123Y-49.853
X151.663Y-47.313
X151.663Y-49.853
T2
X98.5Y-48.5
X98.5Y-97.5
X156.5Y-48.5
M30
