%TF.GenerationSoftware,KiCad,Pcbnew,10.0.4*%
%TF.CreationDate,2026-07-20T16:53:14+03:00*%
%TF.ProjectId,RSC_extension_board,5253435f-6578-4746-956e-73696f6e5f62,rev?*%
%TF.SameCoordinates,Original*%
%TF.FileFunction,Copper,L3,Inr*%
%TF.FilePolarity,Positive*%
%FSLAX46Y46*%
G04 Gerber Fmt 4.6, Leading zero omitted, Abs format (unit mm)*
G04 Created by KiCad (PCBNEW 10.0.4) date 2026-07-20 16:53:14*
%MOMM*%
%LPD*%
G01*
G04 APERTURE LIST*
G04 Aperture macros list*
%AMRoundRect*
0 Rectangle with rounded corners*
0 $1 Rounding radius*
0 $2 $3 $4 $5 $6 $7 $8 $9 X,Y pos of 4 corners*
0 Add a 4 corners polygon primitive as box body*
4,1,4,$2,$3,$4,$5,$6,$7,$8,$9,$2,$3,0*
0 Add four circle primitives for the rounded corners*
1,1,$1+$1,$2,$3*
1,1,$1+$1,$4,$5*
1,1,$1+$1,$6,$7*
1,1,$1+$1,$8,$9*
0 Add four rect primitives between the rounded corners*
20,1,$1+$1,$2,$3,$4,$5,0*
20,1,$1+$1,$4,$5,$6,$7,0*
20,1,$1+$1,$6,$7,$8,$9,0*
20,1,$1+$1,$8,$9,$2,$3,0*%
G04 Aperture macros list end*
%TA.AperFunction,Conductor*%
%ADD10C,0.200000*%
%TD*%
%TA.AperFunction,ComponentPad*%
%ADD11RoundRect,0.250000X-0.350000X-0.625000X0.350000X-0.625000X0.350000X0.625000X-0.350000X0.625000X0*%
%TD*%
%TA.AperFunction,ComponentPad*%
%ADD12O,1.200000X1.750000*%
%TD*%
%TA.AperFunction,ComponentPad*%
%ADD13RoundRect,0.250000X0.625000X-0.350000X0.625000X0.350000X-0.625000X0.350000X-0.625000X-0.350000X0*%
%TD*%
%TA.AperFunction,ComponentPad*%
%ADD14O,1.750000X1.200000*%
%TD*%
%TA.AperFunction,ComponentPad*%
%ADD15R,1.700000X1.700000*%
%TD*%
%TA.AperFunction,ComponentPad*%
%ADD16C,1.700000*%
%TD*%
%TA.AperFunction,ComponentPad*%
%ADD17C,0.450000*%
%TD*%
%TA.AperFunction,HeatsinkPad*%
%ADD18O,1.100000X1.700000*%
%TD*%
%TA.AperFunction,ComponentPad*%
%ADD19R,1.370000X1.370000*%
%TD*%
%TA.AperFunction,ComponentPad*%
%ADD20C,1.370000*%
%TD*%
%TA.AperFunction,ViaPad*%
%ADD21C,0.600000*%
%TD*%
%TA.AperFunction,ViaPad*%
%ADD22C,0.800000*%
%TD*%
%TA.AperFunction,Conductor*%
%ADD23C,0.500000*%
%TD*%
%TA.AperFunction,Conductor*%
%ADD24C,0.300000*%
%TD*%
%TA.AperFunction,Conductor*%
%ADD25C,1.000000*%
%TD*%
%TA.AperFunction,Conductor*%
%ADD26C,0.650000*%
%TD*%
G04 APERTURE END LIST*
D10*
%TO.N,VBUS*%
X117400000Y-83475000D02*
X116675000Y-81250000D01*
X115500000Y-79475000D01*
X112875000Y-78775000D01*
X109450000Y-78675000D01*
X107300000Y-79650000D01*
X107600000Y-80200000D01*
X111650000Y-80475000D01*
X113500000Y-80875000D01*
X114475000Y-81850000D01*
X115100000Y-83525000D01*
X117400000Y-83475000D01*
%TA.AperFunction,Conductor*%
G36*
X112875000Y-78775000D02*
G01*
X115500000Y-79475000D01*
X116675000Y-81250000D01*
X117400000Y-83475000D01*
X115100000Y-83525000D01*
X114475000Y-81850000D01*
X113500000Y-80875000D01*
X111650000Y-80475000D01*
X107600000Y-80200000D01*
X107300000Y-79650000D01*
X109450000Y-78675000D01*
X112875000Y-78775000D01*
G37*
%TD.AperFunction*%
%TO.N,+5V_Servo*%
X125200000Y-79350000D02*
X126500000Y-79375000D01*
X124125000Y-87000000D01*
X122925000Y-87025000D01*
X125200000Y-79350000D01*
%TA.AperFunction,Conductor*%
G36*
X126500000Y-79375000D02*
G01*
X124125000Y-87000000D01*
X122925000Y-87025000D01*
X125200000Y-79350000D01*
X126500000Y-79375000D01*
G37*
%TD.AperFunction*%
%TO.N,+5V_RPI*%
X102675000Y-67800000D02*
X104350000Y-67775000D01*
X104575000Y-66779871D01*
X102225000Y-64600000D01*
X102379845Y-57100000D01*
X101513462Y-57100000D01*
X101125000Y-62150000D01*
X101000000Y-65100000D01*
X102675000Y-67800000D01*
%TA.AperFunction,Conductor*%
G36*
X102225000Y-64600000D02*
G01*
X104575000Y-66779871D01*
X104350000Y-67775000D01*
X102675000Y-67800000D01*
X101000000Y-65100000D01*
X101125000Y-62150000D01*
X101513462Y-57100000D01*
X102379845Y-57100000D01*
X102225000Y-64600000D01*
G37*
%TD.AperFunction*%
%TO.N,Net-(Q3-D)*%
X104925000Y-96600000D02*
X105675000Y-96550000D01*
X105900000Y-96600000D01*
X106275000Y-96625000D01*
X107803302Y-96596698D01*
X107975000Y-96450000D01*
X108150000Y-96400000D01*
X108650000Y-96425000D01*
X108850000Y-96575000D01*
X109250000Y-96975000D01*
X112381250Y-96975000D01*
X115050000Y-94840000D01*
X115050000Y-94173876D01*
X117361913Y-94225830D01*
X117337806Y-95286553D01*
X114948248Y-98161862D01*
X106188257Y-98238257D01*
X104875000Y-96925000D01*
X104925000Y-96600000D01*
%TA.AperFunction,Conductor*%
G36*
X117361913Y-94225830D02*
G01*
X117337806Y-95286553D01*
X114948248Y-98161862D01*
X106188257Y-98238257D01*
X104875000Y-96925000D01*
X104925000Y-96600000D01*
X105675000Y-96550000D01*
X105900000Y-96600000D01*
X106275000Y-96625000D01*
X107803302Y-96596698D01*
X107975000Y-96450000D01*
X108150000Y-96400000D01*
X108650000Y-96425000D01*
X108850000Y-96575000D01*
X109250000Y-96975000D01*
X112381250Y-96975000D01*
X115050000Y-94840000D01*
X115050000Y-94173876D01*
X117361913Y-94225830D01*
G37*
%TD.AperFunction*%
%TO.N,+5V_RPI*%
X101300000Y-55800000D02*
X106750000Y-55800000D01*
X106750000Y-57600000D01*
X101300000Y-57600000D01*
X101300000Y-55800000D01*
%TA.AperFunction,Conductor*%
G36*
X101300000Y-55800000D02*
G01*
X106750000Y-55800000D01*
X106750000Y-57600000D01*
X101300000Y-57600000D01*
X101300000Y-55800000D01*
G37*
%TD.AperFunction*%
X101375000Y-44800000D02*
X102475000Y-44800000D01*
X102475000Y-57850000D01*
X101375000Y-57850000D01*
X101375000Y-44800000D01*
%TA.AperFunction,Conductor*%
G36*
X101375000Y-44800000D02*
G01*
X102475000Y-44800000D01*
X102475000Y-57850000D01*
X101375000Y-57850000D01*
X101375000Y-44800000D01*
G37*
%TD.AperFunction*%
X101400000Y-44925000D02*
X104950000Y-44925000D01*
X104950000Y-46375000D01*
X101400000Y-46375000D01*
X101400000Y-44925000D01*
%TA.AperFunction,Conductor*%
G36*
X101400000Y-44925000D02*
G01*
X104950000Y-44925000D01*
X104950000Y-46375000D01*
X101400000Y-46375000D01*
X101400000Y-44925000D01*
G37*
%TD.AperFunction*%
%TO.N,+5V_Servo*%
X127100000Y-74200000D02*
X134100000Y-74200000D01*
X134100000Y-74875000D01*
X127100000Y-74875000D01*
X127100000Y-74200000D01*
%TA.AperFunction,Conductor*%
G36*
X127100000Y-74200000D02*
G01*
X134100000Y-74200000D01*
X134100000Y-74875000D01*
X127100000Y-74875000D01*
X127100000Y-74200000D01*
G37*
%TD.AperFunction*%
%TD*%
D11*
%TO.N,+5V_Servo*%
%TO.C,J3*%
X142450000Y-72625000D03*
D12*
%TO.N,/BUTTON_LED*%
X144450000Y-72625000D03*
%TO.N,GND*%
X146450000Y-72625000D03*
%TO.N,/BUTTON*%
X148450000Y-72625000D03*
%TD*%
D13*
%TO.N,Net-(J5-Pin_1)*%
%TO.C,J5*%
X120625000Y-95825000D03*
D14*
%TO.N,Net-(J5-Pin_2)*%
X120625000Y-93825000D03*
%TD*%
D15*
%TO.N,/M2_PWM*%
%TO.C,J8*%
X121600000Y-84305000D03*
D16*
%TO.N,+5V_Servo*%
X121600000Y-86845000D03*
%TO.N,GND*%
X121600000Y-89385000D03*
%TD*%
D17*
%TO.N,GND*%
%TO.C,U4*%
X118310000Y-76400000D03*
X118310000Y-75700000D03*
X118310000Y-75000000D03*
%TD*%
D15*
%TO.N,/M1_PWM*%
%TO.C,J7*%
X127325000Y-84305000D03*
D16*
%TO.N,+5V_Servo*%
X127325000Y-86845000D03*
%TO.N,GND*%
X127325000Y-89385000D03*
%TD*%
D11*
%TO.N,/LED_5V*%
%TO.C,J2*%
X133400000Y-72625000D03*
D12*
%TO.N,+5V_Servo*%
X135400000Y-72625000D03*
%TO.N,GND*%
X137400000Y-72625000D03*
%TD*%
D17*
%TO.N,GND*%
%TO.C,U3*%
X106100000Y-75575000D03*
X105400000Y-75575000D03*
X104700000Y-75575000D03*
%TD*%
D13*
%TO.N,+5V_RPI*%
%TO.C,J10*%
X156775000Y-70475000D03*
D14*
%TO.N,Net-(J10-Pin_2)*%
X156775000Y-68475000D03*
%TO.N,Net-(J10-Pin_3)*%
X156775000Y-66475000D03*
%TO.N,GND*%
X156775000Y-64475000D03*
%TD*%
D18*
%TO.N,GND*%
%TO.C,J16*%
X102500000Y-95700000D03*
X102500000Y-99500000D03*
X111140000Y-95700000D03*
X111140000Y-99500000D03*
%TD*%
D19*
%TO.N,+3.3V*%
%TO.C,J4*%
X103403400Y-59325000D03*
D20*
%TO.N,+5V_RPI*%
X103403400Y-56785000D03*
%TO.N,/SDA*%
X105943400Y-59325000D03*
%TO.N,+5V_RPI*%
X105943400Y-56785000D03*
%TO.N,/SCL*%
X108483400Y-59325000D03*
%TO.N,GND*%
X108483400Y-56785000D03*
%TO.N,/SPI_RST*%
X111023400Y-59325000D03*
%TO.N,/TX_3.3V*%
X111023400Y-56785000D03*
%TO.N,GND*%
X113563400Y-59325000D03*
%TO.N,/RX_3.3V*%
X113563400Y-56785000D03*
%TO.N,/GPIO17*%
X116103400Y-59325000D03*
%TO.N,/I2S_BCLK*%
X116103400Y-56785000D03*
%TO.N,/SPI_DC*%
X118643400Y-59325000D03*
%TO.N,GND*%
X118643400Y-56785000D03*
%TO.N,/LCD_BL*%
X121183400Y-59325000D03*
%TO.N,/BUTTON*%
X121183400Y-56785000D03*
%TO.N,+3.3V*%
X123723400Y-59325000D03*
%TO.N,/LED_PWM*%
X123723400Y-56785000D03*
%TO.N,/SPI_MOSI*%
X126263400Y-59325000D03*
%TO.N,GND*%
X126263400Y-56785000D03*
%TO.N,/SPI_MISO*%
X128803400Y-59325000D03*
%TO.N,/GPIO25*%
X128803400Y-56785000D03*
%TO.N,/SPI_CLK*%
X131343400Y-59325000D03*
%TO.N,/GPIO08*%
X131343400Y-56785000D03*
%TO.N,GND*%
X133883400Y-59325000D03*
%TO.N,/SPI_CS*%
X133883400Y-56785000D03*
%TO.N,/GPIO00*%
X136423400Y-59325000D03*
%TO.N,/GPIO01*%
X136423400Y-56785000D03*
%TO.N,/SERVO_EN*%
X138963400Y-59325000D03*
%TO.N,GND*%
X138963400Y-56785000D03*
%TO.N,/GPIO06*%
X141503400Y-59325000D03*
%TO.N,/LED_3.3V*%
X141503400Y-56785000D03*
%TO.N,/M1_PWM*%
X144043400Y-59325000D03*
%TO.N,GND*%
X144043400Y-56785000D03*
%TO.N,/I2S_LRCLK*%
X146583400Y-59325000D03*
%TO.N,/GPIO16*%
X146583400Y-56785000D03*
%TO.N,/M2_PWM*%
X149123400Y-59325000D03*
%TO.N,/I2S_DIN*%
X149123400Y-56785000D03*
%TO.N,GND*%
X151663400Y-59325000D03*
%TO.N,/I2S_DOUT*%
X151663400Y-56785000D03*
%TD*%
D21*
%TO.N,GND*%
X100428814Y-89821220D03*
X98911509Y-91375000D03*
X109673832Y-81016966D03*
X112800000Y-81925000D03*
X112800000Y-83150000D03*
X117950000Y-80050000D03*
X117875000Y-81200000D03*
X113118031Y-77756741D03*
X110597298Y-77493114D03*
X111309033Y-77901928D03*
X110582594Y-78107813D03*
%TO.N,/SCL*%
X99475000Y-61950000D03*
%TO.N,/SDA*%
X100525000Y-61100000D03*
%TO.N,/SCL*%
X103025000Y-61950000D03*
%TO.N,/SDA*%
X103025000Y-61100000D03*
%TO.N,GND*%
X117925000Y-82850000D03*
X117481878Y-81789613D03*
X117450000Y-80575000D03*
X117475000Y-79500000D03*
X112125000Y-82775000D03*
X112080265Y-81181896D03*
X108825000Y-81050000D03*
%TO.N,VBUS*%
X113600000Y-79975000D03*
X108200000Y-79575000D03*
X107575000Y-79825000D03*
X114875000Y-79975000D03*
X112925000Y-79975000D03*
X100775000Y-89100000D03*
X109450000Y-79100000D03*
X115873512Y-83292500D03*
X108825000Y-79375000D03*
X115198512Y-83292500D03*
X117148512Y-83292500D03*
X116523512Y-83292500D03*
X114250000Y-79975000D03*
%TO.N,+5V_Servo*%
X126140000Y-79600000D03*
X117750000Y-98700000D03*
X123200000Y-86845000D03*
X125425000Y-79600000D03*
X127250000Y-74210000D03*
X127250000Y-74925000D03*
X123900000Y-86845000D03*
%TO.N,GND*%
X124975000Y-45450000D03*
X139000000Y-70350000D03*
X104650000Y-51725000D03*
X111225000Y-72075000D03*
X127426472Y-66800000D03*
X134475000Y-48475000D03*
X141250000Y-54325000D03*
X114800000Y-45500000D03*
X111850000Y-72075000D03*
X100100000Y-73725000D03*
X111100000Y-73850000D03*
D22*
X103265000Y-87560000D03*
D21*
X150750000Y-57777899D03*
X100525000Y-80387500D03*
X114150000Y-48500000D03*
X112275000Y-99175000D03*
X97675000Y-74800000D03*
X114025000Y-61600000D03*
X147775000Y-45475000D03*
X127007169Y-64067831D03*
X108675000Y-72325000D03*
X132258221Y-50384776D03*
X112425000Y-99950000D03*
X99625000Y-90100000D03*
X145350000Y-59700000D03*
X139851472Y-68200000D03*
X122150000Y-61600000D03*
X96925000Y-80775000D03*
X116625000Y-61600000D03*
X117660000Y-71525000D03*
X119385000Y-79125000D03*
X96200000Y-59350000D03*
X96925000Y-87125000D03*
X127980619Y-85664885D03*
X112825000Y-94575000D03*
X142650000Y-64825000D03*
X111400000Y-61600000D03*
X109000000Y-71700000D03*
X129325000Y-66875000D03*
X100675000Y-57197835D03*
X158525000Y-45800000D03*
X142825000Y-51825000D03*
X111400000Y-73300000D03*
X108327649Y-71779600D03*
X149050000Y-71300000D03*
X98600000Y-75400000D03*
X134100000Y-62650000D03*
X109375000Y-72175000D03*
X100170623Y-71838015D03*
X110850000Y-75050000D03*
X111150000Y-76250000D03*
X144940868Y-50419810D03*
X103175000Y-75725000D03*
X103100000Y-94600000D03*
X110875000Y-71525000D03*
X111600000Y-68250000D03*
X98350000Y-74175000D03*
X109575000Y-73200000D03*
X122025000Y-53600000D03*
X111475000Y-74400000D03*
X103975000Y-100325000D03*
X124650000Y-91375000D03*
X101775000Y-97775000D03*
X102500000Y-72725000D03*
X154200000Y-73675000D03*
X114875000Y-52100000D03*
X111850000Y-72725000D03*
X119890000Y-89385000D03*
X108975000Y-87800000D03*
X97111765Y-90488235D03*
X107125000Y-50400000D03*
X152500000Y-71300000D03*
X102525000Y-74575000D03*
X100680477Y-59009459D03*
X124925000Y-67125000D03*
X118735000Y-78450000D03*
X130825000Y-71600000D03*
X148149732Y-64948798D03*
X106100000Y-90250000D03*
X126225000Y-48575000D03*
X138975000Y-48550000D03*
X107322864Y-74304363D03*
X146550000Y-48575000D03*
X144250000Y-54300000D03*
X120710000Y-81075000D03*
X112975000Y-58075000D03*
X102250000Y-94600000D03*
X140275000Y-61025000D03*
X110525000Y-76250000D03*
X146400000Y-63700000D03*
X109000000Y-92550000D03*
X138863400Y-62225000D03*
X101366151Y-76025000D03*
X121335000Y-78475000D03*
X133550000Y-69025000D03*
X117000000Y-69575000D03*
X108375000Y-72875000D03*
X118175000Y-86000000D03*
X107225000Y-45500000D03*
X98550000Y-72425000D03*
X122991221Y-72649867D03*
X110975000Y-53700000D03*
X127007169Y-93932169D03*
X100738639Y-76125000D03*
X99300000Y-77250000D03*
X109950000Y-94525000D03*
X99475000Y-73600000D03*
X132600000Y-45300000D03*
X109850000Y-73825000D03*
X128025000Y-75625000D03*
X110850000Y-74400000D03*
X155594042Y-69614855D03*
X131925000Y-48525000D03*
X121335000Y-79125000D03*
X123650000Y-99600000D03*
X103140467Y-74458903D03*
X100255866Y-69852393D03*
X127850000Y-91000000D03*
X98225000Y-73525000D03*
X125400000Y-85275000D03*
X102050000Y-74075000D03*
X108850000Y-73275000D03*
X114250000Y-88210000D03*
X105125000Y-65900000D03*
X127255331Y-62194669D03*
X107071028Y-92510000D03*
X122275000Y-70500000D03*
X145275002Y-68983274D03*
X128305331Y-94755331D03*
X157675968Y-73009446D03*
X119875000Y-84675000D03*
X117660000Y-72175000D03*
X101613512Y-81250000D03*
X99093750Y-81068750D03*
X100400000Y-100275000D03*
X119900000Y-45500000D03*
X101575000Y-75275000D03*
X114011768Y-94902210D03*
X147150000Y-60775000D03*
X117010000Y-70875000D03*
X130709101Y-65325000D03*
X144250000Y-64700000D03*
X100775000Y-55425000D03*
D22*
X103265000Y-89060000D03*
D21*
X102500000Y-73375000D03*
X108825000Y-54000000D03*
X122450000Y-45475000D03*
X121335000Y-79775000D03*
X120060000Y-81075000D03*
X116672906Y-98586876D03*
X128750000Y-58100000D03*
X130999265Y-54450000D03*
X136275000Y-73725000D03*
X137725000Y-45375000D03*
X120100000Y-82750000D03*
X100700000Y-73550000D03*
X122625000Y-85750000D03*
X112898818Y-71073625D03*
X98750000Y-73000000D03*
X98975000Y-74225000D03*
X118960000Y-72850000D03*
X108062500Y-98975000D03*
X100775000Y-53900000D03*
X100225000Y-74325000D03*
X98775000Y-66425000D03*
X110225000Y-71575000D03*
X108325000Y-75075000D03*
X154319028Y-45586762D03*
X108450000Y-82000000D03*
X146200000Y-54375000D03*
X118310000Y-70900000D03*
X141737500Y-70650000D03*
X121200000Y-58050000D03*
X138625000Y-64650000D03*
X126050000Y-87900000D03*
X145150000Y-45575000D03*
X116360000Y-70225000D03*
X117425000Y-45450000D03*
X97925000Y-72300000D03*
X122000000Y-81075000D03*
X111525000Y-71525000D03*
X115100000Y-70525000D03*
X119400000Y-97875000D03*
X136275000Y-54275000D03*
X103950000Y-94600000D03*
X102775000Y-75125000D03*
X118000000Y-54400000D03*
X151775000Y-65800000D03*
X122925000Y-88225000D03*
X96025000Y-99350000D03*
X96500000Y-45825000D03*
X119600000Y-69600000D03*
X153699142Y-56725858D03*
X112200000Y-74200000D03*
X113675000Y-73900000D03*
X99910215Y-77575000D03*
X137750000Y-52875000D03*
X115875000Y-58025000D03*
X99600000Y-74225000D03*
X109600000Y-75025000D03*
X153775000Y-61000000D03*
X140712500Y-70650000D03*
X122550000Y-90950000D03*
X96925000Y-77975000D03*
X118300000Y-69600000D03*
X150025000Y-52775000D03*
X135975000Y-68725000D03*
X101425000Y-73950000D03*
X120035000Y-77825000D03*
X128444669Y-65505331D03*
X149100000Y-48600000D03*
X103784612Y-75539992D03*
X100600000Y-90925000D03*
X124350000Y-98175000D03*
X125550000Y-70175000D03*
X106750000Y-61600000D03*
X101875000Y-72850000D03*
X145350000Y-56450000D03*
X118310000Y-73500000D03*
X120685000Y-78475000D03*
X142625000Y-75128680D03*
X113500000Y-66600000D03*
X96842893Y-92482107D03*
X109150000Y-72750000D03*
X118100000Y-68250000D03*
X123225000Y-94850000D03*
X131675000Y-73575000D03*
X151700000Y-48550000D03*
X117660000Y-70225000D03*
X98750000Y-67250000D03*
X100175000Y-75000000D03*
X133750000Y-67025000D03*
X140425000Y-73500000D03*
X109250000Y-70550000D03*
X96925000Y-76475000D03*
X125875000Y-84075000D03*
X109637500Y-98975000D03*
X96925000Y-72800000D03*
X98150000Y-72900000D03*
X116900000Y-66600000D03*
X110400000Y-58025000D03*
X118960000Y-70250000D03*
X153350000Y-63700000D03*
X103375000Y-48600000D03*
X120325000Y-99775000D03*
X130825000Y-66875000D03*
X109775000Y-45475000D03*
X136900000Y-48500000D03*
X105000000Y-94475000D03*
X144150000Y-61200000D03*
X120685000Y-79775000D03*
X99875000Y-76910021D03*
X109300000Y-94525000D03*
X105325000Y-63225000D03*
X101875000Y-73475000D03*
D22*
X104515000Y-89060000D03*
D21*
X101275000Y-73325000D03*
X102200000Y-75225000D03*
X117010000Y-71525000D03*
X121750000Y-48525000D03*
X96925000Y-71150000D03*
X118735000Y-77800000D03*
X126650000Y-70175000D03*
X128655331Y-63594669D03*
X138650000Y-61025000D03*
X111500000Y-66600000D03*
X99400000Y-72975000D03*
X121335000Y-80425000D03*
X98850000Y-73625000D03*
X103075000Y-53625000D03*
X124775000Y-89385000D03*
X108600000Y-48600000D03*
X97500000Y-72800000D03*
X96250000Y-54925000D03*
X147775000Y-69500000D03*
X135125000Y-45275000D03*
X99150000Y-72375000D03*
X111425000Y-48550000D03*
X158500000Y-51325000D03*
X111825000Y-75850000D03*
X129799265Y-52900735D03*
X104031756Y-80893244D03*
X119638702Y-51275000D03*
X110475000Y-73825000D03*
X112225000Y-45400000D03*
X101020165Y-66331380D03*
X118950000Y-69600000D03*
X102653643Y-73966642D03*
X101000000Y-75550000D03*
X109575000Y-74400000D03*
X100375000Y-75600000D03*
X124054026Y-81104858D03*
X109725000Y-60100000D03*
X108375000Y-74450000D03*
X106425000Y-53600000D03*
X128825000Y-48550000D03*
X120035000Y-78475000D03*
X98325000Y-71825000D03*
X107982789Y-72398939D03*
X99775000Y-75775000D03*
X99550000Y-74850000D03*
X138950000Y-72625000D03*
X98000000Y-52000000D03*
X130825000Y-69400000D03*
X152975000Y-69650000D03*
X111500000Y-75050000D03*
X130025000Y-45350000D03*
X95655393Y-91294607D03*
X98950000Y-92975000D03*
X98925000Y-75975000D03*
X119700000Y-53600000D03*
X129325000Y-69400000D03*
X112261011Y-84022050D03*
X97411765Y-67786765D03*
X133825000Y-54275000D03*
X119385000Y-78475000D03*
X96925000Y-79450000D03*
X101300000Y-74550000D03*
X157700000Y-57875000D03*
X119075000Y-48500000D03*
X95900000Y-50900000D03*
X138100000Y-69025000D03*
X103175000Y-92500000D03*
X101900000Y-74675000D03*
X103075000Y-55175000D03*
X123375000Y-74575000D03*
X134075735Y-63949265D03*
X109625000Y-71625000D03*
X110800000Y-73300000D03*
X107800000Y-74750000D03*
X109975000Y-72725000D03*
X118400000Y-77175000D03*
X121950000Y-98575000D03*
X119900000Y-60100000D03*
X96925000Y-74725000D03*
X118310000Y-72200000D03*
X104875000Y-58375000D03*
X117425000Y-96575000D03*
X141618400Y-57997935D03*
X110225000Y-74400000D03*
X127750000Y-70175000D03*
X100175000Y-46011151D03*
X96150000Y-94875000D03*
X120035000Y-79775000D03*
X96925000Y-88625000D03*
X126025000Y-54200000D03*
X125405331Y-65294669D03*
X111200000Y-75625000D03*
X148600000Y-54375000D03*
X107682041Y-81050904D03*
X120685000Y-80425000D03*
X113175000Y-76950000D03*
X138650000Y-54300000D03*
X109444507Y-82897480D03*
X112050000Y-73300000D03*
X120300000Y-88025000D03*
X142200000Y-62225000D03*
X108225000Y-92600000D03*
X120200000Y-66525000D03*
X108175000Y-75700000D03*
X119385000Y-77825000D03*
X107175447Y-74969886D03*
X116225000Y-48625000D03*
X140850000Y-66550000D03*
X118450000Y-95100000D03*
X119300000Y-61600000D03*
X158000000Y-69425000D03*
X114294587Y-86294587D03*
X99250000Y-75425000D03*
X150325000Y-45450000D03*
D22*
X104515000Y-87560000D03*
D21*
X122475000Y-67300000D03*
X141425000Y-48650000D03*
X121925000Y-74475000D03*
X121975000Y-79125000D03*
X110175000Y-73300000D03*
X124474101Y-79687681D03*
X115225000Y-68275000D03*
X119610000Y-70250000D03*
X118960000Y-70900000D03*
X111075000Y-54925000D03*
X110151393Y-84035045D03*
X110871124Y-92703876D03*
X118735000Y-79100000D03*
X108975000Y-74350000D03*
X140225000Y-62225000D03*
X121360000Y-81075000D03*
X157350000Y-59825000D03*
X100050000Y-73050000D03*
X116650000Y-68250000D03*
X130550000Y-60850000D03*
X135950000Y-60925000D03*
X123775000Y-54150000D03*
X107900000Y-74050000D03*
X99592860Y-71850000D03*
X101428389Y-72110933D03*
X113800000Y-54325000D03*
X119610000Y-70900000D03*
X148325000Y-61850000D03*
X119610000Y-71550000D03*
X145450000Y-66975000D03*
X120035000Y-80425000D03*
D22*
X106113512Y-86275000D03*
D21*
X118960000Y-73500000D03*
X129075000Y-73600000D03*
X116175000Y-54125000D03*
X118310000Y-71550000D03*
X142216966Y-61025000D03*
X151625000Y-68300000D03*
X108075000Y-73425000D03*
X121975000Y-80425000D03*
X123769669Y-65780331D03*
X135550000Y-65625000D03*
X108616717Y-71257961D03*
X123275000Y-89385000D03*
X109225000Y-73775000D03*
X113500000Y-68250000D03*
X101875000Y-86350000D03*
X98275000Y-76100000D03*
X100775000Y-50600000D03*
X140275000Y-45400000D03*
X100425000Y-72325000D03*
X118400000Y-93625000D03*
X118310000Y-72850000D03*
X118550000Y-89875000D03*
X126317892Y-81992892D03*
X111700000Y-73825000D03*
X107657853Y-72982498D03*
X117650000Y-69575000D03*
X106900000Y-94525000D03*
X104051488Y-71613648D03*
X103700000Y-70100000D03*
X114498512Y-84328696D03*
X101250000Y-72700000D03*
X109975000Y-72125000D03*
X98425000Y-85425000D03*
X128691983Y-96890230D03*
X155355515Y-56119485D03*
X110600000Y-72075000D03*
X98300000Y-74825000D03*
X104725000Y-80900000D03*
X117660000Y-70875000D03*
D22*
X123725000Y-96625000D03*
D21*
X96925000Y-69400000D03*
X99800000Y-94725000D03*
X107650000Y-75375000D03*
X106000000Y-48600000D03*
X103397176Y-75045957D03*
X98965216Y-71766535D03*
X136000000Y-63975000D03*
X110600000Y-94525000D03*
X106375000Y-55100000D03*
X97950000Y-75475000D03*
X124950000Y-52275000D03*
X97625000Y-73425000D03*
X151625000Y-54100000D03*
X137625000Y-63525000D03*
X155575000Y-58975000D03*
X99450000Y-76350000D03*
X108975000Y-89300000D03*
X118050000Y-87625000D03*
X120035000Y-79125000D03*
X100850000Y-71850000D03*
X140475000Y-64900000D03*
X117010000Y-72175000D03*
X107450000Y-73650000D03*
X114900000Y-100325000D03*
X127175000Y-79250000D03*
X122178702Y-52100000D03*
X102058719Y-72250000D03*
X103975000Y-97050000D03*
X98750000Y-67900000D03*
X110600000Y-72700000D03*
X128050000Y-82700000D03*
X121975000Y-79775000D03*
X110225000Y-75050000D03*
X137112500Y-68750000D03*
X125725000Y-89385000D03*
X102550000Y-75725000D03*
X100116487Y-76311121D03*
X144550000Y-48475000D03*
X108675000Y-70675000D03*
X101945570Y-75785569D03*
X116360000Y-70875000D03*
X117660000Y-73475000D03*
X104556176Y-72212500D03*
X98725000Y-68575000D03*
X153450000Y-53500000D03*
X118960000Y-71550000D03*
X96925000Y-85600000D03*
X98850000Y-76675000D03*
X110425000Y-76875000D03*
X115300000Y-66600000D03*
X100675000Y-72925000D03*
X140000000Y-51000000D03*
X123825000Y-62250000D03*
X112018702Y-50725000D03*
X118310000Y-74150000D03*
X126772518Y-80517670D03*
X108950000Y-74975000D03*
X117375000Y-60100000D03*
X117497495Y-100450001D03*
X118310000Y-70250000D03*
X108675000Y-61600000D03*
X100825000Y-74975000D03*
X124250000Y-48525000D03*
X118175000Y-84675000D03*
X118425000Y-66600000D03*
X129325000Y-71600000D03*
X117010000Y-70225000D03*
X121375000Y-92650000D03*
X142725000Y-45550000D03*
X98875000Y-89675000D03*
X106487500Y-98975000D03*
X100425000Y-66425000D03*
X131200000Y-63925000D03*
X148175000Y-57525000D03*
X119610000Y-72850000D03*
X107025000Y-75575000D03*
X125282169Y-62342831D03*
X100850000Y-74150000D03*
X108575000Y-73850000D03*
X123300000Y-82725000D03*
X100175000Y-45048070D03*
X100775000Y-52150000D03*
X130500000Y-62550000D03*
X145350000Y-62600000D03*
X113696179Y-72861586D03*
X124000000Y-70450000D03*
X119579136Y-68250000D03*
X111225000Y-72700000D03*
X111050000Y-76875000D03*
X100000000Y-85225000D03*
X109250000Y-71150000D03*
X119610000Y-72200000D03*
X107875000Y-66075000D03*
X118960000Y-72200000D03*
X117660000Y-72825000D03*
X128000000Y-99100000D03*
X154825000Y-67800000D03*
X97675000Y-74100000D03*
X98925000Y-74850000D03*
X132675000Y-71075000D03*
X132975000Y-60900000D03*
X120685000Y-79125000D03*
X114825000Y-60100000D03*
X99800000Y-72425000D03*
X110550000Y-75625000D03*
%TO.N,Net-(U4-MODE{slash}SYNC)*%
X113897500Y-71125000D03*
%TO.N,+3.3V_PD*%
X108127928Y-86134030D03*
X99362657Y-85800000D03*
X109347989Y-83691638D03*
X99363512Y-82897501D03*
%TO.N,+3.3V*%
X123723400Y-52850000D03*
X130050000Y-73600000D03*
X126375000Y-95625000D03*
X130075000Y-66075000D03*
X130050000Y-75750000D03*
X103402246Y-52894990D03*
%TO.N,/LED_3.3V*%
X140475000Y-46700000D03*
%TO.N,Net-(U3-FB)*%
X100300000Y-70862500D03*
%TO.N,+5V_RPI*%
X104150000Y-66800000D03*
X104700000Y-57350000D03*
X102300000Y-45650000D03*
X102300000Y-57325000D03*
X102300000Y-45000000D03*
X104750000Y-45650000D03*
X104700000Y-56700000D03*
X102850000Y-66800000D03*
X104750000Y-45000000D03*
X109325000Y-67425000D03*
X104700000Y-56050000D03*
X102300000Y-56075000D03*
X104150000Y-67450000D03*
X102300000Y-56700000D03*
X103500000Y-67450000D03*
X104750000Y-46300000D03*
X101575000Y-56075000D03*
X101625000Y-45650000D03*
X108650000Y-67200000D03*
X101575000Y-56700000D03*
X102850000Y-67450000D03*
X101625000Y-46300000D03*
X103500000Y-66800000D03*
X101575000Y-57325000D03*
X102300000Y-46300000D03*
X101625000Y-45000000D03*
%TO.N,Net-(U4-FB)*%
X120685000Y-73425000D03*
%TO.N,/SERVO_EN*%
X138963400Y-52800000D03*
X116225000Y-69225000D03*
X115160000Y-75162500D03*
%TO.N,Net-(U5-VBUS_MAX)*%
X104987777Y-85259724D03*
X103880604Y-84592398D03*
%TO.N,/BUTTON*%
X148400000Y-67825000D03*
X120175000Y-46650000D03*
X120175000Y-54450000D03*
X129400000Y-61575000D03*
%TO.N,Net-(U3-EN)*%
X103400000Y-78050000D03*
%TO.N,Net-(U5-VBUS_MIN)*%
X108613512Y-84008724D03*
X106227927Y-85312515D03*
%TO.N,Net-(J5-Pin_1)*%
X109900000Y-86275000D03*
X110025000Y-84825000D03*
%TO.N,/SDA*%
X118425000Y-91900000D03*
X106775000Y-51416600D03*
X101325000Y-91275000D03*
%TO.N,/SCL*%
X118875000Y-91150000D03*
X102475000Y-91150000D03*
X109300000Y-51525000D03*
%TO.N,Net-(Q3-D)*%
X105025000Y-96750000D03*
X115898512Y-94442500D03*
X117148512Y-94442500D03*
X115298512Y-94442500D03*
X107625000Y-96925000D03*
X106282844Y-96860442D03*
X116523512Y-94442500D03*
X109025000Y-96925000D03*
X108300000Y-96925000D03*
X105600000Y-97200000D03*
%TO.N,Net-(J5-Pin_2)*%
X114425000Y-92625000D03*
%TO.N,Net-(U3-MODE{slash}SYNC)*%
X99000000Y-78600000D03*
%TO.N,Net-(U3-RT)*%
X104225000Y-77075000D03*
%TO.N,Net-(U3-SW)*%
X107175000Y-71525000D03*
%TO.N,Net-(U4-RT)*%
X115100625Y-72778125D03*
%TO.N,/RX_3.3V*%
X112650000Y-46750000D03*
%TO.N,/M2_PWM*%
X142725000Y-66175000D03*
X143975000Y-66175000D03*
X149123400Y-52800000D03*
%TO.N,Net-(U4-SW)*%
X122100000Y-75550000D03*
%TO.N,/TX_3.3V*%
X109975000Y-46625000D03*
X116000000Y-55450000D03*
%TO.N,/M1_PWM*%
X144043400Y-52800000D03*
%TO.N,/GPIO17*%
X114985965Y-56210965D03*
%TO.N,/I2S_BCLK*%
X117025000Y-46550000D03*
X117025000Y-54050000D03*
%TO.N,/SPI_DC*%
X118643400Y-53600000D03*
%TO.N,/LCD_BL*%
X121675000Y-54350000D03*
%TO.N,/LED_PWM*%
X127375000Y-60775000D03*
X122800000Y-54400000D03*
X145550000Y-65525000D03*
X122800000Y-46500000D03*
%TO.N,/SPI_MOSI*%
X126275000Y-52750000D03*
%TO.N,/SPI_MISO*%
X128800000Y-52750000D03*
%TO.N,/GPIO25*%
X127675000Y-46825000D03*
X128803400Y-54350000D03*
%TO.N,/SPI_CLK*%
X131343400Y-52875000D03*
%TO.N,/GPIO08*%
X130225000Y-46800000D03*
%TO.N,/SPI_CS*%
X132825000Y-46725000D03*
%TO.N,/GPIO00*%
X136423400Y-52875000D03*
%TO.N,/GPIO01*%
X135350000Y-46625000D03*
%TO.N,/GPIO06*%
X141503400Y-52775000D03*
%TO.N,/I2S_LRCLK*%
X146583400Y-52800000D03*
%TO.N,/GPIO16*%
X145575000Y-46700000D03*
%TO.N,/I2S_DIN*%
X148000000Y-46800000D03*
%TO.N,/I2S_DOUT*%
X150600000Y-46750000D03*
%TO.N,/SPI_RST*%
X111928400Y-51821600D03*
%TD*%
%TO.N,/TX_3.3V*%
D10*
X116000000Y-55450000D02*
X112358400Y-55450000D01*
X112358400Y-55450000D02*
X111023400Y-56785000D01*
%TO.N,+3.3V*%
D23*
X103403400Y-59325000D02*
X103975000Y-59325000D01*
X103975000Y-59325000D02*
X105500000Y-60850000D01*
X105500000Y-60850000D02*
X122198400Y-60850000D01*
X122198400Y-60850000D02*
X123723400Y-59325000D01*
%TO.N,VBUS*%
X107575000Y-79825000D02*
X107550000Y-79825000D01*
D24*
X100775000Y-89100000D02*
X100775000Y-84725000D01*
X102150000Y-83350000D02*
X104025000Y-83350000D01*
X100775000Y-84725000D02*
X102150000Y-83350000D01*
X104025000Y-83350000D02*
X107550000Y-79825000D01*
%TO.N,+5V_Servo*%
D23*
X131156250Y-74575000D02*
X131256250Y-74475000D01*
X131256250Y-74475000D02*
X140600000Y-74475000D01*
D10*
X122375000Y-92250000D02*
X123950000Y-90675000D01*
X117750000Y-98700000D02*
X120375000Y-98700000D01*
D25*
X133937500Y-74575000D02*
X135400000Y-73112500D01*
X131156250Y-74575000D02*
X133937500Y-74575000D01*
D23*
X140600000Y-74475000D02*
X142450000Y-72625000D01*
D10*
X123200000Y-87250000D02*
X123200000Y-86845000D01*
X122375000Y-96700000D02*
X122375000Y-92250000D01*
X120375000Y-98700000D02*
X122375000Y-96700000D01*
X123950000Y-90675000D02*
X123950000Y-88000000D01*
D25*
X135400000Y-73112500D02*
X135400000Y-72575000D01*
D10*
X123950000Y-88000000D02*
X123200000Y-87250000D01*
%TO.N,+3.3V_PD*%
X108127928Y-85347072D02*
X108127928Y-86134030D01*
X99362657Y-82898356D02*
X99363512Y-82897501D01*
X109347989Y-84127011D02*
X108127928Y-85347072D01*
X109347989Y-83691638D02*
X109347989Y-84127011D01*
X99362657Y-85800000D02*
X99362657Y-82898356D01*
%TO.N,+3.3V*%
D23*
X128800000Y-77000000D02*
X128800000Y-93200000D01*
X128800000Y-93200000D02*
X126375000Y-95625000D01*
X123723400Y-59723400D02*
X123723400Y-59325000D01*
X123723400Y-52850000D02*
X103447236Y-52850000D01*
X103903400Y-59240000D02*
X103488400Y-59240000D01*
X130050000Y-73600000D02*
X130075000Y-73575000D01*
X103488400Y-59240000D02*
X103403400Y-59325000D01*
X103447236Y-52850000D02*
X103402246Y-52894990D01*
X130050000Y-75750000D02*
X128800000Y-77000000D01*
X125050000Y-57998400D02*
X125050000Y-53968155D01*
X125050000Y-53968155D02*
X123931845Y-52850000D01*
X123723400Y-59325000D02*
X125050000Y-57998400D01*
X130075000Y-66075000D02*
X123723400Y-59723400D01*
X123931845Y-52850000D02*
X123723400Y-52850000D01*
%TO.N,/LED_3.3V*%
D10*
X140475000Y-46700000D02*
X140600000Y-46825000D01*
X140600000Y-46825000D02*
X140600000Y-55881600D01*
X140600000Y-55881600D02*
X141503400Y-56785000D01*
%TO.N,+5V_RPI*%
D26*
X142500000Y-67375000D02*
X145600000Y-70475000D01*
X119925000Y-67425000D02*
X120625000Y-68125000D01*
X109325000Y-67425000D02*
X108875000Y-67425000D01*
X145600000Y-70475000D02*
X156775000Y-70475000D01*
X109325000Y-67425000D02*
X119925000Y-67425000D01*
X134550000Y-68125000D02*
X135300000Y-67375000D01*
X120625000Y-68125000D02*
X134550000Y-68125000D01*
X108875000Y-67425000D02*
X108650000Y-67200000D01*
X135300000Y-67375000D02*
X142500000Y-67375000D01*
%TO.N,/SERVO_EN*%
D10*
X115700625Y-74621875D02*
X115160000Y-75162500D01*
X115700000Y-70850000D02*
X115700625Y-70850625D01*
X115700625Y-70850625D02*
X115700625Y-74621875D01*
X137978400Y-58340000D02*
X138963400Y-59325000D01*
X115700000Y-69750000D02*
X115700000Y-70850000D01*
X138963400Y-52800000D02*
X137978400Y-53785000D01*
X137978400Y-53785000D02*
X137978400Y-58340000D01*
X116225000Y-69225000D02*
X115700000Y-69750000D01*
%TO.N,Net-(U5-VBUS_MAX)*%
X104547930Y-85259724D02*
X103880604Y-84592398D01*
X104987777Y-85259724D02*
X104547930Y-85259724D01*
%TO.N,/BUTTON*%
X120175000Y-54450000D02*
X121183400Y-55458400D01*
X129400000Y-61575000D02*
X129450000Y-61625000D01*
X129450000Y-61625000D02*
X142700000Y-61625000D01*
X148400000Y-67325000D02*
X148400000Y-67825000D01*
X142700000Y-61625000D02*
X148400000Y-67325000D01*
X121183400Y-55458400D02*
X121183400Y-56785000D01*
%TO.N,Net-(U5-VBUS_MIN)*%
X107747236Y-84875000D02*
X108613512Y-84008724D01*
X106227927Y-85312515D02*
X106665442Y-84875000D01*
X106665442Y-84875000D02*
X107747236Y-84875000D01*
%TO.N,Net-(J5-Pin_1)*%
X110000000Y-84850000D02*
X110000000Y-86175000D01*
X110000000Y-86175000D02*
X109900000Y-86275000D01*
X110025000Y-84825000D02*
X110000000Y-84850000D01*
%TO.N,/SDA*%
X101325000Y-91275000D02*
X101950000Y-91900000D01*
X101950000Y-91900000D02*
X118425000Y-91900000D01*
%TO.N,/SCL*%
X118875000Y-91150000D02*
X102475000Y-91150000D01*
%TO.N,Net-(J5-Pin_2)*%
X114425000Y-92625000D02*
X119425000Y-92625000D01*
X119425000Y-92625000D02*
X120625000Y-93825000D01*
%TO.N,/M2_PWM*%
X150150000Y-58298400D02*
X150150000Y-53826600D01*
X149123400Y-59325000D02*
X150150000Y-58298400D01*
X142725000Y-66175000D02*
X143975000Y-66175000D01*
X150150000Y-53826600D02*
X149123400Y-52800000D01*
%TO.N,/M1_PWM*%
X142975000Y-58256600D02*
X144043400Y-59325000D01*
X144043400Y-52800000D02*
X142975000Y-53868400D01*
X142975000Y-53868400D02*
X142975000Y-58256600D01*
%TO.N,/I2S_BCLK*%
X117025000Y-54050000D02*
X117025000Y-55863400D01*
X117025000Y-55863400D02*
X116103400Y-56785000D01*
X117025000Y-54050000D02*
X117050000Y-54025000D01*
X116518400Y-56785000D02*
X116103400Y-56785000D01*
%TO.N,/SPI_DC*%
X118643400Y-54318400D02*
X118643400Y-53600000D01*
X118643400Y-59325000D02*
X119775000Y-58193400D01*
X119775000Y-58193400D02*
X119775000Y-55450000D01*
X119775000Y-55450000D02*
X118643400Y-54318400D01*
%TO.N,/LCD_BL*%
X122275000Y-58233400D02*
X122275000Y-54950000D01*
X122275000Y-54950000D02*
X121675000Y-54350000D01*
X121183400Y-59325000D02*
X122275000Y-58233400D01*
%TO.N,/LED_PWM*%
X122800000Y-55861600D02*
X123723400Y-56785000D01*
X134300000Y-63325000D02*
X129925000Y-63325000D01*
X145525000Y-65500000D02*
X136475000Y-65500000D01*
X136475000Y-65500000D02*
X134300000Y-63325000D01*
X122800000Y-54400000D02*
X122800000Y-55861600D01*
X129925000Y-63325000D02*
X127375000Y-60775000D01*
X145550000Y-65525000D02*
X145525000Y-65500000D01*
%TO.N,/SPI_MOSI*%
X126275000Y-52750000D02*
X127325000Y-53800000D01*
X127325000Y-58263400D02*
X126263400Y-59325000D01*
X127325000Y-53800000D02*
X127325000Y-58263400D01*
%TO.N,/SPI_MISO*%
X129950000Y-58178400D02*
X129950000Y-53900000D01*
X129950000Y-53900000D02*
X128800000Y-52750000D01*
X128803400Y-59325000D02*
X129950000Y-58178400D01*
%TO.N,/GPIO25*%
X128803400Y-54350000D02*
X128803400Y-56785000D01*
%TO.N,/SPI_CLK*%
X132328400Y-53860000D02*
X131343400Y-52875000D01*
X131343400Y-59325000D02*
X132328400Y-58340000D01*
X132328400Y-58340000D02*
X132328400Y-53860000D01*
%TO.N,/GPIO08*%
X130399265Y-46974265D02*
X130399265Y-55840865D01*
X130225000Y-46800000D02*
X130399265Y-46974265D01*
X130399265Y-55840865D02*
X131343400Y-56785000D01*
%TO.N,/SPI_CS*%
X132858221Y-46758221D02*
X132858221Y-55759821D01*
X132825000Y-46725000D02*
X132858221Y-46758221D01*
X132858221Y-55759821D02*
X133883400Y-56785000D01*
%TO.N,/GPIO00*%
X136423400Y-52875000D02*
X137408400Y-53860000D01*
X137408400Y-58340000D02*
X136423400Y-59325000D01*
X137408400Y-53860000D02*
X137408400Y-58340000D01*
%TO.N,/GPIO01*%
X135350000Y-46625000D02*
X135350000Y-55711600D01*
X135350000Y-55711600D02*
X136423400Y-56785000D01*
%TO.N,/GPIO06*%
X142575000Y-58253400D02*
X142575000Y-53846600D01*
X141503400Y-59325000D02*
X142575000Y-58253400D01*
X142575000Y-53846600D02*
X141503400Y-52775000D01*
%TO.N,/I2S_LRCLK*%
X147575000Y-53791600D02*
X146583400Y-52800000D01*
X147575000Y-58333400D02*
X147575000Y-53791600D01*
X146583400Y-59325000D02*
X147575000Y-58333400D01*
%TO.N,/GPIO16*%
X145575000Y-46700000D02*
X145600000Y-46725000D01*
X145600000Y-46725000D02*
X145600000Y-55801600D01*
X145600000Y-55801600D02*
X146583400Y-56785000D01*
%TO.N,/I2S_DIN*%
X148000000Y-46800000D02*
X148000000Y-55661600D01*
X148000000Y-55661600D02*
X149123400Y-56785000D01*
%TO.N,/I2S_DOUT*%
X150625000Y-55746600D02*
X151663400Y-56785000D01*
X150600000Y-46750000D02*
X150625000Y-46775000D01*
X150625000Y-46775000D02*
X150625000Y-55746600D01*
%TD*%
M02*
