%TF.GenerationSoftware,KiCad,Pcbnew,10.0.4*%
%TF.CreationDate,2026-07-20T11:50:55+03:00*%
%TF.ProjectId,RSC_extension_board,5253435f-6578-4746-956e-73696f6e5f62,rev?*%
%TF.SameCoordinates,Original*%
%TF.FileFunction,Legend,Bot*%
%TF.FilePolarity,Positive*%
%FSLAX46Y46*%
G04 Gerber Fmt 4.6, Leading zero omitted, Abs format (unit mm)*
G04 Created by KiCad (PCBNEW 10.0.4) date 2026-07-20 11:50:55*
%MOMM*%
%LPD*%
G01*
G04 APERTURE LIST*
%ADD10C,0.150000*%
%ADD11C,0.300000*%
%ADD12C,0.508000*%
%ADD13C,0.152400*%
%ADD14C,0.120000*%
%ADD15C,0.000000*%
G04 APERTURE END LIST*
D10*
X122179887Y-72071009D02*
X122513220Y-72071009D01*
X122513220Y-72594819D02*
X122513220Y-71594819D01*
X122513220Y-71594819D02*
X122037030Y-71594819D01*
X121322744Y-72071009D02*
X121179887Y-72118628D01*
X121179887Y-72118628D02*
X121132268Y-72166247D01*
X121132268Y-72166247D02*
X121084649Y-72261485D01*
X121084649Y-72261485D02*
X121084649Y-72404342D01*
X121084649Y-72404342D02*
X121132268Y-72499580D01*
X121132268Y-72499580D02*
X121179887Y-72547200D01*
X121179887Y-72547200D02*
X121275125Y-72594819D01*
X121275125Y-72594819D02*
X121656077Y-72594819D01*
X121656077Y-72594819D02*
X121656077Y-71594819D01*
X121656077Y-71594819D02*
X121322744Y-71594819D01*
X121322744Y-71594819D02*
X121227506Y-71642438D01*
X121227506Y-71642438D02*
X121179887Y-71690057D01*
X121179887Y-71690057D02*
X121132268Y-71785295D01*
X121132268Y-71785295D02*
X121132268Y-71880533D01*
X121132268Y-71880533D02*
X121179887Y-71975771D01*
X121179887Y-71975771D02*
X121227506Y-72023390D01*
X121227506Y-72023390D02*
X121322744Y-72071009D01*
X121322744Y-72071009D02*
X121656077Y-72071009D01*
X120703696Y-71690057D02*
X120656077Y-71642438D01*
X120656077Y-71642438D02*
X120560839Y-71594819D01*
X120560839Y-71594819D02*
X120322744Y-71594819D01*
X120322744Y-71594819D02*
X120227506Y-71642438D01*
X120227506Y-71642438D02*
X120179887Y-71690057D01*
X120179887Y-71690057D02*
X120132268Y-71785295D01*
X120132268Y-71785295D02*
X120132268Y-71880533D01*
X120132268Y-71880533D02*
X120179887Y-72023390D01*
X120179887Y-72023390D02*
X120751315Y-72594819D01*
X120751315Y-72594819D02*
X120132268Y-72594819D01*
X116288220Y-76496009D02*
X115954887Y-76496009D01*
X115812030Y-77019819D02*
X116288220Y-77019819D01*
X116288220Y-77019819D02*
X116288220Y-76019819D01*
X116288220Y-76019819D02*
X115812030Y-76019819D01*
X115383458Y-77019819D02*
X115383458Y-76019819D01*
X115383458Y-76019819D02*
X114812030Y-77019819D01*
X114812030Y-77019819D02*
X114812030Y-76019819D01*
X114383458Y-76115057D02*
X114335839Y-76067438D01*
X114335839Y-76067438D02*
X114240601Y-76019819D01*
X114240601Y-76019819D02*
X114002506Y-76019819D01*
X114002506Y-76019819D02*
X113907268Y-76067438D01*
X113907268Y-76067438D02*
X113859649Y-76115057D01*
X113859649Y-76115057D02*
X113812030Y-76210295D01*
X113812030Y-76210295D02*
X113812030Y-76305533D01*
X113812030Y-76305533D02*
X113859649Y-76448390D01*
X113859649Y-76448390D02*
X114431077Y-77019819D01*
X114431077Y-77019819D02*
X113812030Y-77019819D01*
X117781077Y-84119819D02*
X117447744Y-85119819D01*
X117447744Y-85119819D02*
X117114411Y-84119819D01*
X116781077Y-85119819D02*
X116781077Y-84119819D01*
X116304887Y-85119819D02*
X116304887Y-84119819D01*
X116304887Y-84119819D02*
X115733459Y-85119819D01*
X115733459Y-85119819D02*
X115733459Y-84119819D01*
X115304887Y-84215057D02*
X115257268Y-84167438D01*
X115257268Y-84167438D02*
X115162030Y-84119819D01*
X115162030Y-84119819D02*
X114923935Y-84119819D01*
X114923935Y-84119819D02*
X114828697Y-84167438D01*
X114828697Y-84167438D02*
X114781078Y-84215057D01*
X114781078Y-84215057D02*
X114733459Y-84310295D01*
X114733459Y-84310295D02*
X114733459Y-84405533D01*
X114733459Y-84405533D02*
X114781078Y-84548390D01*
X114781078Y-84548390D02*
X115352506Y-85119819D01*
X115352506Y-85119819D02*
X114733459Y-85119819D01*
X128631077Y-77719819D02*
X128297744Y-78719819D01*
X128297744Y-78719819D02*
X127964411Y-77719819D01*
X127440601Y-77719819D02*
X127250125Y-77719819D01*
X127250125Y-77719819D02*
X127154887Y-77767438D01*
X127154887Y-77767438D02*
X127059649Y-77862676D01*
X127059649Y-77862676D02*
X127012030Y-78053152D01*
X127012030Y-78053152D02*
X127012030Y-78386485D01*
X127012030Y-78386485D02*
X127059649Y-78576961D01*
X127059649Y-78576961D02*
X127154887Y-78672200D01*
X127154887Y-78672200D02*
X127250125Y-78719819D01*
X127250125Y-78719819D02*
X127440601Y-78719819D01*
X127440601Y-78719819D02*
X127535839Y-78672200D01*
X127535839Y-78672200D02*
X127631077Y-78576961D01*
X127631077Y-78576961D02*
X127678696Y-78386485D01*
X127678696Y-78386485D02*
X127678696Y-78053152D01*
X127678696Y-78053152D02*
X127631077Y-77862676D01*
X127631077Y-77862676D02*
X127535839Y-77767438D01*
X127535839Y-77767438D02*
X127440601Y-77719819D01*
X126583458Y-77719819D02*
X126583458Y-78529342D01*
X126583458Y-78529342D02*
X126535839Y-78624580D01*
X126535839Y-78624580D02*
X126488220Y-78672200D01*
X126488220Y-78672200D02*
X126392982Y-78719819D01*
X126392982Y-78719819D02*
X126202506Y-78719819D01*
X126202506Y-78719819D02*
X126107268Y-78672200D01*
X126107268Y-78672200D02*
X126059649Y-78624580D01*
X126059649Y-78624580D02*
X126012030Y-78529342D01*
X126012030Y-78529342D02*
X126012030Y-77719819D01*
X125678696Y-77719819D02*
X125107268Y-77719819D01*
X125392982Y-78719819D02*
X125392982Y-77719819D01*
X124821553Y-77815057D02*
X124773934Y-77767438D01*
X124773934Y-77767438D02*
X124678696Y-77719819D01*
X124678696Y-77719819D02*
X124440601Y-77719819D01*
X124440601Y-77719819D02*
X124345363Y-77767438D01*
X124345363Y-77767438D02*
X124297744Y-77815057D01*
X124297744Y-77815057D02*
X124250125Y-77910295D01*
X124250125Y-77910295D02*
X124250125Y-78005533D01*
X124250125Y-78005533D02*
X124297744Y-78148390D01*
X124297744Y-78148390D02*
X124869172Y-78719819D01*
X124869172Y-78719819D02*
X124250125Y-78719819D01*
X125535839Y-75947200D02*
X125392982Y-75994819D01*
X125392982Y-75994819D02*
X125154887Y-75994819D01*
X125154887Y-75994819D02*
X125059649Y-75947200D01*
X125059649Y-75947200D02*
X125012030Y-75899580D01*
X125012030Y-75899580D02*
X124964411Y-75804342D01*
X124964411Y-75804342D02*
X124964411Y-75709104D01*
X124964411Y-75709104D02*
X125012030Y-75613866D01*
X125012030Y-75613866D02*
X125059649Y-75566247D01*
X125059649Y-75566247D02*
X125154887Y-75518628D01*
X125154887Y-75518628D02*
X125345363Y-75471009D01*
X125345363Y-75471009D02*
X125440601Y-75423390D01*
X125440601Y-75423390D02*
X125488220Y-75375771D01*
X125488220Y-75375771D02*
X125535839Y-75280533D01*
X125535839Y-75280533D02*
X125535839Y-75185295D01*
X125535839Y-75185295D02*
X125488220Y-75090057D01*
X125488220Y-75090057D02*
X125440601Y-75042438D01*
X125440601Y-75042438D02*
X125345363Y-74994819D01*
X125345363Y-74994819D02*
X125107268Y-74994819D01*
X125107268Y-74994819D02*
X124964411Y-75042438D01*
X124631077Y-74994819D02*
X124392982Y-75994819D01*
X124392982Y-75994819D02*
X124202506Y-75280533D01*
X124202506Y-75280533D02*
X124012030Y-75994819D01*
X124012030Y-75994819D02*
X123773935Y-74994819D01*
X123440601Y-75090057D02*
X123392982Y-75042438D01*
X123392982Y-75042438D02*
X123297744Y-74994819D01*
X123297744Y-74994819D02*
X123059649Y-74994819D01*
X123059649Y-74994819D02*
X122964411Y-75042438D01*
X122964411Y-75042438D02*
X122916792Y-75090057D01*
X122916792Y-75090057D02*
X122869173Y-75185295D01*
X122869173Y-75185295D02*
X122869173Y-75280533D01*
X122869173Y-75280533D02*
X122916792Y-75423390D01*
X122916792Y-75423390D02*
X123488220Y-75994819D01*
X123488220Y-75994819D02*
X122869173Y-75994819D01*
D11*
G36*
X142945921Y-66020535D02*
G01*
X142982925Y-66057539D01*
X143027631Y-66146951D01*
X143027631Y-66504704D01*
X142982924Y-66594117D01*
X142945919Y-66631122D01*
X142856507Y-66675828D01*
X142641613Y-66675828D01*
X142613346Y-66661694D01*
X142613346Y-65989961D01*
X142641613Y-65975828D01*
X142856507Y-65975828D01*
X142945921Y-66020535D01*
G37*
G36*
X120351542Y-66009060D02*
G01*
X120384774Y-66075523D01*
X120384774Y-66142857D01*
X119977544Y-66061411D01*
X120003720Y-66009060D01*
X120070184Y-65975828D01*
X120285079Y-65975828D01*
X120351542Y-66009060D01*
G37*
G36*
X122588778Y-66020535D02*
G01*
X122625782Y-66057539D01*
X122670488Y-66146951D01*
X122670488Y-66504704D01*
X122625781Y-66594117D01*
X122588776Y-66631122D01*
X122499364Y-66675828D01*
X122355898Y-66675828D01*
X122266485Y-66631122D01*
X122229481Y-66594118D01*
X122184774Y-66504703D01*
X122184774Y-66146952D01*
X122229481Y-66057538D01*
X122266485Y-66020534D01*
X122355898Y-65975828D01*
X122499364Y-65975828D01*
X122588778Y-66020535D01*
G37*
G36*
X127384774Y-66675828D02*
G01*
X126998755Y-66675828D01*
X126909341Y-66631121D01*
X126872336Y-66594116D01*
X126827631Y-66504704D01*
X126827631Y-66361237D01*
X126872336Y-66271825D01*
X126901514Y-66242647D01*
X127059117Y-66190114D01*
X127384774Y-66190114D01*
X127384774Y-66675828D01*
G37*
G36*
X127384774Y-65890114D02*
G01*
X127070184Y-65890114D01*
X126980770Y-65845406D01*
X126943766Y-65808403D01*
X126899059Y-65718989D01*
X126899059Y-65646952D01*
X126943766Y-65557538D01*
X126980770Y-65520535D01*
X127070184Y-65475828D01*
X127384774Y-65475828D01*
X127384774Y-65890114D01*
G37*
G36*
X132208684Y-66009060D02*
G01*
X132241916Y-66075523D01*
X132241916Y-66142857D01*
X131834686Y-66061411D01*
X131860862Y-66009060D01*
X131927326Y-65975828D01*
X132142221Y-65975828D01*
X132208684Y-66009060D01*
G37*
G36*
X134422970Y-66437630D02*
G01*
X134456202Y-66504094D01*
X134456202Y-66576132D01*
X134422970Y-66642596D01*
X134356507Y-66675828D01*
X134070184Y-66675828D01*
X134041917Y-66661694D01*
X134041917Y-66404400D01*
X134356507Y-66404400D01*
X134422970Y-66437630D01*
G37*
G36*
X139010640Y-66228111D02*
G01*
X139054352Y-66271824D01*
X139099060Y-66361238D01*
X139099060Y-66504703D01*
X139054352Y-66594117D01*
X139017349Y-66631121D01*
X138927936Y-66675828D01*
X138784470Y-66675828D01*
X138695056Y-66631121D01*
X138648377Y-66584442D01*
X138635722Y-66567568D01*
X138935722Y-66207569D01*
X138940224Y-66200939D01*
X138945295Y-66194747D01*
X138950002Y-66187686D01*
X139010640Y-66228111D01*
G37*
G36*
X138851542Y-65509060D02*
G01*
X138884774Y-65575524D01*
X138884774Y-65658628D01*
X138850678Y-65760915D01*
X138773192Y-65709257D01*
X138729481Y-65665546D01*
X138684774Y-65576132D01*
X138684774Y-65575524D01*
X138718006Y-65509059D01*
X138784470Y-65475828D01*
X138785078Y-65475828D01*
X138851542Y-65509060D01*
G37*
G36*
X141637256Y-66437630D02*
G01*
X141670488Y-66504094D01*
X141670488Y-66576132D01*
X141637256Y-66642596D01*
X141570793Y-66675828D01*
X141284470Y-66675828D01*
X141256203Y-66661694D01*
X141256203Y-66404400D01*
X141570793Y-66404400D01*
X141637256Y-66437630D01*
G37*
G36*
X145231635Y-66020535D02*
G01*
X145268639Y-66057539D01*
X145313345Y-66146951D01*
X145313345Y-66504704D01*
X145268638Y-66594117D01*
X145231633Y-66631122D01*
X145142221Y-66675828D01*
X144998755Y-66675828D01*
X144909342Y-66631122D01*
X144872338Y-66594118D01*
X144827631Y-66504703D01*
X144827631Y-66146952D01*
X144872338Y-66057538D01*
X144909342Y-66020534D01*
X144998755Y-65975828D01*
X145142221Y-65975828D01*
X145231635Y-66020535D01*
G37*
G36*
X148874492Y-66020535D02*
G01*
X148911496Y-66057539D01*
X148956202Y-66146951D01*
X148956202Y-66504704D01*
X148911495Y-66594117D01*
X148874490Y-66631122D01*
X148785078Y-66675828D01*
X148641612Y-66675828D01*
X148552199Y-66631122D01*
X148515195Y-66594118D01*
X148470488Y-66504703D01*
X148470488Y-66146952D01*
X148515195Y-66057538D01*
X148552199Y-66020534D01*
X148641612Y-65975828D01*
X148785078Y-65975828D01*
X148874492Y-66020535D01*
G37*
G36*
X152208685Y-66437630D02*
G01*
X152241917Y-66504094D01*
X152241917Y-66576132D01*
X152208685Y-66642596D01*
X152142222Y-66675828D01*
X151855899Y-66675828D01*
X151827632Y-66661694D01*
X151827632Y-66404400D01*
X152142222Y-66404400D01*
X152208685Y-66437630D01*
G37*
G36*
X153670489Y-65961542D02*
G01*
X153284470Y-65961542D01*
X153195056Y-65916835D01*
X153158051Y-65879830D01*
X153113346Y-65790418D01*
X153113346Y-65646951D01*
X153158051Y-65557540D01*
X153195056Y-65520535D01*
X153284470Y-65475828D01*
X153670489Y-65475828D01*
X153670489Y-65961542D01*
G37*
G36*
X122445923Y-63677046D02*
G01*
X122482928Y-63714051D01*
X122527635Y-63803464D01*
X122527635Y-64089788D01*
X122482928Y-64179201D01*
X122445923Y-64216206D01*
X122356511Y-64260912D01*
X122141617Y-64260912D01*
X122052203Y-64216205D01*
X122015199Y-64179201D01*
X121970492Y-64089787D01*
X121970492Y-63803465D01*
X122015199Y-63714051D01*
X122052203Y-63677047D01*
X122141617Y-63632341D01*
X122356511Y-63632341D01*
X122445923Y-63677046D01*
G37*
G36*
X125231638Y-63105619D02*
G01*
X125268642Y-63142623D01*
X125321821Y-63248982D01*
X125384777Y-63500804D01*
X125384777Y-63821020D01*
X125321821Y-64072841D01*
X125268641Y-64179201D01*
X125231638Y-64216205D01*
X125142225Y-64260912D01*
X125070187Y-64260912D01*
X124980774Y-64216206D01*
X124943770Y-64179202D01*
X124890590Y-64072842D01*
X124827634Y-63821018D01*
X124827634Y-63500805D01*
X124890590Y-63248981D01*
X124943770Y-63142622D01*
X124980774Y-63105618D01*
X125070187Y-63060912D01*
X125142224Y-63060912D01*
X125231638Y-63105619D01*
G37*
G36*
X134241919Y-64260912D02*
G01*
X133855900Y-64260912D01*
X133766486Y-64216205D01*
X133729481Y-64179200D01*
X133684776Y-64089788D01*
X133684776Y-63946321D01*
X133729481Y-63856909D01*
X133758659Y-63827731D01*
X133916262Y-63775198D01*
X134241919Y-63775198D01*
X134241919Y-64260912D01*
G37*
G36*
X134241919Y-63475198D02*
G01*
X133927329Y-63475198D01*
X133837915Y-63430490D01*
X133800911Y-63393487D01*
X133756204Y-63304073D01*
X133756204Y-63232036D01*
X133800911Y-63142622D01*
X133837915Y-63105619D01*
X133927329Y-63060912D01*
X134241919Y-63060912D01*
X134241919Y-63475198D01*
G37*
G36*
X137851543Y-63594144D02*
G01*
X137884775Y-63660607D01*
X137884775Y-63727941D01*
X137477545Y-63646495D01*
X137503721Y-63594144D01*
X137570185Y-63560912D01*
X137785080Y-63560912D01*
X137851543Y-63594144D01*
G37*
G36*
X152803064Y-63605619D02*
G01*
X152840068Y-63642623D01*
X152884774Y-63732035D01*
X152884774Y-64089788D01*
X152840067Y-64179201D01*
X152803062Y-64216206D01*
X152713650Y-64260912D01*
X152570184Y-64260912D01*
X152480771Y-64216206D01*
X152443767Y-64179202D01*
X152399060Y-64089787D01*
X152399060Y-63732036D01*
X152443767Y-63642622D01*
X152480771Y-63605618D01*
X152570184Y-63560912D01*
X152713650Y-63560912D01*
X152803064Y-63605619D01*
G37*
G36*
X139313347Y-63546626D02*
G01*
X138927328Y-63546626D01*
X138837914Y-63501919D01*
X138800909Y-63464914D01*
X138756204Y-63375502D01*
X138756204Y-63232035D01*
X138800909Y-63142624D01*
X138837914Y-63105619D01*
X138927328Y-63060912D01*
X139313347Y-63060912D01*
X139313347Y-63546626D01*
G37*
G36*
X147755232Y-63832341D02*
G01*
X147457173Y-63832341D01*
X147606202Y-63385253D01*
X147755232Y-63832341D01*
G37*
G36*
X154348559Y-67642495D02*
G01*
X118219286Y-67642495D01*
X118219286Y-65878496D01*
X118385953Y-65878496D01*
X118390102Y-65936876D01*
X118416276Y-65989225D01*
X118460491Y-66027572D01*
X118516014Y-66046079D01*
X118574394Y-66041930D01*
X118601857Y-66031421D01*
X118713042Y-65975828D01*
X118927936Y-65975828D01*
X119017350Y-66020535D01*
X119054354Y-66057539D01*
X119099060Y-66146951D01*
X119099060Y-66504704D01*
X119054353Y-66594117D01*
X119017348Y-66631122D01*
X118927936Y-66675828D01*
X118713042Y-66675828D01*
X118601857Y-66620236D01*
X118574393Y-66609726D01*
X118516013Y-66605578D01*
X118460491Y-66624086D01*
X118416276Y-66662433D01*
X118390101Y-66714782D01*
X118385953Y-66773162D01*
X118404461Y-66828684D01*
X118442808Y-66872899D01*
X118467693Y-66888564D01*
X118610551Y-66959992D01*
X118638014Y-66970502D01*
X118643389Y-66970883D01*
X118648368Y-66972946D01*
X118677632Y-66975828D01*
X118963346Y-66975828D01*
X118992610Y-66972946D01*
X118997588Y-66970883D01*
X119002964Y-66970502D01*
X119030428Y-66959992D01*
X119173285Y-66888564D01*
X119185878Y-66880636D01*
X119189538Y-66879121D01*
X119193657Y-66875739D01*
X119198171Y-66872899D01*
X119200767Y-66869905D01*
X119212269Y-66860466D01*
X119283698Y-66789037D01*
X119293139Y-66777532D01*
X119296131Y-66774938D01*
X119298969Y-66770428D01*
X119302353Y-66766306D01*
X119303869Y-66762644D01*
X119311796Y-66750053D01*
X119383224Y-66607195D01*
X119393734Y-66579732D01*
X119394115Y-66574356D01*
X119396178Y-66569378D01*
X119399060Y-66540114D01*
X119399060Y-66111542D01*
X119396178Y-66082278D01*
X119394115Y-66077299D01*
X119393734Y-66071924D01*
X119383224Y-66044461D01*
X119381051Y-66040114D01*
X119670489Y-66040114D01*
X119670489Y-66182971D01*
X119673371Y-66212235D01*
X119678995Y-66225812D01*
X119681847Y-66240229D01*
X119690085Y-66252586D01*
X119695769Y-66266307D01*
X119706161Y-66276699D01*
X119714312Y-66288925D01*
X119726650Y-66297188D01*
X119737153Y-66307691D01*
X119750729Y-66313314D01*
X119762941Y-66321493D01*
X119791072Y-66330058D01*
X119791223Y-66330088D01*
X119791225Y-66330089D01*
X119791227Y-66330089D01*
X120384774Y-66448798D01*
X120384774Y-66576132D01*
X120351542Y-66642596D01*
X120285079Y-66675828D01*
X120070184Y-66675828D01*
X119958999Y-66620236D01*
X119931535Y-66609726D01*
X119873155Y-66605578D01*
X119817633Y-66624086D01*
X119773418Y-66662433D01*
X119747243Y-66714782D01*
X119743095Y-66773162D01*
X119761603Y-66828684D01*
X119799950Y-66872899D01*
X119824835Y-66888564D01*
X119967693Y-66959992D01*
X119995156Y-66970502D01*
X120000531Y-66970883D01*
X120005510Y-66972946D01*
X120034774Y-66975828D01*
X120320489Y-66975828D01*
X120349753Y-66972946D01*
X120354731Y-66970883D01*
X120360107Y-66970502D01*
X120387571Y-66959992D01*
X120530428Y-66888564D01*
X120535320Y-66885484D01*
X120537631Y-66884714D01*
X120540507Y-66882219D01*
X120555314Y-66872899D01*
X120567635Y-66858691D01*
X120581846Y-66846367D01*
X120591166Y-66831559D01*
X120593660Y-66828684D01*
X120594429Y-66826374D01*
X120597510Y-66821481D01*
X120668939Y-66678623D01*
X120679448Y-66651160D01*
X120679829Y-66645784D01*
X120681892Y-66640806D01*
X120684774Y-66611542D01*
X120684774Y-66325989D01*
X120684775Y-66325985D01*
X120684774Y-66325979D01*
X120684774Y-66040114D01*
X120681892Y-66010850D01*
X120679829Y-66005871D01*
X120679448Y-66000496D01*
X120668938Y-65973033D01*
X120597510Y-65830175D01*
X120594429Y-65825281D01*
X120593660Y-65822973D01*
X120591166Y-65820097D01*
X120581845Y-65805290D01*
X120571783Y-65796564D01*
X120816227Y-65796564D01*
X120816227Y-65855092D01*
X120838625Y-65909164D01*
X120880009Y-65950548D01*
X120934081Y-65972946D01*
X120963345Y-65975828D01*
X121070792Y-65975828D01*
X121160206Y-66020535D01*
X121197210Y-66057539D01*
X121241917Y-66146952D01*
X121241917Y-66825828D01*
X121244799Y-66855092D01*
X121267197Y-66909164D01*
X121308581Y-66950548D01*
X121362653Y-66972946D01*
X121421181Y-66972946D01*
X121475253Y-66950548D01*
X121516637Y-66909164D01*
X121539035Y-66855092D01*
X121541917Y-66825828D01*
X121541917Y-66111542D01*
X121884774Y-66111542D01*
X121884774Y-66540114D01*
X121887656Y-66569378D01*
X121889719Y-66574358D01*
X121890101Y-66579733D01*
X121900610Y-66607196D01*
X121972039Y-66750053D01*
X121979967Y-66762648D01*
X121981482Y-66766305D01*
X121984861Y-66770422D01*
X121987704Y-66774939D01*
X121990698Y-66777536D01*
X122000136Y-66789036D01*
X122071564Y-66860465D01*
X122083069Y-66869907D01*
X122085664Y-66872899D01*
X122090174Y-66875738D01*
X122094295Y-66879120D01*
X122097954Y-66880635D01*
X122110549Y-66888564D01*
X122253407Y-66959992D01*
X122280870Y-66970502D01*
X122286245Y-66970883D01*
X122291224Y-66972946D01*
X122320488Y-66975828D01*
X122534774Y-66975828D01*
X122564038Y-66972946D01*
X122569016Y-66970883D01*
X122574392Y-66970502D01*
X122601856Y-66959992D01*
X122744713Y-66888564D01*
X122757306Y-66880636D01*
X122760966Y-66879121D01*
X122765085Y-66875739D01*
X122769599Y-66872899D01*
X122772195Y-66869905D01*
X122783697Y-66860466D01*
X122855126Y-66789037D01*
X122864567Y-66777532D01*
X122867559Y-66774938D01*
X122870397Y-66770428D01*
X122873781Y-66766306D01*
X122875297Y-66762644D01*
X122883224Y-66750053D01*
X122954652Y-66607195D01*
X122965162Y-66579732D01*
X122965543Y-66574356D01*
X122967606Y-66569378D01*
X122970488Y-66540114D01*
X122970488Y-66111542D01*
X122967606Y-66082278D01*
X122965543Y-66077299D01*
X122965162Y-66071924D01*
X122954652Y-66044461D01*
X122883224Y-65901603D01*
X122875295Y-65889008D01*
X122873780Y-65885349D01*
X122870398Y-65881228D01*
X122867559Y-65876718D01*
X122864567Y-65874123D01*
X122855125Y-65862618D01*
X122783696Y-65791190D01*
X122772196Y-65781752D01*
X122769599Y-65778758D01*
X122765082Y-65775915D01*
X122760965Y-65772536D01*
X122757308Y-65771021D01*
X122744713Y-65763093D01*
X122601856Y-65691664D01*
X122574393Y-65681155D01*
X122569018Y-65680773D01*
X122564038Y-65678710D01*
X122534774Y-65675828D01*
X122320488Y-65675828D01*
X122291224Y-65678710D01*
X122286243Y-65680773D01*
X122280869Y-65681155D01*
X122253405Y-65691664D01*
X122110549Y-65763093D01*
X122097957Y-65771019D01*
X122094295Y-65772536D01*
X122090172Y-65775919D01*
X122085663Y-65778758D01*
X122083067Y-65781750D01*
X122071565Y-65791191D01*
X122000137Y-65862619D01*
X121990697Y-65874120D01*
X121987704Y-65876717D01*
X121984863Y-65881230D01*
X121981482Y-65885350D01*
X121979966Y-65889009D01*
X121972039Y-65901603D01*
X121900610Y-66044460D01*
X121890101Y-66071923D01*
X121889719Y-66077297D01*
X121887656Y-66082278D01*
X121884774Y-66111542D01*
X121541917Y-66111542D01*
X121541917Y-65825828D01*
X121539035Y-65796564D01*
X121516637Y-65742492D01*
X121475253Y-65701108D01*
X121421181Y-65678710D01*
X121362653Y-65678710D01*
X121308581Y-65701108D01*
X121269778Y-65739911D01*
X121173284Y-65691664D01*
X121145821Y-65681154D01*
X121140443Y-65680771D01*
X121135466Y-65678710D01*
X121106202Y-65675828D01*
X120963345Y-65675828D01*
X120934081Y-65678710D01*
X120880009Y-65701108D01*
X120838625Y-65742492D01*
X120816227Y-65796564D01*
X120571783Y-65796564D01*
X120567638Y-65792969D01*
X120555314Y-65778758D01*
X120540503Y-65769435D01*
X120537630Y-65766943D01*
X120535322Y-65766173D01*
X120530428Y-65763093D01*
X120387571Y-65691664D01*
X120360108Y-65681155D01*
X120354733Y-65680773D01*
X120349753Y-65678710D01*
X120320489Y-65675828D01*
X120034774Y-65675828D01*
X120005510Y-65678710D01*
X120000529Y-65680773D01*
X119995155Y-65681155D01*
X119967691Y-65691664D01*
X119824835Y-65763093D01*
X119819940Y-65766173D01*
X119817633Y-65766943D01*
X119814758Y-65769435D01*
X119799949Y-65778758D01*
X119787625Y-65792967D01*
X119773418Y-65805289D01*
X119764098Y-65820094D01*
X119761602Y-65822973D01*
X119760831Y-65825284D01*
X119757753Y-65830175D01*
X119686325Y-65973032D01*
X119675815Y-66000496D01*
X119675433Y-66005871D01*
X119673371Y-66010850D01*
X119670489Y-66040114D01*
X119381051Y-66040114D01*
X119311796Y-65901603D01*
X119303867Y-65889008D01*
X119302352Y-65885349D01*
X119298970Y-65881228D01*
X119296131Y-65876718D01*
X119293139Y-65874123D01*
X119283697Y-65862618D01*
X119212268Y-65791190D01*
X119200768Y-65781752D01*
X119198171Y-65778758D01*
X119193654Y-65775915D01*
X119189537Y-65772536D01*
X119185880Y-65771021D01*
X119173285Y-65763093D01*
X119030428Y-65691664D01*
X119002965Y-65681155D01*
X118997590Y-65680773D01*
X118992610Y-65678710D01*
X118963346Y-65675828D01*
X118677632Y-65675828D01*
X118648368Y-65678710D01*
X118643387Y-65680773D01*
X118638013Y-65681155D01*
X118610549Y-65691664D01*
X118467693Y-65763093D01*
X118442807Y-65778758D01*
X118404460Y-65822973D01*
X118385953Y-65878496D01*
X118219286Y-65878496D01*
X118219286Y-65325670D01*
X123170488Y-65325670D01*
X123173370Y-65340238D01*
X123173370Y-65355092D01*
X123178994Y-65368670D01*
X123181846Y-65383085D01*
X123195680Y-65409033D01*
X124040211Y-66675828D01*
X123320488Y-66675828D01*
X123291224Y-66678710D01*
X123237152Y-66701108D01*
X123195768Y-66742492D01*
X123173370Y-66796564D01*
X123173370Y-66855092D01*
X123195768Y-66909164D01*
X123237152Y-66950548D01*
X123291224Y-66972946D01*
X123320488Y-66975828D01*
X124320331Y-66975828D01*
X124320488Y-66975828D01*
X124349752Y-66972946D01*
X124363326Y-66967323D01*
X124377745Y-66964471D01*
X124390105Y-66956230D01*
X124403824Y-66950548D01*
X124414213Y-66940159D01*
X124426444Y-66932005D01*
X124434709Y-66919662D01*
X124445208Y-66909164D01*
X124450831Y-66895587D01*
X124459010Y-66883375D01*
X124461922Y-66868812D01*
X124467606Y-66855092D01*
X124467606Y-66840395D01*
X124470488Y-66825986D01*
X124467606Y-66811416D01*
X124467606Y-66796564D01*
X124461983Y-66782989D01*
X124459131Y-66768571D01*
X124445296Y-66742623D01*
X124433639Y-66725138D01*
X125816227Y-66725138D01*
X125816227Y-66783664D01*
X125818453Y-66789037D01*
X125838624Y-66837735D01*
X125838625Y-66837736D01*
X125857280Y-66860467D01*
X125928709Y-66931895D01*
X125951438Y-66950548D01*
X125951439Y-66950549D01*
X125973264Y-66959589D01*
X126005510Y-66972946D01*
X126005511Y-66972946D01*
X126005512Y-66972946D01*
X126064037Y-66972946D01*
X126064038Y-66972946D01*
X126096284Y-66959589D01*
X126118109Y-66950549D01*
X126140840Y-66931894D01*
X126212268Y-66860466D01*
X126230923Y-66837736D01*
X126253319Y-66783663D01*
X126253319Y-66757254D01*
X126253320Y-66725138D01*
X126230923Y-66671065D01*
X126212269Y-66648335D01*
X126140841Y-66576906D01*
X126118110Y-66558251D01*
X126118109Y-66558250D01*
X126086435Y-66545130D01*
X126064038Y-66535853D01*
X126005510Y-66535853D01*
X125983113Y-66545130D01*
X125951439Y-66558250D01*
X125928708Y-66576905D01*
X125857279Y-66648334D01*
X125838624Y-66671065D01*
X125818454Y-66719762D01*
X125816227Y-66725138D01*
X124433639Y-66725138D01*
X124167432Y-66325828D01*
X126527631Y-66325828D01*
X126527631Y-66540114D01*
X126530513Y-66569378D01*
X126532575Y-66574356D01*
X126532957Y-66579732D01*
X126543467Y-66607196D01*
X126614895Y-66750053D01*
X126622822Y-66762646D01*
X126624338Y-66766306D01*
X126627719Y-66770425D01*
X126630560Y-66774939D01*
X126633553Y-66777535D01*
X126642993Y-66789037D01*
X126714422Y-66860466D01*
X126725926Y-66869907D01*
X126728521Y-66872899D01*
X126733030Y-66875737D01*
X126737153Y-66879121D01*
X126740814Y-66880637D01*
X126753406Y-66888564D01*
X126896264Y-66959992D01*
X126923727Y-66970502D01*
X126929102Y-66970883D01*
X126934081Y-66972946D01*
X126963345Y-66975828D01*
X127534774Y-66975828D01*
X127564038Y-66972946D01*
X127618110Y-66950548D01*
X127659494Y-66909164D01*
X127681892Y-66855092D01*
X127681892Y-66855090D01*
X127684774Y-66825828D01*
X127684774Y-65837354D01*
X129099504Y-65837354D01*
X129101942Y-65846053D01*
X129101942Y-65855092D01*
X129109774Y-65874000D01*
X129115298Y-65893710D01*
X129122828Y-65905515D01*
X129124340Y-65909164D01*
X129126593Y-65911417D01*
X129131112Y-65918501D01*
X129726154Y-66675828D01*
X129249060Y-66675828D01*
X129219796Y-66678710D01*
X129165724Y-66701108D01*
X129124340Y-66742492D01*
X129101942Y-66796564D01*
X129101942Y-66855092D01*
X129124340Y-66909164D01*
X129165724Y-66950548D01*
X129219796Y-66972946D01*
X129249060Y-66975828D01*
X130034774Y-66975828D01*
X130043136Y-66975004D01*
X130046300Y-66975384D01*
X130050101Y-66974318D01*
X130064038Y-66972946D01*
X130082950Y-66965111D01*
X130102656Y-66959589D01*
X130109761Y-66954006D01*
X130118110Y-66950548D01*
X130132585Y-66936072D01*
X130148677Y-66923429D01*
X130153103Y-66915554D01*
X130159494Y-66909164D01*
X130167328Y-66890250D01*
X130177357Y-66872411D01*
X130178433Y-66863441D01*
X130181892Y-66855092D01*
X130181892Y-66834618D01*
X130184330Y-66814302D01*
X130181892Y-66805603D01*
X130181892Y-66796564D01*
X130174057Y-66777651D01*
X130168535Y-66757946D01*
X130161005Y-66746141D01*
X130159494Y-66742492D01*
X130157241Y-66740239D01*
X130152722Y-66733154D01*
X129557680Y-65975828D01*
X130034774Y-65975828D01*
X130064038Y-65972946D01*
X130118110Y-65950548D01*
X130159494Y-65909164D01*
X130181892Y-65855092D01*
X130181892Y-65847750D01*
X130314955Y-65847750D01*
X130322084Y-65876278D01*
X130679227Y-66876278D01*
X130691783Y-66902868D01*
X130696836Y-66908450D01*
X130700059Y-66915253D01*
X130716331Y-66929984D01*
X130731063Y-66946257D01*
X130737865Y-66949479D01*
X130743448Y-66954533D01*
X130764122Y-66961916D01*
X130783955Y-66971311D01*
X130791473Y-66971684D01*
X130798566Y-66974218D01*
X130820488Y-66973127D01*
X130842410Y-66974218D01*
X130849502Y-66971684D01*
X130857021Y-66971311D01*
X130876853Y-66961916D01*
X130897528Y-66954533D01*
X130903110Y-66949479D01*
X130909913Y-66946257D01*
X130924644Y-66929984D01*
X130940917Y-66915253D01*
X130944139Y-66908450D01*
X130949193Y-66902868D01*
X130961749Y-66876278D01*
X131260379Y-66040114D01*
X131527631Y-66040114D01*
X131527631Y-66182971D01*
X131530513Y-66212235D01*
X131536137Y-66225812D01*
X131538989Y-66240229D01*
X131547227Y-66252586D01*
X131552911Y-66266307D01*
X131563303Y-66276699D01*
X131571454Y-66288925D01*
X131583792Y-66297188D01*
X131594295Y-66307691D01*
X131607871Y-66313314D01*
X131620083Y-66321493D01*
X131648214Y-66330058D01*
X131648365Y-66330088D01*
X131648367Y-66330089D01*
X131648369Y-66330089D01*
X132241916Y-66448798D01*
X132241916Y-66576132D01*
X132208684Y-66642596D01*
X132142221Y-66675828D01*
X131927326Y-66675828D01*
X131816141Y-66620236D01*
X131788677Y-66609726D01*
X131730297Y-66605578D01*
X131674775Y-66624086D01*
X131630560Y-66662433D01*
X131604385Y-66714782D01*
X131600237Y-66773162D01*
X131618745Y-66828684D01*
X131657092Y-66872899D01*
X131681977Y-66888564D01*
X131824835Y-66959992D01*
X131852298Y-66970502D01*
X131857673Y-66970883D01*
X131862652Y-66972946D01*
X131891916Y-66975828D01*
X132177631Y-66975828D01*
X132206895Y-66972946D01*
X132211873Y-66970883D01*
X132217249Y-66970502D01*
X132244713Y-66959992D01*
X132387570Y-66888564D01*
X132392462Y-66885484D01*
X132394773Y-66884714D01*
X132397649Y-66882219D01*
X132412456Y-66872899D01*
X132424777Y-66858691D01*
X132438988Y-66846367D01*
X132448308Y-66831559D01*
X132450802Y-66828684D01*
X132451571Y-66826374D01*
X132454652Y-66821481D01*
X132526081Y-66678623D01*
X132536590Y-66651160D01*
X132536971Y-66645784D01*
X132539034Y-66640806D01*
X132541916Y-66611542D01*
X132541916Y-66325989D01*
X132541917Y-66325985D01*
X132541916Y-66325979D01*
X132541916Y-66040114D01*
X132539034Y-66010850D01*
X132536971Y-66005871D01*
X132536590Y-66000496D01*
X132526080Y-65973033D01*
X132454652Y-65830175D01*
X132451571Y-65825281D01*
X132450802Y-65822973D01*
X132448308Y-65820097D01*
X132438987Y-65805290D01*
X132428925Y-65796564D01*
X132673370Y-65796564D01*
X132673370Y-65855092D01*
X132695768Y-65909164D01*
X132737152Y-65950548D01*
X132791224Y-65972946D01*
X132820488Y-65975828D01*
X133027631Y-65975828D01*
X133027631Y-66576132D01*
X132994398Y-66642596D01*
X132927935Y-66675828D01*
X132820488Y-66675828D01*
X132791224Y-66678710D01*
X132737152Y-66701108D01*
X132695768Y-66742492D01*
X132673370Y-66796564D01*
X132673370Y-66855092D01*
X132695768Y-66909164D01*
X132737152Y-66950548D01*
X132791224Y-66972946D01*
X132820488Y-66975828D01*
X132963345Y-66975828D01*
X132992609Y-66972946D01*
X132997587Y-66970883D01*
X133002963Y-66970502D01*
X133030427Y-66959992D01*
X133173284Y-66888564D01*
X133178178Y-66885483D01*
X133180486Y-66884714D01*
X133183360Y-66882221D01*
X133198170Y-66872899D01*
X133210492Y-66858690D01*
X133224701Y-66846368D01*
X133234023Y-66831558D01*
X133236516Y-66828684D01*
X133237285Y-66826376D01*
X133240366Y-66821482D01*
X133311795Y-66678624D01*
X133322305Y-66651161D01*
X133322687Y-66645783D01*
X133324749Y-66640806D01*
X133327631Y-66611542D01*
X133327631Y-66040114D01*
X133741917Y-66040114D01*
X133741917Y-66825828D01*
X133744799Y-66855092D01*
X133767197Y-66909164D01*
X133808581Y-66950548D01*
X133862653Y-66972946D01*
X133921181Y-66972946D01*
X133960788Y-66956539D01*
X133967693Y-66959992D01*
X133995156Y-66970502D01*
X134000531Y-66970883D01*
X134005510Y-66972946D01*
X134034774Y-66975828D01*
X134391917Y-66975828D01*
X134421181Y-66972946D01*
X134426159Y-66970883D01*
X134431535Y-66970502D01*
X134458999Y-66959992D01*
X134601856Y-66888564D01*
X134606748Y-66885484D01*
X134609059Y-66884714D01*
X134611935Y-66882219D01*
X134626742Y-66872899D01*
X134639063Y-66858691D01*
X134653274Y-66846367D01*
X134662594Y-66831559D01*
X134665088Y-66828684D01*
X134665857Y-66826374D01*
X134668938Y-66821481D01*
X134740367Y-66678623D01*
X134750876Y-66651160D01*
X134751257Y-66645784D01*
X134753320Y-66640806D01*
X134756202Y-66611542D01*
X134756202Y-66468685D01*
X134753320Y-66439421D01*
X134751257Y-66434442D01*
X134750876Y-66429067D01*
X134740366Y-66401604D01*
X134668938Y-66258746D01*
X134665857Y-66253852D01*
X134665088Y-66251544D01*
X134662594Y-66248668D01*
X134653273Y-66233861D01*
X134639066Y-66221540D01*
X134626742Y-66207329D01*
X134611931Y-66198006D01*
X134609058Y-66195514D01*
X134606750Y-66194744D01*
X134601856Y-66191664D01*
X134458999Y-66120236D01*
X134431535Y-66109726D01*
X134426159Y-66109344D01*
X134421181Y-66107282D01*
X134391917Y-66104400D01*
X134070184Y-66104400D01*
X134041917Y-66090266D01*
X134041917Y-66075523D01*
X134075148Y-66009060D01*
X134141612Y-65975828D01*
X134356507Y-65975828D01*
X134467691Y-66031421D01*
X134495155Y-66041930D01*
X134553535Y-66046079D01*
X134609057Y-66027572D01*
X134653273Y-65989225D01*
X134679447Y-65936876D01*
X134683596Y-65878496D01*
X134665088Y-65822973D01*
X134626742Y-65778758D01*
X134601856Y-65763093D01*
X134458999Y-65691664D01*
X134431536Y-65681155D01*
X134426161Y-65680773D01*
X134421181Y-65678710D01*
X134391917Y-65675828D01*
X134106202Y-65675828D01*
X134076938Y-65678710D01*
X134071957Y-65680773D01*
X134066583Y-65681155D01*
X134039119Y-65691664D01*
X133896263Y-65763093D01*
X133891368Y-65766173D01*
X133889061Y-65766943D01*
X133886186Y-65769435D01*
X133871377Y-65778758D01*
X133859053Y-65792967D01*
X133844846Y-65805289D01*
X133835526Y-65820094D01*
X133833030Y-65822973D01*
X133832259Y-65825284D01*
X133829181Y-65830175D01*
X133757753Y-65973032D01*
X133747243Y-66000496D01*
X133746861Y-66005871D01*
X133744799Y-66010850D01*
X133741917Y-66040114D01*
X133327631Y-66040114D01*
X133327631Y-65975828D01*
X133391916Y-65975828D01*
X133421180Y-65972946D01*
X133475252Y-65950548D01*
X133516636Y-65909164D01*
X133539034Y-65855092D01*
X133539034Y-65796564D01*
X133516636Y-65742492D01*
X133475252Y-65701108D01*
X133421180Y-65678710D01*
X133391916Y-65675828D01*
X133327631Y-65675828D01*
X133327631Y-65325828D01*
X135099060Y-65325828D01*
X135099060Y-66825828D01*
X135101942Y-66855092D01*
X135124340Y-66909164D01*
X135165724Y-66950548D01*
X135219796Y-66972946D01*
X135278324Y-66972946D01*
X135332396Y-66950548D01*
X135373780Y-66909164D01*
X135396178Y-66855092D01*
X135399060Y-66825828D01*
X135399060Y-66001961D01*
X135613133Y-66460690D01*
X135619479Y-66471403D01*
X135620800Y-66475035D01*
X135623151Y-66477603D01*
X135628120Y-66485990D01*
X135644925Y-66501380D01*
X135660327Y-66518198D01*
X135666370Y-66521018D01*
X135671283Y-66525517D01*
X135692703Y-66533306D01*
X135713365Y-66542948D01*
X135720022Y-66543240D01*
X135726285Y-66545518D01*
X135749064Y-66544517D01*
X135771835Y-66545518D01*
X135778094Y-66543241D01*
X135784756Y-66542949D01*
X135805423Y-66533304D01*
X135826838Y-66525517D01*
X135831751Y-66521017D01*
X135837793Y-66518198D01*
X135853188Y-66501385D01*
X135870001Y-66485990D01*
X135874969Y-66477601D01*
X135877320Y-66475035D01*
X135878639Y-66471405D01*
X135884987Y-66460690D01*
X136099060Y-66001962D01*
X136099060Y-66825828D01*
X136101942Y-66855092D01*
X136124340Y-66909164D01*
X136165724Y-66950548D01*
X136219796Y-66972946D01*
X136278324Y-66972946D01*
X136332396Y-66950548D01*
X136373780Y-66909164D01*
X136396178Y-66855092D01*
X136399060Y-66825828D01*
X136399060Y-66796564D01*
X137887656Y-66796564D01*
X137887656Y-66855092D01*
X137910054Y-66909164D01*
X137951438Y-66950548D01*
X138005510Y-66972946D01*
X138034774Y-66975828D01*
X138106203Y-66975828D01*
X138135467Y-66972946D01*
X138140445Y-66970883D01*
X138145821Y-66970502D01*
X138173285Y-66959992D01*
X138316142Y-66888564D01*
X138328733Y-66880637D01*
X138332396Y-66879121D01*
X138336518Y-66875737D01*
X138341028Y-66872899D01*
X138343623Y-66869906D01*
X138355126Y-66860466D01*
X138427737Y-66787854D01*
X138428708Y-66789037D01*
X138500137Y-66860466D01*
X138511641Y-66869907D01*
X138514236Y-66872899D01*
X138518745Y-66875737D01*
X138522868Y-66879121D01*
X138526529Y-66880637D01*
X138539121Y-66888564D01*
X138681979Y-66959992D01*
X138709442Y-66970502D01*
X138714817Y-66970883D01*
X138719796Y-66972946D01*
X138749060Y-66975828D01*
X138963345Y-66975828D01*
X138992609Y-66972946D01*
X138997587Y-66970883D01*
X139002963Y-66970502D01*
X139030426Y-66959992D01*
X139173285Y-66888564D01*
X139185879Y-66880635D01*
X139189539Y-66879120D01*
X139193659Y-66875738D01*
X139198170Y-66872899D01*
X139200764Y-66869907D01*
X139212270Y-66860465D01*
X139283698Y-66789036D01*
X139293136Y-66777535D01*
X139296130Y-66774939D01*
X139298970Y-66770426D01*
X139302352Y-66766306D01*
X139303867Y-66762646D01*
X139311795Y-66750053D01*
X139383224Y-66607197D01*
X139393733Y-66579733D01*
X139394114Y-66574358D01*
X139396178Y-66569378D01*
X139399060Y-66540114D01*
X139399060Y-66325828D01*
X139396178Y-66296564D01*
X139394114Y-66291583D01*
X139393733Y-66286209D01*
X139383224Y-66258745D01*
X139311795Y-66115889D01*
X139303867Y-66103295D01*
X139302352Y-66099636D01*
X139298970Y-66095515D01*
X139296130Y-66091003D01*
X139293136Y-66088406D01*
X139283698Y-66076906D01*
X139246907Y-66040114D01*
X140956203Y-66040114D01*
X140956203Y-66825828D01*
X140959085Y-66855092D01*
X140981483Y-66909164D01*
X141022867Y-66950548D01*
X141076939Y-66972946D01*
X141135467Y-66972946D01*
X141175074Y-66956539D01*
X141181979Y-66959992D01*
X141209442Y-66970502D01*
X141214817Y-66970883D01*
X141219796Y-66972946D01*
X141249060Y-66975828D01*
X141606203Y-66975828D01*
X141635467Y-66972946D01*
X141640445Y-66970883D01*
X141645821Y-66970502D01*
X141673285Y-66959992D01*
X141816142Y-66888564D01*
X141821034Y-66885484D01*
X141823345Y-66884714D01*
X141826221Y-66882219D01*
X141841028Y-66872899D01*
X141853349Y-66858691D01*
X141867560Y-66846367D01*
X141876880Y-66831559D01*
X141879374Y-66828684D01*
X141880143Y-66826374D01*
X141883224Y-66821481D01*
X141954653Y-66678623D01*
X141965162Y-66651160D01*
X141965543Y-66645784D01*
X141967606Y-66640806D01*
X141970488Y-66611542D01*
X141970488Y-66468685D01*
X141967606Y-66439421D01*
X141965543Y-66434442D01*
X141965162Y-66429067D01*
X141954652Y-66401604D01*
X141883224Y-66258746D01*
X141880143Y-66253852D01*
X141879374Y-66251544D01*
X141876880Y-66248668D01*
X141867559Y-66233861D01*
X141853352Y-66221540D01*
X141841028Y-66207329D01*
X141826217Y-66198006D01*
X141823344Y-66195514D01*
X141821036Y-66194744D01*
X141816142Y-66191664D01*
X141673285Y-66120236D01*
X141645821Y-66109726D01*
X141640445Y-66109344D01*
X141635467Y-66107282D01*
X141606203Y-66104400D01*
X141284470Y-66104400D01*
X141256203Y-66090266D01*
X141256203Y-66075523D01*
X141289434Y-66009060D01*
X141355898Y-65975828D01*
X141570793Y-65975828D01*
X141681977Y-66031421D01*
X141709441Y-66041930D01*
X141767821Y-66046079D01*
X141823343Y-66027572D01*
X141867559Y-65989225D01*
X141893733Y-65936876D01*
X141897882Y-65878496D01*
X141880326Y-65825828D01*
X142313346Y-65825828D01*
X142313346Y-67040114D01*
X142316228Y-67069378D01*
X142318290Y-67074356D01*
X142318672Y-67079732D01*
X142329182Y-67107196D01*
X142400610Y-67250053D01*
X142408537Y-67262646D01*
X142410053Y-67266306D01*
X142413434Y-67270425D01*
X142416275Y-67274939D01*
X142419268Y-67277535D01*
X142428708Y-67289037D01*
X142500137Y-67360466D01*
X142511641Y-67369907D01*
X142514236Y-67372899D01*
X142518745Y-67375737D01*
X142522868Y-67379121D01*
X142526529Y-67380637D01*
X142539121Y-67388564D01*
X142681979Y-67459992D01*
X142709442Y-67470502D01*
X142714817Y-67470883D01*
X142719796Y-67472946D01*
X142749060Y-67475828D01*
X142963346Y-67475828D01*
X142992610Y-67472946D01*
X142997588Y-67470883D01*
X143002964Y-67470502D01*
X143030428Y-67459992D01*
X143173285Y-67388564D01*
X143198171Y-67372899D01*
X143236517Y-67328684D01*
X143255025Y-67273162D01*
X143250877Y-67214782D01*
X143224703Y-67162433D01*
X143180488Y-67124086D01*
X143124965Y-67105578D01*
X143066585Y-67109726D01*
X143039122Y-67120236D01*
X142927936Y-67175828D01*
X142784470Y-67175828D01*
X142695056Y-67131121D01*
X142658051Y-67094116D01*
X142613346Y-67004704D01*
X142613346Y-66975828D01*
X142891917Y-66975828D01*
X142921181Y-66972946D01*
X142926159Y-66970883D01*
X142931535Y-66970502D01*
X142958999Y-66959992D01*
X143101856Y-66888564D01*
X143114449Y-66880636D01*
X143118109Y-66879121D01*
X143122228Y-66875739D01*
X143126742Y-66872899D01*
X143129338Y-66869905D01*
X143140840Y-66860466D01*
X143212269Y-66789037D01*
X143221710Y-66777532D01*
X143224702Y-66774938D01*
X143227540Y-66770428D01*
X143230924Y-66766306D01*
X143232440Y-66762644D01*
X143240367Y-66750053D01*
X143311795Y-66607195D01*
X143322305Y-66579732D01*
X143322686Y-66574356D01*
X143324749Y-66569378D01*
X143327631Y-66540114D01*
X143327631Y-66111542D01*
X143324749Y-66082278D01*
X143322686Y-66077299D01*
X143322305Y-66071924D01*
X143311795Y-66044461D01*
X143240367Y-65901603D01*
X143232438Y-65889008D01*
X143230923Y-65885349D01*
X143227541Y-65881228D01*
X143224702Y-65876718D01*
X143221710Y-65874123D01*
X143212268Y-65862618D01*
X143146213Y-65796564D01*
X143459084Y-65796564D01*
X143459084Y-65855092D01*
X143481482Y-65909164D01*
X143522866Y-65950548D01*
X143576938Y-65972946D01*
X143606202Y-65975828D01*
X143713649Y-65975828D01*
X143803063Y-66020535D01*
X143840067Y-66057539D01*
X143884774Y-66146952D01*
X143884774Y-66825828D01*
X143887656Y-66855092D01*
X143910054Y-66909164D01*
X143951438Y-66950548D01*
X144005510Y-66972946D01*
X144064038Y-66972946D01*
X144118110Y-66950548D01*
X144159494Y-66909164D01*
X144181892Y-66855092D01*
X144184774Y-66825828D01*
X144184774Y-66111542D01*
X144527631Y-66111542D01*
X144527631Y-66540114D01*
X144530513Y-66569378D01*
X144532576Y-66574358D01*
X144532958Y-66579733D01*
X144543467Y-66607196D01*
X144614896Y-66750053D01*
X144622824Y-66762648D01*
X144624339Y-66766305D01*
X144627718Y-66770422D01*
X144630561Y-66774939D01*
X144633555Y-66777536D01*
X144642993Y-66789036D01*
X144714421Y-66860465D01*
X144725926Y-66869907D01*
X144728521Y-66872899D01*
X144733031Y-66875738D01*
X144737152Y-66879120D01*
X144740811Y-66880635D01*
X144753406Y-66888564D01*
X144896264Y-66959992D01*
X144923727Y-66970502D01*
X144929102Y-66970883D01*
X144934081Y-66972946D01*
X144963345Y-66975828D01*
X145177631Y-66975828D01*
X145206895Y-66972946D01*
X145211873Y-66970883D01*
X145217249Y-66970502D01*
X145244713Y-66959992D01*
X145387570Y-66888564D01*
X145400163Y-66880636D01*
X145403823Y-66879121D01*
X145407942Y-66875739D01*
X145412456Y-66872899D01*
X145415052Y-66869905D01*
X145426554Y-66860466D01*
X145497983Y-66789037D01*
X145507424Y-66777532D01*
X145510416Y-66774938D01*
X145513254Y-66770428D01*
X145516638Y-66766306D01*
X145518154Y-66762644D01*
X145526081Y-66750053D01*
X145597509Y-66607195D01*
X145608019Y-66579732D01*
X145608400Y-66574356D01*
X145610463Y-66569378D01*
X145613345Y-66540114D01*
X145613345Y-66111542D01*
X145610463Y-66082278D01*
X145608400Y-66077299D01*
X145608019Y-66071924D01*
X145597509Y-66044461D01*
X145526081Y-65901603D01*
X145518152Y-65889008D01*
X145516637Y-65885349D01*
X145513255Y-65881228D01*
X145510416Y-65876718D01*
X145507424Y-65874123D01*
X145497982Y-65862618D01*
X145426553Y-65791190D01*
X145415053Y-65781752D01*
X145412456Y-65778758D01*
X145407939Y-65775915D01*
X145403822Y-65772536D01*
X145400165Y-65771021D01*
X145387570Y-65763093D01*
X145244713Y-65691664D01*
X145217250Y-65681155D01*
X145211875Y-65680773D01*
X145206895Y-65678710D01*
X145177631Y-65675828D01*
X144963345Y-65675828D01*
X144934081Y-65678710D01*
X144929100Y-65680773D01*
X144923726Y-65681155D01*
X144896262Y-65691664D01*
X144753406Y-65763093D01*
X144740814Y-65771019D01*
X144737152Y-65772536D01*
X144733029Y-65775919D01*
X144728520Y-65778758D01*
X144725924Y-65781750D01*
X144714422Y-65791191D01*
X144642994Y-65862619D01*
X144633554Y-65874120D01*
X144630561Y-65876717D01*
X144627720Y-65881230D01*
X144624339Y-65885350D01*
X144622823Y-65889009D01*
X144614896Y-65901603D01*
X144543467Y-66044460D01*
X144532958Y-66071923D01*
X144532576Y-66077297D01*
X144530513Y-66082278D01*
X144527631Y-66111542D01*
X144184774Y-66111542D01*
X144184774Y-65825828D01*
X144181892Y-65796564D01*
X144159494Y-65742492D01*
X144118110Y-65701108D01*
X144064038Y-65678710D01*
X144005510Y-65678710D01*
X143951438Y-65701108D01*
X143912635Y-65739911D01*
X143816141Y-65691664D01*
X143788678Y-65681154D01*
X143783300Y-65680771D01*
X143778323Y-65678710D01*
X143749059Y-65675828D01*
X143606202Y-65675828D01*
X143576938Y-65678710D01*
X143522866Y-65701108D01*
X143481482Y-65742492D01*
X143459084Y-65796564D01*
X143146213Y-65796564D01*
X143140839Y-65791190D01*
X143129339Y-65781752D01*
X143126742Y-65778758D01*
X143122225Y-65775915D01*
X143118108Y-65772536D01*
X143114451Y-65771021D01*
X143101856Y-65763093D01*
X142958999Y-65691664D01*
X142931536Y-65681155D01*
X142926161Y-65680773D01*
X142921181Y-65678710D01*
X142891917Y-65675828D01*
X142606203Y-65675828D01*
X142576939Y-65678710D01*
X142571958Y-65680773D01*
X142566584Y-65681155D01*
X142539120Y-65691664D01*
X142532216Y-65695115D01*
X142492610Y-65678710D01*
X142434082Y-65678710D01*
X142380010Y-65701108D01*
X142338626Y-65742492D01*
X142316228Y-65796564D01*
X142313346Y-65825828D01*
X141880326Y-65825828D01*
X141879374Y-65822973D01*
X141841028Y-65778758D01*
X141816142Y-65763093D01*
X141673285Y-65691664D01*
X141645822Y-65681155D01*
X141640447Y-65680773D01*
X141635467Y-65678710D01*
X141606203Y-65675828D01*
X141320488Y-65675828D01*
X141291224Y-65678710D01*
X141286243Y-65680773D01*
X141280869Y-65681155D01*
X141253405Y-65691664D01*
X141110549Y-65763093D01*
X141105654Y-65766173D01*
X141103347Y-65766943D01*
X141100472Y-65769435D01*
X141085663Y-65778758D01*
X141073339Y-65792967D01*
X141059132Y-65805289D01*
X141049812Y-65820094D01*
X141047316Y-65822973D01*
X141046545Y-65825284D01*
X141043467Y-65830175D01*
X140972039Y-65973032D01*
X140961529Y-66000496D01*
X140961147Y-66005871D01*
X140959085Y-66010850D01*
X140956203Y-66040114D01*
X139246907Y-66040114D01*
X139212270Y-66005477D01*
X139212187Y-66005409D01*
X139212158Y-66005365D01*
X139200618Y-65995914D01*
X139189539Y-65986822D01*
X139189491Y-65986802D01*
X139189408Y-65986734D01*
X139109409Y-65933402D01*
X139177076Y-65730406D01*
X139180375Y-65715896D01*
X139181892Y-65712235D01*
X139182414Y-65706926D01*
X139183596Y-65701732D01*
X139183315Y-65697782D01*
X139184774Y-65682971D01*
X139184774Y-65540114D01*
X139181892Y-65510850D01*
X139179828Y-65505869D01*
X139179447Y-65500495D01*
X139168938Y-65473031D01*
X139097509Y-65330175D01*
X139094428Y-65325280D01*
X139093659Y-65322973D01*
X139091166Y-65320098D01*
X139081844Y-65305289D01*
X139071784Y-65296564D01*
X145744799Y-65296564D01*
X145744799Y-65355092D01*
X145767197Y-65409164D01*
X145808581Y-65450548D01*
X145862653Y-65472946D01*
X145891917Y-65475828D01*
X146170488Y-65475828D01*
X146170488Y-66825828D01*
X146173370Y-66855092D01*
X146195768Y-66909164D01*
X146237152Y-66950548D01*
X146291224Y-66972946D01*
X146349752Y-66972946D01*
X146403824Y-66950548D01*
X146445208Y-66909164D01*
X146467606Y-66855092D01*
X146470488Y-66825828D01*
X146470488Y-66111542D01*
X148170488Y-66111542D01*
X148170488Y-66540114D01*
X148173370Y-66569378D01*
X148175433Y-66574358D01*
X148175815Y-66579733D01*
X148186324Y-66607196D01*
X148257753Y-66750053D01*
X148265681Y-66762648D01*
X148267196Y-66766305D01*
X148270575Y-66770422D01*
X148273418Y-66774939D01*
X148276412Y-66777536D01*
X148285850Y-66789036D01*
X148357278Y-66860465D01*
X148368783Y-66869907D01*
X148371378Y-66872899D01*
X148375888Y-66875738D01*
X148380009Y-66879120D01*
X148383668Y-66880635D01*
X148396263Y-66888564D01*
X148539121Y-66959992D01*
X148566584Y-66970502D01*
X148571959Y-66970883D01*
X148576938Y-66972946D01*
X148606202Y-66975828D01*
X148820488Y-66975828D01*
X148849752Y-66972946D01*
X148854730Y-66970883D01*
X148860106Y-66970502D01*
X148887570Y-66959992D01*
X149030427Y-66888564D01*
X149043020Y-66880636D01*
X149046680Y-66879121D01*
X149050799Y-66875739D01*
X149055313Y-66872899D01*
X149057909Y-66869905D01*
X149069411Y-66860466D01*
X149112212Y-66817665D01*
X149527853Y-66817665D01*
X149536130Y-66875602D01*
X149565949Y-66925964D01*
X149612771Y-66961081D01*
X149669468Y-66975606D01*
X149727405Y-66967329D01*
X149777767Y-66937510D01*
X149797631Y-66915828D01*
X150099060Y-66513923D01*
X150099060Y-66825828D01*
X150101942Y-66855092D01*
X150124340Y-66909164D01*
X150165724Y-66950548D01*
X150219796Y-66972946D01*
X150278324Y-66972946D01*
X150332396Y-66950548D01*
X150373780Y-66909164D01*
X150396178Y-66855092D01*
X150399060Y-66825828D01*
X150399060Y-65825828D01*
X150813346Y-65825828D01*
X150813346Y-66825828D01*
X150816228Y-66855092D01*
X150838626Y-66909164D01*
X150880010Y-66950548D01*
X150934082Y-66972946D01*
X150992610Y-66972946D01*
X151046682Y-66950548D01*
X151088066Y-66909164D01*
X151110464Y-66855092D01*
X151113346Y-66825828D01*
X151113346Y-66040114D01*
X151527632Y-66040114D01*
X151527632Y-66825828D01*
X151530514Y-66855092D01*
X151552912Y-66909164D01*
X151594296Y-66950548D01*
X151648368Y-66972946D01*
X151706896Y-66972946D01*
X151746503Y-66956539D01*
X151753408Y-66959992D01*
X151780871Y-66970502D01*
X151786246Y-66970883D01*
X151791225Y-66972946D01*
X151820489Y-66975828D01*
X152177632Y-66975828D01*
X152206896Y-66972946D01*
X152211874Y-66970883D01*
X152217250Y-66970502D01*
X152244714Y-66959992D01*
X152387571Y-66888564D01*
X152392463Y-66885484D01*
X152394774Y-66884714D01*
X152397650Y-66882219D01*
X152412457Y-66872899D01*
X152424778Y-66858691D01*
X152438989Y-66846367D01*
X152448309Y-66831559D01*
X152450803Y-66828684D01*
X152451572Y-66826374D01*
X152454653Y-66821481D01*
X152526082Y-66678623D01*
X152536591Y-66651160D01*
X152536972Y-66645784D01*
X152539035Y-66640806D01*
X152541917Y-66611542D01*
X152541917Y-66468685D01*
X152539035Y-66439421D01*
X152536972Y-66434442D01*
X152536591Y-66429067D01*
X152526081Y-66401604D01*
X152454653Y-66258746D01*
X152451572Y-66253852D01*
X152450803Y-66251544D01*
X152448309Y-66248668D01*
X152438988Y-66233861D01*
X152424781Y-66221540D01*
X152412457Y-66207329D01*
X152397646Y-66198006D01*
X152394773Y-66195514D01*
X152392465Y-66194744D01*
X152387571Y-66191664D01*
X152244714Y-66120236D01*
X152217250Y-66109726D01*
X152211874Y-66109344D01*
X152206896Y-66107282D01*
X152177632Y-66104400D01*
X151855899Y-66104400D01*
X151827632Y-66090266D01*
X151827632Y-66075523D01*
X151860863Y-66009060D01*
X151927327Y-65975828D01*
X152142222Y-65975828D01*
X152253406Y-66031421D01*
X152280870Y-66041930D01*
X152339250Y-66046079D01*
X152394772Y-66027572D01*
X152438988Y-65989225D01*
X152465162Y-65936876D01*
X152469311Y-65878496D01*
X152450803Y-65822973D01*
X152412457Y-65778758D01*
X152387571Y-65763093D01*
X152244714Y-65691664D01*
X152217251Y-65681155D01*
X152211876Y-65680773D01*
X152206896Y-65678710D01*
X152177632Y-65675828D01*
X151891917Y-65675828D01*
X151862653Y-65678710D01*
X151857672Y-65680773D01*
X151852298Y-65681155D01*
X151824834Y-65691664D01*
X151681978Y-65763093D01*
X151677083Y-65766173D01*
X151674776Y-65766943D01*
X151671901Y-65769435D01*
X151657092Y-65778758D01*
X151644768Y-65792967D01*
X151630561Y-65805289D01*
X151621241Y-65820094D01*
X151618745Y-65822973D01*
X151617974Y-65825284D01*
X151614896Y-65830175D01*
X151543468Y-65973032D01*
X151532958Y-66000496D01*
X151532576Y-66005871D01*
X151530514Y-66010850D01*
X151527632Y-66040114D01*
X151113346Y-66040114D01*
X151113346Y-65825828D01*
X151110464Y-65796564D01*
X151088066Y-65742492D01*
X151046682Y-65701108D01*
X150992610Y-65678710D01*
X150934082Y-65678710D01*
X150880010Y-65701108D01*
X150838626Y-65742492D01*
X150816228Y-65796564D01*
X150813346Y-65825828D01*
X150399060Y-65825828D01*
X150399060Y-65367995D01*
X150744799Y-65367995D01*
X150744799Y-65426521D01*
X150750143Y-65439421D01*
X150767196Y-65480592D01*
X150767197Y-65480593D01*
X150785852Y-65503324D01*
X150857281Y-65574752D01*
X150880010Y-65593405D01*
X150880011Y-65593406D01*
X150909397Y-65605578D01*
X150934082Y-65615803D01*
X150934083Y-65615803D01*
X150934084Y-65615803D01*
X150992609Y-65615803D01*
X150992610Y-65615803D01*
X151002897Y-65611542D01*
X152813346Y-65611542D01*
X152813346Y-65825828D01*
X152816228Y-65855092D01*
X152818290Y-65860070D01*
X152818672Y-65865446D01*
X152829182Y-65892910D01*
X152900610Y-66035767D01*
X152908537Y-66048360D01*
X152910053Y-66052020D01*
X152913434Y-66056139D01*
X152916275Y-66060653D01*
X152919268Y-66063249D01*
X152928708Y-66074751D01*
X153000137Y-66146180D01*
X153011641Y-66155621D01*
X153014236Y-66158613D01*
X153018745Y-66161451D01*
X153022868Y-66164835D01*
X153026529Y-66166351D01*
X153039121Y-66174278D01*
X153181979Y-66245706D01*
X153185413Y-66247020D01*
X152840461Y-66739809D01*
X152826040Y-66765435D01*
X152813381Y-66822577D01*
X152823552Y-66880213D01*
X152855005Y-66929570D01*
X152902953Y-66963134D01*
X152960095Y-66975793D01*
X153017731Y-66965622D01*
X153067088Y-66934169D01*
X153086231Y-66911847D01*
X153541444Y-66261542D01*
X153670489Y-66261542D01*
X153670489Y-66825828D01*
X153673371Y-66855092D01*
X153695769Y-66909164D01*
X153737153Y-66950548D01*
X153791225Y-66972946D01*
X153849753Y-66972946D01*
X153903825Y-66950548D01*
X153945209Y-66909164D01*
X153967607Y-66855092D01*
X153970489Y-66825828D01*
X153970489Y-65325828D01*
X153967607Y-65296564D01*
X153945209Y-65242492D01*
X153903825Y-65201108D01*
X153849753Y-65178710D01*
X153820489Y-65175828D01*
X153249060Y-65175828D01*
X153219796Y-65178710D01*
X153214815Y-65180773D01*
X153209441Y-65181155D01*
X153181977Y-65191664D01*
X153039121Y-65263093D01*
X153026527Y-65271020D01*
X153022868Y-65272536D01*
X153018747Y-65275917D01*
X153014235Y-65278758D01*
X153011638Y-65281751D01*
X153000138Y-65291190D01*
X152928709Y-65362618D01*
X152919269Y-65374120D01*
X152916275Y-65376717D01*
X152913433Y-65381231D01*
X152910054Y-65385349D01*
X152908538Y-65389007D01*
X152900610Y-65401603D01*
X152829182Y-65544460D01*
X152818672Y-65571924D01*
X152818290Y-65577299D01*
X152816228Y-65582278D01*
X152813346Y-65611542D01*
X151002897Y-65611542D01*
X151017295Y-65605578D01*
X151046681Y-65593406D01*
X151069412Y-65574751D01*
X151140840Y-65503323D01*
X151159495Y-65480593D01*
X151181891Y-65426520D01*
X151181891Y-65400112D01*
X151181892Y-65367995D01*
X151159495Y-65313922D01*
X151140841Y-65291192D01*
X151069413Y-65219763D01*
X151046682Y-65201108D01*
X151046681Y-65201107D01*
X151013072Y-65187186D01*
X150992610Y-65178710D01*
X150934082Y-65178710D01*
X150913620Y-65187186D01*
X150880011Y-65201107D01*
X150857280Y-65219762D01*
X150785851Y-65291191D01*
X150767196Y-65313922D01*
X150747026Y-65362619D01*
X150744799Y-65367995D01*
X150399060Y-65367995D01*
X150399060Y-65325828D01*
X150396178Y-65296564D01*
X150373780Y-65242492D01*
X150332396Y-65201108D01*
X150278324Y-65178710D01*
X150219796Y-65178710D01*
X150165724Y-65201108D01*
X150124340Y-65242492D01*
X150101942Y-65296564D01*
X150099060Y-65325828D01*
X150099060Y-66035125D01*
X149783697Y-65719762D01*
X149760966Y-65701107D01*
X149706894Y-65678710D01*
X149648368Y-65678710D01*
X149594296Y-65701107D01*
X149552910Y-65742493D01*
X149530513Y-65796565D01*
X149530513Y-65855091D01*
X149552910Y-65909163D01*
X149571565Y-65931894D01*
X149908146Y-66268475D01*
X149557631Y-66735828D01*
X149542378Y-66760968D01*
X149527853Y-66817665D01*
X149112212Y-66817665D01*
X149140840Y-66789037D01*
X149150281Y-66777532D01*
X149153273Y-66774938D01*
X149156111Y-66770428D01*
X149159495Y-66766306D01*
X149161011Y-66762644D01*
X149168938Y-66750053D01*
X149240366Y-66607195D01*
X149250876Y-66579732D01*
X149251257Y-66574356D01*
X149253320Y-66569378D01*
X149256202Y-66540114D01*
X149256202Y-66111542D01*
X149253320Y-66082278D01*
X149251257Y-66077299D01*
X149250876Y-66071924D01*
X149240366Y-66044461D01*
X149168938Y-65901603D01*
X149161009Y-65889008D01*
X149159494Y-65885349D01*
X149156112Y-65881228D01*
X149153273Y-65876718D01*
X149150281Y-65874123D01*
X149140839Y-65862618D01*
X149069410Y-65791190D01*
X149057910Y-65781752D01*
X149055313Y-65778758D01*
X149050796Y-65775915D01*
X149046679Y-65772536D01*
X149043022Y-65771021D01*
X149030427Y-65763093D01*
X148887570Y-65691664D01*
X148860107Y-65681155D01*
X148854732Y-65680773D01*
X148849752Y-65678710D01*
X148820488Y-65675828D01*
X148606202Y-65675828D01*
X148576938Y-65678710D01*
X148571957Y-65680773D01*
X148566583Y-65681155D01*
X148539119Y-65691664D01*
X148396263Y-65763093D01*
X148383671Y-65771019D01*
X148380009Y-65772536D01*
X148375886Y-65775919D01*
X148371377Y-65778758D01*
X148368781Y-65781750D01*
X148357279Y-65791191D01*
X148285851Y-65862619D01*
X148276411Y-65874120D01*
X148273418Y-65876717D01*
X148270577Y-65881230D01*
X148267196Y-65885350D01*
X148265680Y-65889009D01*
X148257753Y-65901603D01*
X148186324Y-66044460D01*
X148175815Y-66071923D01*
X148175433Y-66077297D01*
X148173370Y-66082278D01*
X148170488Y-66111542D01*
X146470488Y-66111542D01*
X146470488Y-65475828D01*
X146749059Y-65475828D01*
X146778323Y-65472946D01*
X146832395Y-65450548D01*
X146873779Y-65409164D01*
X146896177Y-65355092D01*
X146896177Y-65296564D01*
X146873779Y-65242492D01*
X146832395Y-65201108D01*
X146778323Y-65178710D01*
X146749059Y-65175828D01*
X145891917Y-65175828D01*
X145862653Y-65178710D01*
X145808581Y-65201108D01*
X145767197Y-65242492D01*
X145744799Y-65296564D01*
X139071784Y-65296564D01*
X139067634Y-65292965D01*
X139055313Y-65278758D01*
X139040507Y-65269438D01*
X139037629Y-65266942D01*
X139035317Y-65266171D01*
X139030427Y-65263093D01*
X138887570Y-65191664D01*
X138860107Y-65181155D01*
X138854732Y-65180773D01*
X138849752Y-65178710D01*
X138820488Y-65175828D01*
X138749060Y-65175828D01*
X138719796Y-65178710D01*
X138714815Y-65180773D01*
X138709441Y-65181155D01*
X138681977Y-65191664D01*
X138539121Y-65263093D01*
X138534226Y-65266173D01*
X138531919Y-65266943D01*
X138529044Y-65269435D01*
X138514235Y-65278758D01*
X138501911Y-65292967D01*
X138487704Y-65305289D01*
X138478384Y-65320094D01*
X138475888Y-65322973D01*
X138475117Y-65325284D01*
X138472039Y-65330175D01*
X138400610Y-65473032D01*
X138390101Y-65500495D01*
X138389719Y-65505869D01*
X138387656Y-65510850D01*
X138384774Y-65540114D01*
X138384774Y-65611542D01*
X138387656Y-65640806D01*
X138389717Y-65645783D01*
X138390100Y-65651161D01*
X138400610Y-65678624D01*
X138472039Y-65821482D01*
X138479966Y-65834075D01*
X138481482Y-65837735D01*
X138484863Y-65841854D01*
X138487704Y-65846368D01*
X138490697Y-65848964D01*
X138500137Y-65860466D01*
X138571565Y-65931894D01*
X138571646Y-65931960D01*
X138571676Y-65932005D01*
X138582878Y-65941178D01*
X138594295Y-65950549D01*
X138594345Y-65950569D01*
X138594426Y-65950636D01*
X138700387Y-66021276D01*
X138700128Y-66021665D01*
X138452469Y-66318857D01*
X138399060Y-66158628D01*
X138399060Y-66040114D01*
X138396178Y-66010850D01*
X138373780Y-65956778D01*
X138332396Y-65915394D01*
X138278324Y-65892996D01*
X138219796Y-65892996D01*
X138165724Y-65915394D01*
X138124340Y-65956778D01*
X138101942Y-66010850D01*
X138099060Y-66040114D01*
X138099060Y-66182971D01*
X138100518Y-66197776D01*
X138100237Y-66201731D01*
X138101419Y-66206932D01*
X138101942Y-66212235D01*
X138103457Y-66215892D01*
X138106757Y-66230405D01*
X138178185Y-66444691D01*
X138184252Y-66458280D01*
X138185235Y-66462117D01*
X138187999Y-66466672D01*
X138190173Y-66471542D01*
X138192770Y-66474536D01*
X138200488Y-66487257D01*
X138244880Y-66546446D01*
X138160205Y-66631122D01*
X138070793Y-66675828D01*
X138034774Y-66675828D01*
X138005510Y-66678710D01*
X137951438Y-66701108D01*
X137910054Y-66742492D01*
X137887656Y-66796564D01*
X136399060Y-66796564D01*
X136399060Y-65325828D01*
X136397165Y-65306590D01*
X136397321Y-65303052D01*
X136396629Y-65301151D01*
X136396178Y-65296564D01*
X136386217Y-65272518D01*
X136377320Y-65248050D01*
X136375060Y-65245582D01*
X136373780Y-65242492D01*
X136355382Y-65224094D01*
X136337793Y-65204887D01*
X136334759Y-65203471D01*
X136332396Y-65201108D01*
X136308365Y-65191154D01*
X136284756Y-65180136D01*
X136281411Y-65179989D01*
X136278324Y-65178710D01*
X136252300Y-65178710D01*
X136226285Y-65177567D01*
X136223142Y-65178710D01*
X136219796Y-65178710D01*
X136195743Y-65188673D01*
X136171283Y-65197568D01*
X136168815Y-65199827D01*
X136165724Y-65201108D01*
X136147315Y-65219516D01*
X136128120Y-65237095D01*
X136125770Y-65241061D01*
X136124340Y-65242492D01*
X136122984Y-65245764D01*
X136113133Y-65262395D01*
X135749060Y-66042551D01*
X135384987Y-65262395D01*
X135375133Y-65245760D01*
X135373780Y-65242492D01*
X135372351Y-65241063D01*
X135370001Y-65237095D01*
X135350793Y-65219505D01*
X135332396Y-65201108D01*
X135329305Y-65199827D01*
X135326838Y-65197568D01*
X135302372Y-65188671D01*
X135278324Y-65178710D01*
X135274978Y-65178710D01*
X135271835Y-65177567D01*
X135245831Y-65178710D01*
X135219796Y-65178710D01*
X135216705Y-65179990D01*
X135213365Y-65180137D01*
X135189769Y-65191147D01*
X135165724Y-65201108D01*
X135163360Y-65203471D01*
X135160327Y-65204887D01*
X135142737Y-65224094D01*
X135124340Y-65242492D01*
X135123059Y-65245582D01*
X135120800Y-65248050D01*
X135111903Y-65272515D01*
X135101942Y-65296564D01*
X135101490Y-65301152D01*
X135100799Y-65303053D01*
X135100954Y-65306591D01*
X135099060Y-65325828D01*
X133327631Y-65325828D01*
X133324749Y-65296564D01*
X133302351Y-65242492D01*
X133260967Y-65201108D01*
X133206895Y-65178710D01*
X133148367Y-65178710D01*
X133094295Y-65201108D01*
X133052911Y-65242492D01*
X133030513Y-65296564D01*
X133027631Y-65325828D01*
X133027631Y-65675828D01*
X132820488Y-65675828D01*
X132791224Y-65678710D01*
X132737152Y-65701108D01*
X132695768Y-65742492D01*
X132673370Y-65796564D01*
X132428925Y-65796564D01*
X132424780Y-65792969D01*
X132412456Y-65778758D01*
X132397645Y-65769435D01*
X132394772Y-65766943D01*
X132392464Y-65766173D01*
X132387570Y-65763093D01*
X132244713Y-65691664D01*
X132217250Y-65681155D01*
X132211875Y-65680773D01*
X132206895Y-65678710D01*
X132177631Y-65675828D01*
X131891916Y-65675828D01*
X131862652Y-65678710D01*
X131857671Y-65680773D01*
X131852297Y-65681155D01*
X131824833Y-65691664D01*
X131681977Y-65763093D01*
X131677082Y-65766173D01*
X131674775Y-65766943D01*
X131671900Y-65769435D01*
X131657091Y-65778758D01*
X131644767Y-65792967D01*
X131630560Y-65805289D01*
X131621240Y-65820094D01*
X131618744Y-65822973D01*
X131617973Y-65825284D01*
X131614895Y-65830175D01*
X131543467Y-65973032D01*
X131532957Y-66000496D01*
X131532575Y-66005871D01*
X131530513Y-66010850D01*
X131527631Y-66040114D01*
X131260379Y-66040114D01*
X131318892Y-65876279D01*
X131326021Y-65847750D01*
X131323114Y-65789295D01*
X131298060Y-65736403D01*
X131254671Y-65697123D01*
X131199553Y-65677438D01*
X131141098Y-65680345D01*
X131088206Y-65705399D01*
X131048926Y-65748788D01*
X131036370Y-65775378D01*
X130820488Y-66379847D01*
X130604606Y-65775378D01*
X130592050Y-65748788D01*
X130552770Y-65705399D01*
X130499878Y-65680345D01*
X130441423Y-65677438D01*
X130386305Y-65697123D01*
X130342916Y-65736403D01*
X130317862Y-65789295D01*
X130314955Y-65847750D01*
X130181892Y-65847750D01*
X130181892Y-65796564D01*
X130159494Y-65742492D01*
X130118110Y-65701108D01*
X130064038Y-65678710D01*
X130034774Y-65675828D01*
X129249060Y-65675828D01*
X129240697Y-65676651D01*
X129237534Y-65676272D01*
X129233731Y-65677337D01*
X129219796Y-65678710D01*
X129200887Y-65686542D01*
X129181178Y-65692066D01*
X129174070Y-65697650D01*
X129165724Y-65701108D01*
X129151253Y-65715578D01*
X129135157Y-65728226D01*
X129130728Y-65736103D01*
X129124340Y-65742492D01*
X129116506Y-65761404D01*
X129106477Y-65779245D01*
X129105400Y-65788214D01*
X129101942Y-65796564D01*
X129101942Y-65817037D01*
X129099504Y-65837354D01*
X127684774Y-65837354D01*
X127684774Y-65325828D01*
X127681892Y-65296564D01*
X127659494Y-65242492D01*
X127618110Y-65201108D01*
X127564038Y-65178710D01*
X127534774Y-65175828D01*
X127034774Y-65175828D01*
X127005510Y-65178710D01*
X127000529Y-65180773D01*
X126995155Y-65181155D01*
X126967691Y-65191664D01*
X126824835Y-65263093D01*
X126812241Y-65271020D01*
X126808582Y-65272536D01*
X126804461Y-65275917D01*
X126799949Y-65278758D01*
X126797352Y-65281751D01*
X126785852Y-65291190D01*
X126714423Y-65362618D01*
X126704983Y-65374120D01*
X126701989Y-65376717D01*
X126699147Y-65381231D01*
X126695768Y-65385349D01*
X126694252Y-65389007D01*
X126686324Y-65401603D01*
X126614895Y-65544460D01*
X126604386Y-65571923D01*
X126604004Y-65577297D01*
X126601941Y-65582278D01*
X126599059Y-65611542D01*
X126599059Y-65754400D01*
X126601941Y-65783664D01*
X126604004Y-65788644D01*
X126604386Y-65794019D01*
X126614895Y-65821482D01*
X126686324Y-65964339D01*
X126694252Y-65976934D01*
X126695768Y-65980593D01*
X126699147Y-65984710D01*
X126701989Y-65989225D01*
X126704983Y-65991821D01*
X126714423Y-66003324D01*
X126715604Y-66004505D01*
X126714422Y-66005476D01*
X126642993Y-66076905D01*
X126633553Y-66088406D01*
X126630560Y-66091003D01*
X126627719Y-66095516D01*
X126624338Y-66099636D01*
X126622822Y-66103295D01*
X126614895Y-66115889D01*
X126543467Y-66258746D01*
X126532957Y-66286210D01*
X126532575Y-66291585D01*
X126530513Y-66296564D01*
X126527631Y-66325828D01*
X124167432Y-66325828D01*
X123600766Y-65475828D01*
X124320488Y-65475828D01*
X124349752Y-65472946D01*
X124403824Y-65450548D01*
X124445208Y-65409164D01*
X124467606Y-65355092D01*
X124467606Y-65296564D01*
X124445208Y-65242492D01*
X124403824Y-65201108D01*
X124349752Y-65178710D01*
X124320488Y-65175828D01*
X123320488Y-65175828D01*
X123291224Y-65178710D01*
X123277645Y-65184334D01*
X123263231Y-65187186D01*
X123250873Y-65195424D01*
X123237152Y-65201108D01*
X123226762Y-65211497D01*
X123214532Y-65219651D01*
X123206266Y-65231993D01*
X123195768Y-65242492D01*
X123190144Y-65256068D01*
X123181966Y-65268281D01*
X123179053Y-65282843D01*
X123173370Y-65296564D01*
X123173370Y-65311260D01*
X123170488Y-65325670D01*
X118219286Y-65325670D01*
X118219286Y-63768055D01*
X121670492Y-63768055D01*
X121670492Y-64125198D01*
X121673374Y-64154462D01*
X121675437Y-64159442D01*
X121675819Y-64164817D01*
X121686328Y-64192280D01*
X121757757Y-64335137D01*
X121765684Y-64347730D01*
X121767200Y-64351390D01*
X121770581Y-64355509D01*
X121773422Y-64360023D01*
X121776415Y-64362619D01*
X121785855Y-64374121D01*
X121857284Y-64445550D01*
X121868788Y-64454991D01*
X121871383Y-64457983D01*
X121875892Y-64460821D01*
X121880015Y-64464205D01*
X121883676Y-64465721D01*
X121896268Y-64473648D01*
X122039126Y-64545076D01*
X122066589Y-64555586D01*
X122071964Y-64555967D01*
X122076943Y-64558030D01*
X122106207Y-64560912D01*
X122391921Y-64560912D01*
X122421185Y-64558030D01*
X122426163Y-64555967D01*
X122431539Y-64555586D01*
X122459003Y-64545076D01*
X122601860Y-64473648D01*
X122614453Y-64465720D01*
X122618113Y-64464205D01*
X122622232Y-64460823D01*
X122626746Y-64457983D01*
X122629342Y-64454989D01*
X122640844Y-64445550D01*
X122712273Y-64374121D01*
X122721714Y-64362616D01*
X122724706Y-64360022D01*
X122727544Y-64355512D01*
X122730928Y-64351390D01*
X122732444Y-64347728D01*
X122740371Y-64335137D01*
X122811799Y-64192279D01*
X122822309Y-64164816D01*
X122822690Y-64159440D01*
X122824753Y-64154462D01*
X122827635Y-64125198D01*
X122827635Y-63553769D01*
X122827132Y-63548665D01*
X122827458Y-63546478D01*
X122825838Y-63535527D01*
X122824753Y-63524505D01*
X122823905Y-63522460D01*
X122823156Y-63517389D01*
X122751728Y-63231675D01*
X122745570Y-63214439D01*
X122744850Y-63210798D01*
X122743090Y-63207497D01*
X122741835Y-63203984D01*
X122739630Y-63201009D01*
X122737293Y-63196626D01*
X123099063Y-63196626D01*
X123099063Y-63339484D01*
X123100521Y-63354295D01*
X123100241Y-63358245D01*
X123101422Y-63363439D01*
X123101945Y-63368748D01*
X123103461Y-63372409D01*
X123106761Y-63386919D01*
X123178190Y-63601203D01*
X123190178Y-63628054D01*
X123193708Y-63632124D01*
X123195771Y-63637104D01*
X123214426Y-63659835D01*
X123815503Y-64260912D01*
X123249063Y-64260912D01*
X123219799Y-64263794D01*
X123165727Y-64286192D01*
X123124343Y-64327576D01*
X123101945Y-64381648D01*
X123101945Y-64440176D01*
X123124343Y-64494248D01*
X123165727Y-64535632D01*
X123219799Y-64558030D01*
X123249063Y-64560912D01*
X124177635Y-64560912D01*
X124206899Y-64558030D01*
X124238172Y-64545076D01*
X124260970Y-64535633D01*
X124302356Y-64494247D01*
X124315977Y-64461362D01*
X124324753Y-64440176D01*
X124324753Y-64381648D01*
X124315977Y-64360461D01*
X124302356Y-64327576D01*
X124283701Y-64304846D01*
X123461196Y-63482341D01*
X124527634Y-63482341D01*
X124527634Y-63839484D01*
X124528136Y-63844587D01*
X124527811Y-63846775D01*
X124529430Y-63857726D01*
X124530516Y-63868748D01*
X124531362Y-63870792D01*
X124532113Y-63875865D01*
X124603542Y-64161578D01*
X124604313Y-64163736D01*
X124604390Y-64164817D01*
X124609048Y-64176991D01*
X124613435Y-64189269D01*
X124614079Y-64190139D01*
X124614899Y-64192280D01*
X124686328Y-64335137D01*
X124694256Y-64347732D01*
X124695771Y-64351389D01*
X124699150Y-64355506D01*
X124701993Y-64360023D01*
X124704987Y-64362620D01*
X124714425Y-64374120D01*
X124785853Y-64445549D01*
X124797358Y-64454991D01*
X124799953Y-64457983D01*
X124804463Y-64460822D01*
X124808584Y-64464204D01*
X124812243Y-64465719D01*
X124824838Y-64473648D01*
X124967696Y-64545076D01*
X124995159Y-64555586D01*
X125000534Y-64555967D01*
X125005513Y-64558030D01*
X125034777Y-64560912D01*
X125177634Y-64560912D01*
X125206898Y-64558030D01*
X125211876Y-64555967D01*
X125217252Y-64555586D01*
X125244715Y-64545076D01*
X125387574Y-64473648D01*
X125400168Y-64465719D01*
X125403828Y-64464204D01*
X125407948Y-64460822D01*
X125412459Y-64457983D01*
X125415053Y-64454991D01*
X125426559Y-64445549D01*
X125497987Y-64374120D01*
X125507425Y-64362619D01*
X125510419Y-64360023D01*
X125513259Y-64355510D01*
X125516641Y-64351390D01*
X125518156Y-64347730D01*
X125526084Y-64335137D01*
X125597513Y-64192281D01*
X125598332Y-64190138D01*
X125598977Y-64189269D01*
X125603361Y-64176997D01*
X125608022Y-64164817D01*
X125608098Y-64163736D01*
X125608870Y-64161578D01*
X125680298Y-63875864D01*
X125681047Y-63870792D01*
X125681895Y-63868748D01*
X125682980Y-63857725D01*
X125684600Y-63846775D01*
X125684274Y-63844587D01*
X125684777Y-63839484D01*
X125684777Y-63482341D01*
X125684274Y-63477237D01*
X125684600Y-63475050D01*
X125682980Y-63464099D01*
X125681895Y-63453077D01*
X125681047Y-63451032D01*
X125680298Y-63445961D01*
X125617965Y-63196626D01*
X125956205Y-63196626D01*
X125956205Y-63339484D01*
X125957663Y-63354295D01*
X125957383Y-63358245D01*
X125958564Y-63363439D01*
X125959087Y-63368748D01*
X125960603Y-63372409D01*
X125963903Y-63386919D01*
X126035332Y-63601203D01*
X126047320Y-63628054D01*
X126050850Y-63632124D01*
X126052913Y-63637104D01*
X126071568Y-63659835D01*
X126672645Y-64260912D01*
X126106205Y-64260912D01*
X126076941Y-64263794D01*
X126022869Y-64286192D01*
X125981485Y-64327576D01*
X125959087Y-64381648D01*
X125959087Y-64440176D01*
X125981485Y-64494248D01*
X126022869Y-64535632D01*
X126076941Y-64558030D01*
X126106205Y-64560912D01*
X127034777Y-64560912D01*
X127064041Y-64558030D01*
X127095314Y-64545076D01*
X127118112Y-64535633D01*
X127159498Y-64494247D01*
X127173119Y-64461362D01*
X127181895Y-64440176D01*
X127181895Y-64381648D01*
X127173119Y-64360461D01*
X127159498Y-64327576D01*
X127140843Y-64304846D01*
X126308738Y-63472741D01*
X126256205Y-63315142D01*
X126256205Y-63232036D01*
X126300912Y-63142622D01*
X126337916Y-63105619D01*
X126427330Y-63060912D01*
X126713653Y-63060912D01*
X126803066Y-63105619D01*
X126857282Y-63159835D01*
X126880012Y-63178490D01*
X126934085Y-63200886D01*
X126992611Y-63200886D01*
X127046683Y-63178490D01*
X127088069Y-63137104D01*
X127110465Y-63083032D01*
X127110465Y-63024506D01*
X127088069Y-62970433D01*
X127069414Y-62947703D01*
X126997986Y-62876275D01*
X126986484Y-62866835D01*
X126983888Y-62863842D01*
X126979374Y-62861001D01*
X126975255Y-62857620D01*
X126971595Y-62856104D01*
X126959002Y-62848177D01*
X126816145Y-62776748D01*
X126793428Y-62768055D01*
X130099062Y-62768055D01*
X130099062Y-64910912D01*
X130101944Y-64940176D01*
X130124342Y-64994248D01*
X130165726Y-65035632D01*
X130219798Y-65058030D01*
X130278326Y-65058030D01*
X130332398Y-65035632D01*
X130373782Y-64994248D01*
X130396180Y-64940176D01*
X130399062Y-64910912D01*
X130399062Y-63910912D01*
X133384776Y-63910912D01*
X133384776Y-64125198D01*
X133387658Y-64154462D01*
X133389720Y-64159440D01*
X133390102Y-64164816D01*
X133400612Y-64192280D01*
X133472040Y-64335137D01*
X133479967Y-64347730D01*
X133481483Y-64351390D01*
X133484864Y-64355509D01*
X133487705Y-64360023D01*
X133490698Y-64362619D01*
X133500138Y-64374121D01*
X133571567Y-64445550D01*
X133583071Y-64454991D01*
X133585666Y-64457983D01*
X133590175Y-64460821D01*
X133594298Y-64464205D01*
X133597959Y-64465721D01*
X133610551Y-64473648D01*
X133753409Y-64545076D01*
X133780872Y-64555586D01*
X133786247Y-64555967D01*
X133791226Y-64558030D01*
X133820490Y-64560912D01*
X134391919Y-64560912D01*
X134421183Y-64558030D01*
X134475255Y-64535632D01*
X134516639Y-64494248D01*
X134539037Y-64440176D01*
X134539037Y-64440175D01*
X134541919Y-64410912D01*
X134541919Y-63432834D01*
X135957814Y-63432834D01*
X135964943Y-63461362D01*
X136322086Y-64461362D01*
X136334642Y-64487952D01*
X136339695Y-64493534D01*
X136342918Y-64500337D01*
X136359190Y-64515068D01*
X136373922Y-64531341D01*
X136380724Y-64534563D01*
X136386307Y-64539617D01*
X136406981Y-64547000D01*
X136426814Y-64556395D01*
X136434332Y-64556768D01*
X136441425Y-64559302D01*
X136463347Y-64558211D01*
X136485269Y-64559302D01*
X136492361Y-64556768D01*
X136499880Y-64556395D01*
X136519712Y-64547000D01*
X136540387Y-64539617D01*
X136545969Y-64534563D01*
X136552772Y-64531341D01*
X136567503Y-64515068D01*
X136583776Y-64500337D01*
X136586998Y-64493534D01*
X136592052Y-64487952D01*
X136604608Y-64461362D01*
X136903238Y-63625198D01*
X137170490Y-63625198D01*
X137170490Y-63768055D01*
X137173372Y-63797319D01*
X137178996Y-63810896D01*
X137181848Y-63825313D01*
X137190086Y-63837670D01*
X137195770Y-63851391D01*
X137206162Y-63861783D01*
X137214313Y-63874009D01*
X137226651Y-63882272D01*
X137237154Y-63892775D01*
X137250730Y-63898398D01*
X137262942Y-63906577D01*
X137291073Y-63915142D01*
X137291224Y-63915172D01*
X137291226Y-63915173D01*
X137291228Y-63915173D01*
X137884775Y-64033882D01*
X137884775Y-64161216D01*
X137851543Y-64227680D01*
X137785080Y-64260912D01*
X137570185Y-64260912D01*
X137459000Y-64205320D01*
X137431536Y-64194810D01*
X137373156Y-64190662D01*
X137317634Y-64209170D01*
X137273419Y-64247517D01*
X137247244Y-64299866D01*
X137243096Y-64358246D01*
X137261604Y-64413768D01*
X137299951Y-64457983D01*
X137324836Y-64473648D01*
X137467694Y-64545076D01*
X137495157Y-64555586D01*
X137500532Y-64555967D01*
X137505511Y-64558030D01*
X137534775Y-64560912D01*
X137820490Y-64560912D01*
X137849754Y-64558030D01*
X137854732Y-64555967D01*
X137860108Y-64555586D01*
X137887572Y-64545076D01*
X138030429Y-64473648D01*
X138035321Y-64470568D01*
X138037632Y-64469798D01*
X138040508Y-64467303D01*
X138055315Y-64457983D01*
X138067636Y-64443775D01*
X138081847Y-64431451D01*
X138091167Y-64416643D01*
X138093661Y-64413768D01*
X138094430Y-64411458D01*
X138097511Y-64406565D01*
X138168940Y-64263707D01*
X138179449Y-64236244D01*
X138179830Y-64230868D01*
X138181893Y-64225890D01*
X138184775Y-64196626D01*
X138184775Y-63911073D01*
X138184776Y-63911069D01*
X138184775Y-63911063D01*
X138184775Y-63625198D01*
X138181893Y-63595934D01*
X138179830Y-63590955D01*
X138179449Y-63585580D01*
X138168939Y-63558117D01*
X138097511Y-63415259D01*
X138094430Y-63410365D01*
X138093661Y-63408057D01*
X138091167Y-63405181D01*
X138081846Y-63390374D01*
X138067639Y-63378053D01*
X138055315Y-63363842D01*
X138040504Y-63354519D01*
X138037631Y-63352027D01*
X138035323Y-63351257D01*
X138030429Y-63348177D01*
X137887572Y-63276748D01*
X137860109Y-63266239D01*
X137854734Y-63265857D01*
X137849754Y-63263794D01*
X137820490Y-63260912D01*
X137534775Y-63260912D01*
X137505511Y-63263794D01*
X137500530Y-63265857D01*
X137495156Y-63266239D01*
X137467692Y-63276748D01*
X137324836Y-63348177D01*
X137319941Y-63351257D01*
X137317634Y-63352027D01*
X137314759Y-63354519D01*
X137299950Y-63363842D01*
X137287626Y-63378051D01*
X137273419Y-63390373D01*
X137264099Y-63405178D01*
X137261603Y-63408057D01*
X137260832Y-63410368D01*
X137257754Y-63415259D01*
X137186326Y-63558116D01*
X137175816Y-63585580D01*
X137175434Y-63590955D01*
X137173372Y-63595934D01*
X137170490Y-63625198D01*
X136903238Y-63625198D01*
X136961751Y-63461363D01*
X136968880Y-63432834D01*
X136965973Y-63374379D01*
X136940919Y-63321487D01*
X136897530Y-63282207D01*
X136842412Y-63262522D01*
X136783957Y-63265429D01*
X136731065Y-63290483D01*
X136691785Y-63333872D01*
X136679229Y-63360462D01*
X136463347Y-63964931D01*
X136247465Y-63360462D01*
X136234909Y-63333872D01*
X136195629Y-63290483D01*
X136142737Y-63265429D01*
X136084282Y-63262522D01*
X136029164Y-63282207D01*
X135985775Y-63321487D01*
X135960721Y-63374379D01*
X135957814Y-63432834D01*
X134541919Y-63432834D01*
X134541919Y-63196626D01*
X138456204Y-63196626D01*
X138456204Y-63410912D01*
X138459086Y-63440176D01*
X138461148Y-63445154D01*
X138461530Y-63450530D01*
X138472040Y-63477994D01*
X138543468Y-63620851D01*
X138551395Y-63633444D01*
X138552911Y-63637104D01*
X138556292Y-63641223D01*
X138559133Y-63645737D01*
X138562126Y-63648333D01*
X138571566Y-63659835D01*
X138642995Y-63731264D01*
X138654499Y-63740705D01*
X138657094Y-63743697D01*
X138661603Y-63746535D01*
X138665726Y-63749919D01*
X138669387Y-63751435D01*
X138681979Y-63759362D01*
X138824837Y-63830790D01*
X138828271Y-63832104D01*
X138483319Y-64324893D01*
X138468898Y-64350519D01*
X138456239Y-64407661D01*
X138466410Y-64465297D01*
X138497863Y-64514654D01*
X138545811Y-64548218D01*
X138602953Y-64560877D01*
X138660589Y-64550706D01*
X138709946Y-64519253D01*
X138729089Y-64496931D01*
X139184302Y-63846626D01*
X139313347Y-63846626D01*
X139313347Y-64410912D01*
X139316229Y-64440176D01*
X139338627Y-64494248D01*
X139380011Y-64535632D01*
X139434083Y-64558030D01*
X139492611Y-64558030D01*
X139546683Y-64535632D01*
X139588067Y-64494248D01*
X139610465Y-64440176D01*
X139613347Y-64410912D01*
X139613347Y-62910912D01*
X139610465Y-62881648D01*
X139588067Y-62827576D01*
X139546683Y-62786192D01*
X139502898Y-62768055D01*
X142670489Y-62768055D01*
X142670489Y-64910912D01*
X142673371Y-64940176D01*
X142695769Y-64994248D01*
X142737153Y-65035632D01*
X142791225Y-65058030D01*
X142849753Y-65058030D01*
X142903825Y-65035632D01*
X142945209Y-64994248D01*
X142967607Y-64940176D01*
X142970489Y-64910912D01*
X142970489Y-62881648D01*
X145816228Y-62881648D01*
X145816228Y-62940176D01*
X145838626Y-62994248D01*
X145880010Y-63035632D01*
X145934082Y-63058030D01*
X145963346Y-63060912D01*
X146241917Y-63060912D01*
X146241917Y-64410912D01*
X146244799Y-64440176D01*
X146267197Y-64494248D01*
X146308581Y-64535632D01*
X146362653Y-64558030D01*
X146421181Y-64558030D01*
X146475253Y-64535632D01*
X146516637Y-64494248D01*
X146539035Y-64440176D01*
X146541917Y-64410912D01*
X146541917Y-64392151D01*
X146957380Y-64392151D01*
X146961529Y-64450532D01*
X146987703Y-64502879D01*
X147031917Y-64541226D01*
X147087441Y-64559734D01*
X147145822Y-64555585D01*
X147198169Y-64529411D01*
X147236516Y-64485197D01*
X147248504Y-64458346D01*
X147357173Y-64132341D01*
X147855232Y-64132341D01*
X147963900Y-64458346D01*
X147975888Y-64485197D01*
X148014235Y-64529412D01*
X148066583Y-64555585D01*
X148124963Y-64559735D01*
X148180487Y-64541226D01*
X148224701Y-64502879D01*
X148250875Y-64450532D01*
X148255025Y-64392152D01*
X148248505Y-64363478D01*
X147764315Y-62910912D01*
X148456203Y-62910912D01*
X148456203Y-64410912D01*
X148459085Y-64440176D01*
X148481483Y-64494248D01*
X148522867Y-64535632D01*
X148576939Y-64558030D01*
X148635467Y-64558030D01*
X148689539Y-64535632D01*
X148730923Y-64494248D01*
X148753321Y-64440176D01*
X148756203Y-64410912D01*
X148756203Y-63775198D01*
X149313346Y-63775198D01*
X149313346Y-64410912D01*
X149316228Y-64440176D01*
X149338626Y-64494248D01*
X149380010Y-64535632D01*
X149434082Y-64558030D01*
X149492610Y-64558030D01*
X149546682Y-64535632D01*
X149588066Y-64494248D01*
X149610464Y-64440176D01*
X149613346Y-64410912D01*
X149613346Y-63422438D01*
X149885219Y-63422438D01*
X149901013Y-63478794D01*
X149916827Y-63503585D01*
X150236869Y-63910912D01*
X149916827Y-64318239D01*
X149901013Y-64343030D01*
X149885219Y-64399386D01*
X149892192Y-64457495D01*
X149920872Y-64508514D01*
X149966893Y-64544674D01*
X150023249Y-64560468D01*
X150081358Y-64553495D01*
X150132377Y-64524815D01*
X150152723Y-64503585D01*
X150427632Y-64153700D01*
X150702541Y-64503585D01*
X150722887Y-64524815D01*
X150773906Y-64553495D01*
X150832015Y-64560468D01*
X150888371Y-64544673D01*
X150934392Y-64508513D01*
X150963072Y-64457495D01*
X150970045Y-64399386D01*
X150954250Y-64343030D01*
X150938437Y-64318238D01*
X150618394Y-63910912D01*
X150938437Y-63503586D01*
X150954250Y-63478794D01*
X150970045Y-63422438D01*
X150965150Y-63381648D01*
X151030513Y-63381648D01*
X151030513Y-63440176D01*
X151052911Y-63494248D01*
X151094295Y-63535632D01*
X151148367Y-63558030D01*
X151177631Y-63560912D01*
X151285078Y-63560912D01*
X151374492Y-63605619D01*
X151411496Y-63642623D01*
X151456203Y-63732036D01*
X151456203Y-64410912D01*
X151459085Y-64440176D01*
X151481483Y-64494248D01*
X151522867Y-64535632D01*
X151576939Y-64558030D01*
X151635467Y-64558030D01*
X151689539Y-64535632D01*
X151730923Y-64494248D01*
X151753321Y-64440176D01*
X151756203Y-64410912D01*
X151756203Y-63696626D01*
X152099060Y-63696626D01*
X152099060Y-64125198D01*
X152101942Y-64154462D01*
X152104005Y-64159442D01*
X152104387Y-64164817D01*
X152114896Y-64192280D01*
X152186325Y-64335137D01*
X152194253Y-64347732D01*
X152195768Y-64351389D01*
X152199147Y-64355506D01*
X152201990Y-64360023D01*
X152204984Y-64362620D01*
X152214422Y-64374120D01*
X152285850Y-64445549D01*
X152297355Y-64454991D01*
X152299950Y-64457983D01*
X152304460Y-64460822D01*
X152308581Y-64464204D01*
X152312240Y-64465719D01*
X152324835Y-64473648D01*
X152467693Y-64545076D01*
X152495156Y-64555586D01*
X152500531Y-64555967D01*
X152505510Y-64558030D01*
X152534774Y-64560912D01*
X152749060Y-64560912D01*
X152778324Y-64558030D01*
X152783302Y-64555967D01*
X152788678Y-64555586D01*
X152816142Y-64545076D01*
X152958999Y-64473648D01*
X152971592Y-64465720D01*
X152975252Y-64464205D01*
X152979371Y-64460823D01*
X152983885Y-64457983D01*
X152986481Y-64454989D01*
X152997983Y-64445550D01*
X153069412Y-64374121D01*
X153078853Y-64362616D01*
X153081845Y-64360022D01*
X153084683Y-64355512D01*
X153088067Y-64351390D01*
X153089583Y-64347728D01*
X153097510Y-64335137D01*
X153168938Y-64192279D01*
X153179448Y-64164816D01*
X153179829Y-64159440D01*
X153181892Y-64154462D01*
X153184774Y-64125198D01*
X153184774Y-63696626D01*
X153181892Y-63667362D01*
X153179829Y-63662383D01*
X153179448Y-63657008D01*
X153168938Y-63629545D01*
X153097510Y-63486687D01*
X153089581Y-63474092D01*
X153088066Y-63470433D01*
X153084684Y-63466312D01*
X153081845Y-63461802D01*
X153078853Y-63459207D01*
X153069411Y-63447702D01*
X153003356Y-63381648D01*
X153316228Y-63381648D01*
X153316228Y-63440176D01*
X153338626Y-63494248D01*
X153380010Y-63535632D01*
X153434082Y-63558030D01*
X153463346Y-63560912D01*
X153670489Y-63560912D01*
X153670489Y-64161216D01*
X153637256Y-64227680D01*
X153570793Y-64260912D01*
X153463346Y-64260912D01*
X153434082Y-64263794D01*
X153380010Y-64286192D01*
X153338626Y-64327576D01*
X153316228Y-64381648D01*
X153316228Y-64440176D01*
X153338626Y-64494248D01*
X153380010Y-64535632D01*
X153434082Y-64558030D01*
X153463346Y-64560912D01*
X153606203Y-64560912D01*
X153635467Y-64558030D01*
X153640445Y-64555967D01*
X153645821Y-64555586D01*
X153673285Y-64545076D01*
X153816142Y-64473648D01*
X153821036Y-64470567D01*
X153823344Y-64469798D01*
X153826218Y-64467305D01*
X153841028Y-64457983D01*
X153853350Y-64443774D01*
X153867559Y-64431452D01*
X153876881Y-64416642D01*
X153879374Y-64413768D01*
X153880143Y-64411460D01*
X153883224Y-64406566D01*
X153954653Y-64263708D01*
X153965163Y-64236245D01*
X153965545Y-64230867D01*
X153967607Y-64225890D01*
X153970489Y-64196626D01*
X153970489Y-63560912D01*
X154034774Y-63560912D01*
X154064038Y-63558030D01*
X154118110Y-63535632D01*
X154159494Y-63494248D01*
X154181892Y-63440176D01*
X154181892Y-63381648D01*
X154159494Y-63327576D01*
X154118110Y-63286192D01*
X154064038Y-63263794D01*
X154034774Y-63260912D01*
X153970489Y-63260912D01*
X153970489Y-62910912D01*
X153967607Y-62881648D01*
X153945209Y-62827576D01*
X153903825Y-62786192D01*
X153849753Y-62763794D01*
X153791225Y-62763794D01*
X153737153Y-62786192D01*
X153695769Y-62827576D01*
X153673371Y-62881648D01*
X153670489Y-62910912D01*
X153670489Y-63260912D01*
X153463346Y-63260912D01*
X153434082Y-63263794D01*
X153380010Y-63286192D01*
X153338626Y-63327576D01*
X153316228Y-63381648D01*
X153003356Y-63381648D01*
X152997982Y-63376274D01*
X152986482Y-63366836D01*
X152983885Y-63363842D01*
X152979368Y-63360999D01*
X152975251Y-63357620D01*
X152971594Y-63356105D01*
X152958999Y-63348177D01*
X152816142Y-63276748D01*
X152788679Y-63266239D01*
X152783304Y-63265857D01*
X152778324Y-63263794D01*
X152749060Y-63260912D01*
X152534774Y-63260912D01*
X152505510Y-63263794D01*
X152500529Y-63265857D01*
X152495155Y-63266239D01*
X152467691Y-63276748D01*
X152324835Y-63348177D01*
X152312243Y-63356103D01*
X152308581Y-63357620D01*
X152304458Y-63361003D01*
X152299949Y-63363842D01*
X152297353Y-63366834D01*
X152285851Y-63376275D01*
X152214423Y-63447703D01*
X152204983Y-63459204D01*
X152201990Y-63461801D01*
X152199149Y-63466314D01*
X152195768Y-63470434D01*
X152194252Y-63474093D01*
X152186325Y-63486687D01*
X152114896Y-63629544D01*
X152104387Y-63657007D01*
X152104005Y-63662381D01*
X152101942Y-63667362D01*
X152099060Y-63696626D01*
X151756203Y-63696626D01*
X151756203Y-63410912D01*
X151753321Y-63381648D01*
X151730923Y-63327576D01*
X151689539Y-63286192D01*
X151635467Y-63263794D01*
X151576939Y-63263794D01*
X151522867Y-63286192D01*
X151484064Y-63324995D01*
X151387570Y-63276748D01*
X151360107Y-63266238D01*
X151354729Y-63265855D01*
X151349752Y-63263794D01*
X151320488Y-63260912D01*
X151177631Y-63260912D01*
X151148367Y-63263794D01*
X151094295Y-63286192D01*
X151052911Y-63327576D01*
X151030513Y-63381648D01*
X150965150Y-63381648D01*
X150963072Y-63364329D01*
X150934392Y-63313311D01*
X150888371Y-63277151D01*
X150832015Y-63261356D01*
X150773906Y-63268329D01*
X150722887Y-63297009D01*
X150702541Y-63318239D01*
X150427632Y-63668123D01*
X150152723Y-63318239D01*
X150132377Y-63297009D01*
X150081358Y-63268329D01*
X150023249Y-63261356D01*
X149966893Y-63277150D01*
X149920872Y-63313310D01*
X149892192Y-63364329D01*
X149885219Y-63422438D01*
X149613346Y-63422438D01*
X149613346Y-62910912D01*
X149610464Y-62881648D01*
X149588066Y-62827576D01*
X149546682Y-62786192D01*
X149492610Y-62763794D01*
X149434082Y-62763794D01*
X149380010Y-62786192D01*
X149338626Y-62827576D01*
X149316228Y-62881648D01*
X149313346Y-62910912D01*
X149313346Y-63475198D01*
X148756203Y-63475198D01*
X148756203Y-62910912D01*
X148753321Y-62881648D01*
X148730923Y-62827576D01*
X148689539Y-62786192D01*
X148635467Y-62763794D01*
X148576939Y-62763794D01*
X148522867Y-62786192D01*
X148481483Y-62827576D01*
X148459085Y-62881648D01*
X148456203Y-62910912D01*
X147764315Y-62910912D01*
X147748504Y-62863478D01*
X147736516Y-62836627D01*
X147729493Y-62828530D01*
X147724701Y-62818945D01*
X147710492Y-62806621D01*
X147698169Y-62792413D01*
X147688583Y-62787620D01*
X147680487Y-62780598D01*
X147662643Y-62774649D01*
X147645822Y-62766239D01*
X147635133Y-62765479D01*
X147624963Y-62762089D01*
X147606197Y-62763422D01*
X147587441Y-62762090D01*
X147577273Y-62765479D01*
X147566583Y-62766239D01*
X147549759Y-62774650D01*
X147531917Y-62780598D01*
X147523822Y-62787618D01*
X147514235Y-62792412D01*
X147501909Y-62806623D01*
X147487703Y-62818945D01*
X147482910Y-62828529D01*
X147475888Y-62836627D01*
X147463900Y-62863478D01*
X146963900Y-64363478D01*
X146957380Y-64392151D01*
X146541917Y-64392151D01*
X146541917Y-63060912D01*
X146820488Y-63060912D01*
X146849752Y-63058030D01*
X146903824Y-63035632D01*
X146945208Y-62994248D01*
X146967606Y-62940176D01*
X146967606Y-62881648D01*
X146945208Y-62827576D01*
X146903824Y-62786192D01*
X146849752Y-62763794D01*
X146820488Y-62760912D01*
X145963346Y-62760912D01*
X145934082Y-62763794D01*
X145880010Y-62786192D01*
X145838626Y-62827576D01*
X145816228Y-62881648D01*
X142970489Y-62881648D01*
X142970489Y-62768055D01*
X142967607Y-62738791D01*
X142945209Y-62684719D01*
X142903825Y-62643335D01*
X142849753Y-62620937D01*
X142791225Y-62620937D01*
X142737153Y-62643335D01*
X142695769Y-62684719D01*
X142673371Y-62738791D01*
X142670489Y-62768055D01*
X139502898Y-62768055D01*
X139492611Y-62763794D01*
X139463347Y-62760912D01*
X138891918Y-62760912D01*
X138862654Y-62763794D01*
X138857673Y-62765857D01*
X138852299Y-62766239D01*
X138824835Y-62776748D01*
X138681979Y-62848177D01*
X138669385Y-62856104D01*
X138665726Y-62857620D01*
X138661605Y-62861001D01*
X138657093Y-62863842D01*
X138654496Y-62866835D01*
X138642996Y-62876274D01*
X138571567Y-62947702D01*
X138562127Y-62959204D01*
X138559133Y-62961801D01*
X138556291Y-62966315D01*
X138552912Y-62970433D01*
X138551396Y-62974091D01*
X138543468Y-62986687D01*
X138472040Y-63129544D01*
X138461530Y-63157008D01*
X138461148Y-63162383D01*
X138459086Y-63167362D01*
X138456204Y-63196626D01*
X134541919Y-63196626D01*
X134541919Y-62910912D01*
X134539037Y-62881648D01*
X134516639Y-62827576D01*
X134475255Y-62786192D01*
X134421183Y-62763794D01*
X134391919Y-62760912D01*
X133891919Y-62760912D01*
X133862655Y-62763794D01*
X133857674Y-62765857D01*
X133852300Y-62766239D01*
X133824836Y-62776748D01*
X133681980Y-62848177D01*
X133669386Y-62856104D01*
X133665727Y-62857620D01*
X133661606Y-62861001D01*
X133657094Y-62863842D01*
X133654497Y-62866835D01*
X133642997Y-62876274D01*
X133571568Y-62947702D01*
X133562128Y-62959204D01*
X133559134Y-62961801D01*
X133556292Y-62966315D01*
X133552913Y-62970433D01*
X133551397Y-62974091D01*
X133543469Y-62986687D01*
X133472040Y-63129544D01*
X133461531Y-63157007D01*
X133461149Y-63162381D01*
X133459086Y-63167362D01*
X133456204Y-63196626D01*
X133456204Y-63339484D01*
X133459086Y-63368748D01*
X133461149Y-63373728D01*
X133461531Y-63379103D01*
X133472040Y-63406566D01*
X133543469Y-63549423D01*
X133551397Y-63562018D01*
X133552913Y-63565677D01*
X133556292Y-63569794D01*
X133559134Y-63574309D01*
X133562128Y-63576905D01*
X133571568Y-63588408D01*
X133572749Y-63589589D01*
X133571567Y-63590560D01*
X133500138Y-63661989D01*
X133490698Y-63673490D01*
X133487705Y-63676087D01*
X133484864Y-63680600D01*
X133481483Y-63684720D01*
X133479967Y-63688379D01*
X133472040Y-63700973D01*
X133400612Y-63843830D01*
X133390102Y-63871294D01*
X133389720Y-63876669D01*
X133387658Y-63881648D01*
X133384776Y-63910912D01*
X130399062Y-63910912D01*
X130399062Y-62768055D01*
X130396180Y-62738791D01*
X130373782Y-62684719D01*
X130332398Y-62643335D01*
X130278326Y-62620937D01*
X130219798Y-62620937D01*
X130165726Y-62643335D01*
X130124342Y-62684719D01*
X130101944Y-62738791D01*
X130099062Y-62768055D01*
X126793428Y-62768055D01*
X126788682Y-62766239D01*
X126783307Y-62765857D01*
X126778327Y-62763794D01*
X126749063Y-62760912D01*
X126391920Y-62760912D01*
X126362656Y-62763794D01*
X126357675Y-62765857D01*
X126352301Y-62766239D01*
X126324837Y-62776748D01*
X126181981Y-62848177D01*
X126169387Y-62856104D01*
X126165728Y-62857620D01*
X126161607Y-62861001D01*
X126157095Y-62863842D01*
X126154498Y-62866835D01*
X126142998Y-62876274D01*
X126071569Y-62947702D01*
X126062129Y-62959204D01*
X126059135Y-62961801D01*
X126056293Y-62966315D01*
X126052914Y-62970433D01*
X126051398Y-62974091D01*
X126043470Y-62986687D01*
X125972041Y-63129544D01*
X125961532Y-63157007D01*
X125961150Y-63162381D01*
X125959087Y-63167362D01*
X125956205Y-63196626D01*
X125617965Y-63196626D01*
X125608870Y-63160246D01*
X125608098Y-63158087D01*
X125608022Y-63157007D01*
X125603361Y-63144826D01*
X125598977Y-63132555D01*
X125598332Y-63131685D01*
X125597513Y-63129543D01*
X125526084Y-62986687D01*
X125518157Y-62974095D01*
X125516641Y-62970433D01*
X125513257Y-62966310D01*
X125510419Y-62961801D01*
X125507426Y-62959205D01*
X125497986Y-62947703D01*
X125426558Y-62876275D01*
X125415056Y-62866835D01*
X125412460Y-62863842D01*
X125407946Y-62861001D01*
X125403827Y-62857620D01*
X125400167Y-62856104D01*
X125387574Y-62848177D01*
X125244716Y-62776748D01*
X125217253Y-62766238D01*
X125211875Y-62765855D01*
X125206898Y-62763794D01*
X125177634Y-62760912D01*
X125034777Y-62760912D01*
X125005513Y-62763794D01*
X125000532Y-62765857D01*
X124995158Y-62766239D01*
X124967694Y-62776748D01*
X124824838Y-62848177D01*
X124812246Y-62856103D01*
X124808584Y-62857620D01*
X124804461Y-62861003D01*
X124799952Y-62863842D01*
X124797356Y-62866834D01*
X124785854Y-62876275D01*
X124714426Y-62947703D01*
X124704986Y-62959204D01*
X124701993Y-62961801D01*
X124699152Y-62966314D01*
X124695771Y-62970434D01*
X124694255Y-62974093D01*
X124686328Y-62986687D01*
X124614899Y-63129544D01*
X124614079Y-63131684D01*
X124613435Y-63132555D01*
X124609048Y-63144832D01*
X124604390Y-63157007D01*
X124604313Y-63158087D01*
X124603542Y-63160246D01*
X124532113Y-63445961D01*
X124531363Y-63451032D01*
X124530516Y-63453077D01*
X124529430Y-63464099D01*
X124527811Y-63475050D01*
X124528136Y-63477237D01*
X124527634Y-63482341D01*
X123461196Y-63482341D01*
X123451596Y-63472741D01*
X123399063Y-63315142D01*
X123399063Y-63232036D01*
X123443770Y-63142622D01*
X123480774Y-63105619D01*
X123570188Y-63060912D01*
X123856511Y-63060912D01*
X123945924Y-63105619D01*
X124000140Y-63159835D01*
X124022870Y-63178490D01*
X124076943Y-63200886D01*
X124135469Y-63200886D01*
X124189541Y-63178490D01*
X124230927Y-63137104D01*
X124253323Y-63083032D01*
X124253323Y-63024506D01*
X124230927Y-62970433D01*
X124212272Y-62947703D01*
X124140844Y-62876275D01*
X124129342Y-62866835D01*
X124126746Y-62863842D01*
X124122232Y-62861001D01*
X124118113Y-62857620D01*
X124114453Y-62856104D01*
X124101860Y-62848177D01*
X123959003Y-62776748D01*
X123931540Y-62766239D01*
X123926165Y-62765857D01*
X123921185Y-62763794D01*
X123891921Y-62760912D01*
X123534778Y-62760912D01*
X123505514Y-62763794D01*
X123500533Y-62765857D01*
X123495159Y-62766239D01*
X123467695Y-62776748D01*
X123324839Y-62848177D01*
X123312245Y-62856104D01*
X123308586Y-62857620D01*
X123304465Y-62861001D01*
X123299953Y-62863842D01*
X123297356Y-62866835D01*
X123285856Y-62876274D01*
X123214427Y-62947702D01*
X123204987Y-62959204D01*
X123201993Y-62961801D01*
X123199151Y-62966315D01*
X123195772Y-62970433D01*
X123194256Y-62974091D01*
X123186328Y-62986687D01*
X123114899Y-63129544D01*
X123104390Y-63157007D01*
X123104008Y-63162381D01*
X123101945Y-63167362D01*
X123099063Y-63196626D01*
X122737293Y-63196626D01*
X122731015Y-63184850D01*
X122588158Y-62970564D01*
X122588089Y-62970480D01*
X122588070Y-62970433D01*
X122578977Y-62959353D01*
X122569527Y-62947814D01*
X122569482Y-62947784D01*
X122569415Y-62947702D01*
X122497986Y-62876274D01*
X122486486Y-62866836D01*
X122483889Y-62863842D01*
X122479372Y-62860999D01*
X122475255Y-62857620D01*
X122471598Y-62856105D01*
X122459003Y-62848177D01*
X122316146Y-62776748D01*
X122288683Y-62766239D01*
X122283308Y-62765857D01*
X122278328Y-62763794D01*
X122249064Y-62760912D01*
X121963350Y-62760912D01*
X121934086Y-62763794D01*
X121880014Y-62786192D01*
X121838630Y-62827576D01*
X121816232Y-62881648D01*
X121816232Y-62940176D01*
X121838630Y-62994248D01*
X121880014Y-63035632D01*
X121934086Y-63058030D01*
X121963350Y-63060912D01*
X122213654Y-63060912D01*
X122303068Y-63105619D01*
X122346780Y-63149331D01*
X122466987Y-63329641D01*
X122473424Y-63355387D01*
X122459003Y-63348177D01*
X122431539Y-63337667D01*
X122426163Y-63337285D01*
X122421185Y-63335223D01*
X122391921Y-63332341D01*
X122106207Y-63332341D01*
X122076943Y-63335223D01*
X122071964Y-63337285D01*
X122066589Y-63337667D01*
X122039126Y-63348177D01*
X121896268Y-63419605D01*
X121883676Y-63427531D01*
X121880015Y-63429048D01*
X121875892Y-63432431D01*
X121871383Y-63435270D01*
X121868788Y-63438261D01*
X121857284Y-63447703D01*
X121785855Y-63519132D01*
X121776415Y-63530633D01*
X121773422Y-63533230D01*
X121770581Y-63537743D01*
X121767200Y-63541863D01*
X121765684Y-63545522D01*
X121757757Y-63558116D01*
X121686328Y-63700973D01*
X121675819Y-63728436D01*
X121675437Y-63733810D01*
X121673374Y-63738791D01*
X121670492Y-63768055D01*
X118219286Y-63768055D01*
X118219286Y-62454270D01*
X154348559Y-62454270D01*
X154348559Y-67642495D01*
G37*
D10*
X102513220Y-77646009D02*
X102179887Y-77646009D01*
X102037030Y-78169819D02*
X102513220Y-78169819D01*
X102513220Y-78169819D02*
X102513220Y-77169819D01*
X102513220Y-77169819D02*
X102037030Y-77169819D01*
X101608458Y-78169819D02*
X101608458Y-77169819D01*
X101608458Y-77169819D02*
X101037030Y-78169819D01*
X101037030Y-78169819D02*
X101037030Y-77169819D01*
X100037030Y-78169819D02*
X100608458Y-78169819D01*
X100322744Y-78169819D02*
X100322744Y-77169819D01*
X100322744Y-77169819D02*
X100417982Y-77312676D01*
X100417982Y-77312676D02*
X100513220Y-77407914D01*
X100513220Y-77407914D02*
X100608458Y-77455533D01*
X106591792Y-77169819D02*
X106925125Y-76693628D01*
X107163220Y-77169819D02*
X107163220Y-76169819D01*
X107163220Y-76169819D02*
X106782268Y-76169819D01*
X106782268Y-76169819D02*
X106687030Y-76217438D01*
X106687030Y-76217438D02*
X106639411Y-76265057D01*
X106639411Y-76265057D02*
X106591792Y-76360295D01*
X106591792Y-76360295D02*
X106591792Y-76503152D01*
X106591792Y-76503152D02*
X106639411Y-76598390D01*
X106639411Y-76598390D02*
X106687030Y-76646009D01*
X106687030Y-76646009D02*
X106782268Y-76693628D01*
X106782268Y-76693628D02*
X107163220Y-76693628D01*
X106306077Y-76169819D02*
X105734649Y-76169819D01*
X106020363Y-77169819D02*
X106020363Y-76169819D01*
X104877506Y-77169819D02*
X105448934Y-77169819D01*
X105163220Y-77169819D02*
X105163220Y-76169819D01*
X105163220Y-76169819D02*
X105258458Y-76312676D01*
X105258458Y-76312676D02*
X105353696Y-76407914D01*
X105353696Y-76407914D02*
X105448934Y-76455533D01*
X109856077Y-77944819D02*
X109522744Y-78944819D01*
X109522744Y-78944819D02*
X109189411Y-77944819D01*
X108856077Y-78944819D02*
X108856077Y-77944819D01*
X108379887Y-78944819D02*
X108379887Y-77944819D01*
X108379887Y-77944819D02*
X107808459Y-78944819D01*
X107808459Y-78944819D02*
X107808459Y-77944819D01*
X106808459Y-78944819D02*
X107379887Y-78944819D01*
X107094173Y-78944819D02*
X107094173Y-77944819D01*
X107094173Y-77944819D02*
X107189411Y-78087676D01*
X107189411Y-78087676D02*
X107284649Y-78182914D01*
X107284649Y-78182914D02*
X107379887Y-78230533D01*
X101738220Y-80369819D02*
X101738220Y-79369819D01*
X101738220Y-79369819D02*
X101404887Y-80084104D01*
X101404887Y-80084104D02*
X101071554Y-79369819D01*
X101071554Y-79369819D02*
X101071554Y-80369819D01*
X100404887Y-79369819D02*
X100214411Y-79369819D01*
X100214411Y-79369819D02*
X100119173Y-79417438D01*
X100119173Y-79417438D02*
X100023935Y-79512676D01*
X100023935Y-79512676D02*
X99976316Y-79703152D01*
X99976316Y-79703152D02*
X99976316Y-80036485D01*
X99976316Y-80036485D02*
X100023935Y-80226961D01*
X100023935Y-80226961D02*
X100119173Y-80322200D01*
X100119173Y-80322200D02*
X100214411Y-80369819D01*
X100214411Y-80369819D02*
X100404887Y-80369819D01*
X100404887Y-80369819D02*
X100500125Y-80322200D01*
X100500125Y-80322200D02*
X100595363Y-80226961D01*
X100595363Y-80226961D02*
X100642982Y-80036485D01*
X100642982Y-80036485D02*
X100642982Y-79703152D01*
X100642982Y-79703152D02*
X100595363Y-79512676D01*
X100595363Y-79512676D02*
X100500125Y-79417438D01*
X100500125Y-79417438D02*
X100404887Y-79369819D01*
X99547744Y-80369819D02*
X99547744Y-79369819D01*
X99547744Y-79369819D02*
X99309649Y-79369819D01*
X99309649Y-79369819D02*
X99166792Y-79417438D01*
X99166792Y-79417438D02*
X99071554Y-79512676D01*
X99071554Y-79512676D02*
X99023935Y-79607914D01*
X99023935Y-79607914D02*
X98976316Y-79798390D01*
X98976316Y-79798390D02*
X98976316Y-79941247D01*
X98976316Y-79941247D02*
X99023935Y-80131723D01*
X99023935Y-80131723D02*
X99071554Y-80226961D01*
X99071554Y-80226961D02*
X99166792Y-80322200D01*
X99166792Y-80322200D02*
X99309649Y-80369819D01*
X99309649Y-80369819D02*
X99547744Y-80369819D01*
X98547744Y-79846009D02*
X98214411Y-79846009D01*
X98071554Y-80369819D02*
X98547744Y-80369819D01*
X98547744Y-80369819D02*
X98547744Y-79369819D01*
X98547744Y-79369819D02*
X98071554Y-79369819D01*
X97119173Y-80369819D02*
X97690601Y-80369819D01*
X97404887Y-80369819D02*
X97404887Y-79369819D01*
X97404887Y-79369819D02*
X97500125Y-79512676D01*
X97500125Y-79512676D02*
X97595363Y-79607914D01*
X97595363Y-79607914D02*
X97690601Y-79655533D01*
X99229887Y-70096009D02*
X99563220Y-70096009D01*
X99563220Y-70619819D02*
X99563220Y-69619819D01*
X99563220Y-69619819D02*
X99087030Y-69619819D01*
X98372744Y-70096009D02*
X98229887Y-70143628D01*
X98229887Y-70143628D02*
X98182268Y-70191247D01*
X98182268Y-70191247D02*
X98134649Y-70286485D01*
X98134649Y-70286485D02*
X98134649Y-70429342D01*
X98134649Y-70429342D02*
X98182268Y-70524580D01*
X98182268Y-70524580D02*
X98229887Y-70572200D01*
X98229887Y-70572200D02*
X98325125Y-70619819D01*
X98325125Y-70619819D02*
X98706077Y-70619819D01*
X98706077Y-70619819D02*
X98706077Y-69619819D01*
X98706077Y-69619819D02*
X98372744Y-69619819D01*
X98372744Y-69619819D02*
X98277506Y-69667438D01*
X98277506Y-69667438D02*
X98229887Y-69715057D01*
X98229887Y-69715057D02*
X98182268Y-69810295D01*
X98182268Y-69810295D02*
X98182268Y-69905533D01*
X98182268Y-69905533D02*
X98229887Y-70000771D01*
X98229887Y-70000771D02*
X98277506Y-70048390D01*
X98277506Y-70048390D02*
X98372744Y-70096009D01*
X98372744Y-70096009D02*
X98706077Y-70096009D01*
X97182268Y-70619819D02*
X97753696Y-70619819D01*
X97467982Y-70619819D02*
X97467982Y-69619819D01*
X97467982Y-69619819D02*
X97563220Y-69762676D01*
X97563220Y-69762676D02*
X97658458Y-69857914D01*
X97658458Y-69857914D02*
X97753696Y-69905533D01*
X107135839Y-70897200D02*
X106992982Y-70944819D01*
X106992982Y-70944819D02*
X106754887Y-70944819D01*
X106754887Y-70944819D02*
X106659649Y-70897200D01*
X106659649Y-70897200D02*
X106612030Y-70849580D01*
X106612030Y-70849580D02*
X106564411Y-70754342D01*
X106564411Y-70754342D02*
X106564411Y-70659104D01*
X106564411Y-70659104D02*
X106612030Y-70563866D01*
X106612030Y-70563866D02*
X106659649Y-70516247D01*
X106659649Y-70516247D02*
X106754887Y-70468628D01*
X106754887Y-70468628D02*
X106945363Y-70421009D01*
X106945363Y-70421009D02*
X107040601Y-70373390D01*
X107040601Y-70373390D02*
X107088220Y-70325771D01*
X107088220Y-70325771D02*
X107135839Y-70230533D01*
X107135839Y-70230533D02*
X107135839Y-70135295D01*
X107135839Y-70135295D02*
X107088220Y-70040057D01*
X107088220Y-70040057D02*
X107040601Y-69992438D01*
X107040601Y-69992438D02*
X106945363Y-69944819D01*
X106945363Y-69944819D02*
X106707268Y-69944819D01*
X106707268Y-69944819D02*
X106564411Y-69992438D01*
X106231077Y-69944819D02*
X105992982Y-70944819D01*
X105992982Y-70944819D02*
X105802506Y-70230533D01*
X105802506Y-70230533D02*
X105612030Y-70944819D01*
X105612030Y-70944819D02*
X105373935Y-69944819D01*
X104469173Y-70944819D02*
X105040601Y-70944819D01*
X104754887Y-70944819D02*
X104754887Y-69944819D01*
X104754887Y-69944819D02*
X104850125Y-70087676D01*
X104850125Y-70087676D02*
X104945363Y-70182914D01*
X104945363Y-70182914D02*
X105040601Y-70230533D01*
X108556077Y-67744819D02*
X108222744Y-68744819D01*
X108222744Y-68744819D02*
X107889411Y-67744819D01*
X107365601Y-67744819D02*
X107175125Y-67744819D01*
X107175125Y-67744819D02*
X107079887Y-67792438D01*
X107079887Y-67792438D02*
X106984649Y-67887676D01*
X106984649Y-67887676D02*
X106937030Y-68078152D01*
X106937030Y-68078152D02*
X106937030Y-68411485D01*
X106937030Y-68411485D02*
X106984649Y-68601961D01*
X106984649Y-68601961D02*
X107079887Y-68697200D01*
X107079887Y-68697200D02*
X107175125Y-68744819D01*
X107175125Y-68744819D02*
X107365601Y-68744819D01*
X107365601Y-68744819D02*
X107460839Y-68697200D01*
X107460839Y-68697200D02*
X107556077Y-68601961D01*
X107556077Y-68601961D02*
X107603696Y-68411485D01*
X107603696Y-68411485D02*
X107603696Y-68078152D01*
X107603696Y-68078152D02*
X107556077Y-67887676D01*
X107556077Y-67887676D02*
X107460839Y-67792438D01*
X107460839Y-67792438D02*
X107365601Y-67744819D01*
X106508458Y-67744819D02*
X106508458Y-68554342D01*
X106508458Y-68554342D02*
X106460839Y-68649580D01*
X106460839Y-68649580D02*
X106413220Y-68697200D01*
X106413220Y-68697200D02*
X106317982Y-68744819D01*
X106317982Y-68744819D02*
X106127506Y-68744819D01*
X106127506Y-68744819D02*
X106032268Y-68697200D01*
X106032268Y-68697200D02*
X105984649Y-68649580D01*
X105984649Y-68649580D02*
X105937030Y-68554342D01*
X105937030Y-68554342D02*
X105937030Y-67744819D01*
X105603696Y-67744819D02*
X105032268Y-67744819D01*
X105317982Y-68744819D02*
X105317982Y-67744819D01*
X104175125Y-68744819D02*
X104746553Y-68744819D01*
X104460839Y-68744819D02*
X104460839Y-67744819D01*
X104460839Y-67744819D02*
X104556077Y-67887676D01*
X104556077Y-67887676D02*
X104651315Y-67982914D01*
X104651315Y-67982914D02*
X104746553Y-68030533D01*
X116266792Y-72169819D02*
X116600125Y-71693628D01*
X116838220Y-72169819D02*
X116838220Y-71169819D01*
X116838220Y-71169819D02*
X116457268Y-71169819D01*
X116457268Y-71169819D02*
X116362030Y-71217438D01*
X116362030Y-71217438D02*
X116314411Y-71265057D01*
X116314411Y-71265057D02*
X116266792Y-71360295D01*
X116266792Y-71360295D02*
X116266792Y-71503152D01*
X116266792Y-71503152D02*
X116314411Y-71598390D01*
X116314411Y-71598390D02*
X116362030Y-71646009D01*
X116362030Y-71646009D02*
X116457268Y-71693628D01*
X116457268Y-71693628D02*
X116838220Y-71693628D01*
X115981077Y-71169819D02*
X115409649Y-71169819D01*
X115695363Y-72169819D02*
X115695363Y-71169819D01*
X115123934Y-71265057D02*
X115076315Y-71217438D01*
X115076315Y-71217438D02*
X114981077Y-71169819D01*
X114981077Y-71169819D02*
X114742982Y-71169819D01*
X114742982Y-71169819D02*
X114647744Y-71217438D01*
X114647744Y-71217438D02*
X114600125Y-71265057D01*
X114600125Y-71265057D02*
X114552506Y-71360295D01*
X114552506Y-71360295D02*
X114552506Y-71455533D01*
X114552506Y-71455533D02*
X114600125Y-71598390D01*
X114600125Y-71598390D02*
X115171553Y-72169819D01*
X115171553Y-72169819D02*
X114552506Y-72169819D01*
X114613220Y-70244819D02*
X114613220Y-69244819D01*
X114613220Y-69244819D02*
X114279887Y-69959104D01*
X114279887Y-69959104D02*
X113946554Y-69244819D01*
X113946554Y-69244819D02*
X113946554Y-70244819D01*
X113279887Y-69244819D02*
X113089411Y-69244819D01*
X113089411Y-69244819D02*
X112994173Y-69292438D01*
X112994173Y-69292438D02*
X112898935Y-69387676D01*
X112898935Y-69387676D02*
X112851316Y-69578152D01*
X112851316Y-69578152D02*
X112851316Y-69911485D01*
X112851316Y-69911485D02*
X112898935Y-70101961D01*
X112898935Y-70101961D02*
X112994173Y-70197200D01*
X112994173Y-70197200D02*
X113089411Y-70244819D01*
X113089411Y-70244819D02*
X113279887Y-70244819D01*
X113279887Y-70244819D02*
X113375125Y-70197200D01*
X113375125Y-70197200D02*
X113470363Y-70101961D01*
X113470363Y-70101961D02*
X113517982Y-69911485D01*
X113517982Y-69911485D02*
X113517982Y-69578152D01*
X113517982Y-69578152D02*
X113470363Y-69387676D01*
X113470363Y-69387676D02*
X113375125Y-69292438D01*
X113375125Y-69292438D02*
X113279887Y-69244819D01*
X112422744Y-70244819D02*
X112422744Y-69244819D01*
X112422744Y-69244819D02*
X112184649Y-69244819D01*
X112184649Y-69244819D02*
X112041792Y-69292438D01*
X112041792Y-69292438D02*
X111946554Y-69387676D01*
X111946554Y-69387676D02*
X111898935Y-69482914D01*
X111898935Y-69482914D02*
X111851316Y-69673390D01*
X111851316Y-69673390D02*
X111851316Y-69816247D01*
X111851316Y-69816247D02*
X111898935Y-70006723D01*
X111898935Y-70006723D02*
X111946554Y-70101961D01*
X111946554Y-70101961D02*
X112041792Y-70197200D01*
X112041792Y-70197200D02*
X112184649Y-70244819D01*
X112184649Y-70244819D02*
X112422744Y-70244819D01*
X111422744Y-69721009D02*
X111089411Y-69721009D01*
X110946554Y-70244819D02*
X111422744Y-70244819D01*
X111422744Y-70244819D02*
X111422744Y-69244819D01*
X111422744Y-69244819D02*
X110946554Y-69244819D01*
X110565601Y-69340057D02*
X110517982Y-69292438D01*
X110517982Y-69292438D02*
X110422744Y-69244819D01*
X110422744Y-69244819D02*
X110184649Y-69244819D01*
X110184649Y-69244819D02*
X110089411Y-69292438D01*
X110089411Y-69292438D02*
X110041792Y-69340057D01*
X110041792Y-69340057D02*
X109994173Y-69435295D01*
X109994173Y-69435295D02*
X109994173Y-69530533D01*
X109994173Y-69530533D02*
X110041792Y-69673390D01*
X110041792Y-69673390D02*
X110613220Y-70244819D01*
X110613220Y-70244819D02*
X109994173Y-70244819D01*
%TO.C,J1*%
D12*
X101498400Y-51491600D02*
G75*
G02*
X100736400Y-51491600I-381000J0D01*
G01*
X100736400Y-51491600D02*
G75*
G02*
X101498400Y-51491600I381000J0D01*
G01*
D13*
X153314400Y-52139300D02*
X152491440Y-52139300D01*
X153314400Y-45027300D02*
X153314400Y-52139300D01*
X152491440Y-45027300D02*
X153314400Y-45027300D01*
X150835360Y-52139300D02*
X149951440Y-52139300D01*
X149951440Y-45027300D02*
X150835360Y-45027300D01*
X148295360Y-52139300D02*
X147411440Y-52139300D01*
X147411440Y-45027300D02*
X148295360Y-45027300D01*
X145755360Y-52139300D02*
X144871440Y-52139300D01*
X144871440Y-45027300D02*
X145755360Y-45027300D01*
X143215360Y-52139300D02*
X142331440Y-52139300D01*
X142331440Y-45027300D02*
X143215360Y-45027300D01*
X140675360Y-52139300D02*
X139791440Y-52139300D01*
X139791440Y-45027300D02*
X140675360Y-45027300D01*
X138135360Y-52139300D02*
X137251440Y-52139300D01*
X137251440Y-45027300D02*
X138135360Y-45027300D01*
X135595360Y-52139300D02*
X134711440Y-52139300D01*
X134711440Y-45027300D02*
X135595360Y-45027300D01*
X133055360Y-52139300D02*
X132171440Y-52139300D01*
X132171440Y-45027300D02*
X133055360Y-45027300D01*
X130515360Y-52139300D02*
X129631440Y-52139300D01*
X129631440Y-45027300D02*
X130515360Y-45027300D01*
X127975360Y-52139300D02*
X127091440Y-52139300D01*
X127091440Y-45027300D02*
X127975360Y-45027300D01*
X125435360Y-52139300D02*
X124551440Y-52139300D01*
X124551440Y-45027300D02*
X125435360Y-45027300D01*
X122895360Y-52139300D02*
X122011440Y-52139300D01*
X122011440Y-45027300D02*
X122895360Y-45027300D01*
X120355360Y-52139300D02*
X119471440Y-52139300D01*
X119471440Y-45027300D02*
X120355360Y-45027300D01*
X117815360Y-52139300D02*
X116931440Y-52139300D01*
X116931440Y-45027300D02*
X117815360Y-45027300D01*
X115275360Y-52139300D02*
X114391440Y-52139300D01*
X114391440Y-45027300D02*
X115275360Y-45027300D01*
X112735360Y-52139300D02*
X111851440Y-52139300D01*
X111851440Y-45027300D02*
X112735360Y-45027300D01*
X110195360Y-52139300D02*
X109311440Y-52139300D01*
X109311440Y-45027300D02*
X110195360Y-45027300D01*
X107655360Y-52139300D02*
X106771440Y-52139300D01*
X106771440Y-45027300D02*
X107655360Y-45027300D01*
X105115360Y-52139300D02*
X104231440Y-52139300D01*
X104231440Y-45027300D02*
X105115360Y-45027300D01*
X102575360Y-52139300D02*
X101752400Y-52139300D01*
X101752400Y-52139300D02*
X101752400Y-45027300D01*
X101752400Y-45027300D02*
X102575360Y-45027300D01*
%TO.C,TP1*%
D14*
X103725000Y-78675000D02*
G75*
G02*
X102325000Y-78675000I-700000J0D01*
G01*
X102325000Y-78675000D02*
G75*
G02*
X103725000Y-78675000I700000J0D01*
G01*
%TO.C,TP2*%
X115835000Y-75175000D02*
G75*
G02*
X114435000Y-75175000I-700000J0D01*
G01*
X114435000Y-75175000D02*
G75*
G02*
X115835000Y-75175000I700000J0D01*
G01*
%TO.C,TP11*%
X107875000Y-71525000D02*
G75*
G02*
X106475000Y-71525000I-700000J0D01*
G01*
X106475000Y-71525000D02*
G75*
G02*
X107875000Y-71525000I700000J0D01*
G01*
D15*
%TO.C,G\u002A\u002A\u002A*%
G36*
X135454405Y-69921438D02*
G01*
X135525164Y-69968188D01*
X135553869Y-70001790D01*
X135584120Y-70073699D01*
X135573709Y-70146362D01*
X135522650Y-70218461D01*
X135480905Y-70255310D01*
X135440143Y-70271801D01*
X135387618Y-70268727D01*
X135361414Y-70263142D01*
X135284977Y-70225922D01*
X135238127Y-70166935D01*
X135224586Y-70093050D01*
X135248078Y-70011139D01*
X135254280Y-69999912D01*
X135310141Y-69938667D01*
X135379790Y-69912053D01*
X135454405Y-69921438D01*
G37*
G36*
X137146380Y-69921438D02*
G01*
X137217138Y-69968188D01*
X137245844Y-70001790D01*
X137276094Y-70073699D01*
X137265684Y-70146362D01*
X137214624Y-70218461D01*
X137172880Y-70255310D01*
X137132117Y-70271801D01*
X137079592Y-70268727D01*
X137053389Y-70263142D01*
X136976951Y-70225922D01*
X136930101Y-70166935D01*
X136916561Y-70093050D01*
X136940053Y-70011139D01*
X136946254Y-69999912D01*
X137002115Y-69938667D01*
X137071764Y-69912053D01*
X137146380Y-69921438D01*
G37*
G36*
X138838354Y-69921438D02*
G01*
X138909112Y-69968188D01*
X138937818Y-70001790D01*
X138968069Y-70073699D01*
X138957658Y-70146362D01*
X138906598Y-70218461D01*
X138864854Y-70255310D01*
X138824091Y-70271801D01*
X138771566Y-70268727D01*
X138745363Y-70263142D01*
X138668925Y-70225922D01*
X138622075Y-70166935D01*
X138608535Y-70093050D01*
X138632027Y-70011139D01*
X138638228Y-69999912D01*
X138694089Y-69938667D01*
X138763739Y-69912053D01*
X138838354Y-69921438D01*
G37*
G36*
X140527484Y-69916209D02*
G01*
X140589445Y-69949740D01*
X140633064Y-70009584D01*
X140649555Y-70092068D01*
X140647902Y-70129716D01*
X140632175Y-70182611D01*
X140592822Y-70226735D01*
X140574300Y-70241250D01*
X140499618Y-70273109D01*
X140424827Y-70264623D01*
X140353328Y-70215947D01*
X140311932Y-70162348D01*
X140293740Y-70092068D01*
X140305051Y-70036093D01*
X140353328Y-69968188D01*
X140383669Y-69942780D01*
X140455964Y-69912664D01*
X140527484Y-69916209D01*
G37*
G36*
X142219458Y-69916209D02*
G01*
X142281420Y-69949740D01*
X142325038Y-70009584D01*
X142341529Y-70092068D01*
X142339877Y-70129716D01*
X142324150Y-70182611D01*
X142284796Y-70226735D01*
X142266275Y-70241250D01*
X142191592Y-70273109D01*
X142116801Y-70264623D01*
X142045302Y-70215947D01*
X142003906Y-70162348D01*
X141985714Y-70092068D01*
X141997025Y-70036093D01*
X142045302Y-69968188D01*
X142075644Y-69942780D01*
X142147938Y-69912664D01*
X142219458Y-69916209D01*
G37*
G36*
X144431942Y-70081875D02*
G01*
X144431942Y-71111330D01*
X143810193Y-71111330D01*
X143188443Y-71111330D01*
X143188443Y-70999211D01*
X143188443Y-70887092D01*
X143667496Y-70887092D01*
X144146549Y-70887092D01*
X144146549Y-70509965D01*
X144146549Y-70132838D01*
X143698074Y-70132838D01*
X143249599Y-70132838D01*
X143249599Y-70020720D01*
X143249599Y-69908601D01*
X143698074Y-69908601D01*
X144146549Y-69908601D01*
X144146549Y-69592630D01*
X144146549Y-69276659D01*
X143677689Y-69276659D01*
X143208828Y-69276659D01*
X143208828Y-69164540D01*
X143208828Y-69052421D01*
X143820385Y-69052421D01*
X144431942Y-69052421D01*
X144431942Y-70081875D01*
G37*
G36*
X146123917Y-70081875D02*
G01*
X146123917Y-71111330D01*
X145502167Y-71111330D01*
X144880417Y-71111330D01*
X144880417Y-70999211D01*
X144880417Y-70887092D01*
X145359470Y-70887092D01*
X145838523Y-70887092D01*
X145838523Y-70509965D01*
X145838523Y-70132838D01*
X145390048Y-70132838D01*
X144941573Y-70132838D01*
X144941573Y-70020720D01*
X144941573Y-69908601D01*
X145390048Y-69908601D01*
X145838523Y-69908601D01*
X145838523Y-69592630D01*
X145838523Y-69276659D01*
X145369663Y-69276659D01*
X144900803Y-69276659D01*
X144900803Y-69164540D01*
X144900803Y-69052421D01*
X145512360Y-69052421D01*
X146123917Y-69052421D01*
X146123917Y-70081875D01*
G37*
G36*
X149691332Y-69541667D02*
G01*
X149691332Y-69928986D01*
X150037881Y-69928986D01*
X150384430Y-69928986D01*
X150384430Y-69541667D01*
X150384430Y-69154347D01*
X150506742Y-69154347D01*
X150629053Y-69154347D01*
X150629053Y-70081875D01*
X150629053Y-71009403D01*
X150506742Y-71009403D01*
X150384430Y-71009403D01*
X150384430Y-70571121D01*
X150384430Y-70132838D01*
X150037881Y-70132838D01*
X149691332Y-70132838D01*
X149691332Y-70571121D01*
X149691332Y-71009403D01*
X149569021Y-71009403D01*
X149446710Y-71009403D01*
X149446710Y-70081875D01*
X149446710Y-69154347D01*
X149569021Y-69154347D01*
X149691332Y-69154347D01*
X149691332Y-69541667D01*
G37*
G36*
X147061637Y-69888216D02*
G01*
X147061637Y-71539419D01*
X150669823Y-71539419D01*
X154278010Y-71539419D01*
X154278010Y-70051297D01*
X154278010Y-68563175D01*
X151210032Y-68563175D01*
X148142055Y-68563175D01*
X148142055Y-68400094D01*
X148142055Y-68237012D01*
X151373114Y-68237012D01*
X154604173Y-68237012D01*
X154604173Y-70037707D01*
X154604048Y-70281767D01*
X154603634Y-70538664D01*
X154602953Y-70781190D01*
X154602027Y-71006412D01*
X154600878Y-71211396D01*
X154599527Y-71393209D01*
X154597998Y-71548917D01*
X154596312Y-71675589D01*
X154594490Y-71770289D01*
X154592556Y-71830086D01*
X154590531Y-71852045D01*
X154590205Y-71852180D01*
X154564907Y-71853526D01*
X154501009Y-71854783D01*
X154400489Y-71855946D01*
X154265325Y-71857009D01*
X154097496Y-71857971D01*
X153898980Y-71858825D01*
X153671755Y-71859568D01*
X153417801Y-71860195D01*
X153139094Y-71860702D01*
X152837614Y-71861086D01*
X152515338Y-71861340D01*
X152174246Y-71861463D01*
X151816316Y-71861448D01*
X151443525Y-71861292D01*
X151057853Y-71860990D01*
X150661278Y-71860539D01*
X146745666Y-71855391D01*
X146740460Y-70046201D01*
X146735253Y-68237012D01*
X146898445Y-68237012D01*
X147061637Y-68237012D01*
X147061637Y-69888216D01*
G37*
G36*
X134422348Y-70494676D02*
G01*
X134422793Y-70622084D01*
X133984510Y-70622084D01*
X133546228Y-70622084D01*
X133546228Y-70866707D01*
X133546228Y-71111330D01*
X133413724Y-71111330D01*
X133281220Y-71111330D01*
X133281220Y-70866707D01*
X133281220Y-70622084D01*
X133138523Y-70622084D01*
X132995827Y-70622084D01*
X132995827Y-70509965D01*
X132995827Y-70397846D01*
X133138523Y-70397846D01*
X133281220Y-70397846D01*
X133281220Y-69853561D01*
X133546228Y-69853561D01*
X133546228Y-70397846D01*
X133874054Y-70397846D01*
X134201881Y-70397846D01*
X134162052Y-70331594D01*
X134145599Y-70303979D01*
X134109683Y-70243354D01*
X134059097Y-70157780D01*
X133997109Y-70052787D01*
X133926985Y-69933908D01*
X133851994Y-69806675D01*
X133785323Y-69693842D01*
X133717447Y-69579695D01*
X133658440Y-69481228D01*
X133611238Y-69403314D01*
X133578778Y-69350827D01*
X133563996Y-69328641D01*
X133559555Y-69339511D01*
X133555156Y-69386399D01*
X133551474Y-69465666D01*
X133548659Y-69572894D01*
X133546861Y-69703665D01*
X133546228Y-69853561D01*
X133281220Y-69853561D01*
X133281220Y-69724276D01*
X133281220Y-69050706D01*
X133438898Y-69056660D01*
X133596576Y-69062614D01*
X134009240Y-69714941D01*
X134421903Y-70367269D01*
X134422010Y-70397846D01*
X134422348Y-70494676D01*
G37*
G36*
X153726580Y-70241758D02*
G01*
X153720288Y-70366944D01*
X153707564Y-70465534D01*
X153680859Y-70577666D01*
X153620289Y-70739875D01*
X153540701Y-70867753D01*
X153442702Y-70960423D01*
X153326898Y-71017006D01*
X153308456Y-71022372D01*
X153161004Y-71046004D01*
X153013130Y-71038824D01*
X152875323Y-71002290D01*
X152758068Y-70937861D01*
X152740378Y-70922937D01*
X152679422Y-70848704D01*
X152621667Y-70746018D01*
X152571860Y-70624333D01*
X152534750Y-70493106D01*
X152519505Y-70401608D01*
X152507685Y-70261360D01*
X152504243Y-70105840D01*
X152504400Y-70100337D01*
X152753733Y-70100337D01*
X152759912Y-70282557D01*
X152779808Y-70446518D01*
X152812550Y-70586918D01*
X152857269Y-70698456D01*
X152913094Y-70775831D01*
X152920031Y-70782157D01*
X152999306Y-70827080D01*
X153095119Y-70846087D01*
X153193163Y-70838148D01*
X153279133Y-70802229D01*
X153317011Y-70771731D01*
X153383159Y-70682481D01*
X153431247Y-70558396D01*
X153461769Y-70398381D01*
X153472302Y-70296846D01*
X153481593Y-70108582D01*
X153477503Y-69930867D01*
X153460869Y-69768594D01*
X153432533Y-69626657D01*
X153393332Y-69509947D01*
X153344106Y-69423359D01*
X153285694Y-69371785D01*
X153219848Y-69345583D01*
X153112822Y-69331430D01*
X153010998Y-69349587D01*
X152925211Y-69399229D01*
X152923938Y-69400351D01*
X152872608Y-69455754D01*
X152833424Y-69523672D01*
X152804002Y-69611148D01*
X152781958Y-69725224D01*
X152764910Y-69872944D01*
X152762140Y-69905160D01*
X152753733Y-70100337D01*
X152504400Y-70100337D01*
X152508801Y-69946153D01*
X152520982Y-69793404D01*
X152540408Y-69658697D01*
X152566703Y-69553136D01*
X152572176Y-69537368D01*
X152640255Y-69388157D01*
X152726724Y-69274705D01*
X152833541Y-69195518D01*
X152962664Y-69149102D01*
X153116051Y-69133962D01*
X153125091Y-69134009D01*
X153279044Y-69151836D01*
X153409426Y-69202365D01*
X153517234Y-69286362D01*
X153603465Y-69404590D01*
X153669118Y-69557814D01*
X153677206Y-69586118D01*
X153696369Y-69686044D01*
X153711335Y-69812121D01*
X153721657Y-69953798D01*
X153726888Y-70100527D01*
X153726870Y-70108582D01*
X153726580Y-70241758D01*
G37*
G36*
X141125907Y-70087744D02*
G01*
X141124188Y-70236735D01*
X141116767Y-70371769D01*
X141103360Y-70482247D01*
X141066637Y-70641105D01*
X141001026Y-70809763D01*
X140913904Y-70945524D01*
X140805912Y-71047433D01*
X140677693Y-71114537D01*
X140628004Y-71130173D01*
X140537642Y-71145074D01*
X140431153Y-71143739D01*
X140428343Y-71143536D01*
X140280258Y-71115874D01*
X140153701Y-71055619D01*
X140047265Y-70961532D01*
X139959545Y-70832378D01*
X139889135Y-70666921D01*
X139880174Y-70640081D01*
X139864551Y-70589026D01*
X139853125Y-70540411D01*
X139845241Y-70487034D01*
X139840246Y-70421693D01*
X139837487Y-70337188D01*
X139836311Y-70226315D01*
X139836125Y-70117601D01*
X140096846Y-70117601D01*
X140100180Y-70263411D01*
X140108019Y-70397370D01*
X140120362Y-70509920D01*
X140137209Y-70591506D01*
X140152050Y-70636714D01*
X140206837Y-70758733D01*
X140272063Y-70847271D01*
X140345400Y-70898889D01*
X140447766Y-70926225D01*
X140549925Y-70918721D01*
X140640907Y-70874043D01*
X140718707Y-70793716D01*
X140781322Y-70679267D01*
X140826752Y-70532219D01*
X140827714Y-70527753D01*
X140839621Y-70445022D01*
X140848045Y-70333905D01*
X140852996Y-70204262D01*
X140854483Y-70065951D01*
X140852513Y-69928831D01*
X140847096Y-69802761D01*
X140838240Y-69697601D01*
X140825954Y-69623208D01*
X140800890Y-69535720D01*
X140748648Y-69411565D01*
X140684031Y-69322899D01*
X140604751Y-69266966D01*
X140508517Y-69241008D01*
X140437986Y-69239939D01*
X140341134Y-69267576D01*
X140259333Y-69331626D01*
X140191664Y-69432909D01*
X140137209Y-69572244D01*
X140128554Y-69606969D01*
X140113870Y-69704623D01*
X140103691Y-69828650D01*
X140098017Y-69969495D01*
X140096846Y-70117601D01*
X139836125Y-70117601D01*
X139836064Y-70081875D01*
X139836105Y-70009464D01*
X139836707Y-69881672D01*
X139838545Y-69784068D01*
X139842271Y-69709451D01*
X139848540Y-69650621D01*
X139858005Y-69600375D01*
X139871319Y-69551511D01*
X139889135Y-69496830D01*
X139945276Y-69359983D01*
X140031907Y-69222279D01*
X140137811Y-69120005D01*
X140263675Y-69052535D01*
X140410181Y-69019240D01*
X140558305Y-69020039D01*
X140699367Y-69056986D01*
X140823341Y-69129891D01*
X140928801Y-69237616D01*
X141014321Y-69379021D01*
X141078475Y-69552969D01*
X141081443Y-69564166D01*
X141099693Y-69663006D01*
X141113376Y-69790282D01*
X141122208Y-69935394D01*
X141125378Y-70065951D01*
X141125907Y-70087744D01*
G37*
G36*
X142817881Y-70087744D02*
G01*
X142816162Y-70236735D01*
X142808741Y-70371769D01*
X142795335Y-70482247D01*
X142758611Y-70641105D01*
X142693000Y-70809763D01*
X142605878Y-70945524D01*
X142497886Y-71047433D01*
X142369667Y-71114537D01*
X142319979Y-71130173D01*
X142229616Y-71145074D01*
X142123127Y-71143739D01*
X142120317Y-71143536D01*
X141972233Y-71115874D01*
X141845675Y-71055619D01*
X141739240Y-70961532D01*
X141651519Y-70832378D01*
X141581110Y-70666921D01*
X141572148Y-70640081D01*
X141556526Y-70589026D01*
X141545099Y-70540411D01*
X141537215Y-70487034D01*
X141532220Y-70421693D01*
X141529461Y-70337188D01*
X141528285Y-70226315D01*
X141528099Y-70117601D01*
X141788821Y-70117601D01*
X141792155Y-70263411D01*
X141799993Y-70397370D01*
X141812336Y-70509920D01*
X141829183Y-70591506D01*
X141844024Y-70636714D01*
X141898811Y-70758733D01*
X141964037Y-70847271D01*
X142037374Y-70898889D01*
X142139740Y-70926225D01*
X142241900Y-70918721D01*
X142332881Y-70874043D01*
X142410681Y-70793716D01*
X142473297Y-70679267D01*
X142518726Y-70532219D01*
X142519689Y-70527753D01*
X142531595Y-70445022D01*
X142540020Y-70333905D01*
X142544971Y-70204262D01*
X142546457Y-70065951D01*
X142544487Y-69928831D01*
X142539070Y-69802761D01*
X142530214Y-69697601D01*
X142517928Y-69623208D01*
X142492864Y-69535720D01*
X142440622Y-69411565D01*
X142376005Y-69322899D01*
X142296725Y-69266966D01*
X142200491Y-69241008D01*
X142129960Y-69239939D01*
X142033108Y-69267576D01*
X141951307Y-69331626D01*
X141883639Y-69432909D01*
X141829183Y-69572244D01*
X141820528Y-69606969D01*
X141805845Y-69704623D01*
X141795666Y-69828650D01*
X141789991Y-69969495D01*
X141788821Y-70117601D01*
X141528099Y-70117601D01*
X141528038Y-70081875D01*
X141528080Y-70009464D01*
X141528681Y-69881672D01*
X141530519Y-69784068D01*
X141534246Y-69709451D01*
X141540515Y-69650621D01*
X141549980Y-69600375D01*
X141563293Y-69551511D01*
X141581110Y-69496830D01*
X141637251Y-69359983D01*
X141723881Y-69222279D01*
X141829786Y-69120005D01*
X141955649Y-69052535D01*
X142102156Y-69019240D01*
X142250279Y-69020039D01*
X142391342Y-69056986D01*
X142515316Y-69129891D01*
X142620776Y-69237616D01*
X142706295Y-69379021D01*
X142770450Y-69552969D01*
X142773417Y-69564166D01*
X142791667Y-69663006D01*
X142805350Y-69790282D01*
X142814183Y-69935394D01*
X142817352Y-70065951D01*
X142817881Y-70087744D01*
G37*
G36*
X136042650Y-70210727D02*
G01*
X136041377Y-70323582D01*
X136038328Y-70410179D01*
X136032898Y-70477944D01*
X136024482Y-70534298D01*
X136012476Y-70586665D01*
X135996274Y-70642469D01*
X135968688Y-70721507D01*
X135892736Y-70873628D01*
X135797406Y-70994514D01*
X135684945Y-71081655D01*
X135557598Y-71132545D01*
X135422551Y-71149983D01*
X135273035Y-71134623D01*
X135134717Y-71083209D01*
X135014089Y-70997354D01*
X134973987Y-70956275D01*
X134890859Y-70839355D01*
X134827586Y-70696196D01*
X134783374Y-70524057D01*
X134757429Y-70320197D01*
X134748957Y-70081875D01*
X134749048Y-70075441D01*
X135023878Y-70075441D01*
X135025627Y-70213455D01*
X135030849Y-70342156D01*
X135039551Y-70451694D01*
X135051739Y-70532219D01*
X135079146Y-70629832D01*
X135129183Y-70744885D01*
X135190328Y-70834193D01*
X135258269Y-70890280D01*
X135282268Y-70901742D01*
X135386085Y-70926353D01*
X135488450Y-70914758D01*
X135580494Y-70869168D01*
X135653342Y-70791794D01*
X135677898Y-70751855D01*
X135713558Y-70680015D01*
X135740072Y-70601233D01*
X135758626Y-70508768D01*
X135770409Y-70395881D01*
X135776609Y-70255830D01*
X135778411Y-70081875D01*
X135778047Y-69971601D01*
X135776093Y-69850163D01*
X135771974Y-69756829D01*
X135765154Y-69684277D01*
X135755101Y-69625189D01*
X135741282Y-69572244D01*
X135707796Y-69478384D01*
X135644964Y-69363570D01*
X135568330Y-69286283D01*
X135476973Y-69245702D01*
X135369974Y-69241008D01*
X135312600Y-69252377D01*
X135226500Y-69295075D01*
X135155983Y-69369253D01*
X135098732Y-69477702D01*
X135052430Y-69623208D01*
X135051450Y-69627227D01*
X135039386Y-69704006D01*
X135030765Y-69810868D01*
X135025593Y-69937962D01*
X135023878Y-70075441D01*
X134749048Y-70075441D01*
X134750432Y-69977517D01*
X134766095Y-69754236D01*
X134799522Y-69564233D01*
X134851519Y-69404724D01*
X134922895Y-69272925D01*
X135014455Y-69166054D01*
X135106219Y-69096636D01*
X135235444Y-69039424D01*
X135372994Y-69015542D01*
X135511720Y-69024361D01*
X135644480Y-69065253D01*
X135764126Y-69137588D01*
X135863513Y-69240740D01*
X135865225Y-69243095D01*
X135908728Y-69314602D01*
X135953173Y-69405541D01*
X135989195Y-69496830D01*
X135995395Y-69515375D01*
X136011862Y-69568294D01*
X136023951Y-69617788D01*
X136032350Y-69671222D01*
X136037744Y-69735963D01*
X136040820Y-69819376D01*
X136042264Y-69928828D01*
X136042762Y-70071683D01*
X136042754Y-70081875D01*
X136042650Y-70210727D01*
G37*
G36*
X137734624Y-70210727D02*
G01*
X137733352Y-70323582D01*
X137730303Y-70410179D01*
X137724872Y-70477944D01*
X137716456Y-70534298D01*
X137704450Y-70586665D01*
X137688249Y-70642469D01*
X137660662Y-70721507D01*
X137584710Y-70873628D01*
X137489381Y-70994514D01*
X137376920Y-71081655D01*
X137249573Y-71132545D01*
X137114526Y-71149983D01*
X136965009Y-71134623D01*
X136826691Y-71083209D01*
X136706063Y-70997354D01*
X136665961Y-70956275D01*
X136582834Y-70839355D01*
X136519561Y-70696196D01*
X136475348Y-70524057D01*
X136449403Y-70320197D01*
X136440931Y-70081875D01*
X136441022Y-70075441D01*
X136715852Y-70075441D01*
X136717602Y-70213455D01*
X136722824Y-70342156D01*
X136731525Y-70451694D01*
X136743714Y-70532219D01*
X136771120Y-70629832D01*
X136821157Y-70744885D01*
X136882302Y-70834193D01*
X136950244Y-70890280D01*
X136974243Y-70901742D01*
X137078059Y-70926353D01*
X137180425Y-70914758D01*
X137272468Y-70869168D01*
X137345316Y-70791794D01*
X137369873Y-70751855D01*
X137405533Y-70680015D01*
X137432046Y-70601233D01*
X137450601Y-70508768D01*
X137462384Y-70395881D01*
X137468583Y-70255830D01*
X137470385Y-70081875D01*
X137470021Y-69971601D01*
X137468068Y-69850163D01*
X137463948Y-69756829D01*
X137457128Y-69684277D01*
X137447076Y-69625189D01*
X137433257Y-69572244D01*
X137399771Y-69478384D01*
X137336939Y-69363570D01*
X137260304Y-69286283D01*
X137168947Y-69245702D01*
X137061949Y-69241008D01*
X137004574Y-69252377D01*
X136918474Y-69295075D01*
X136847957Y-69369253D01*
X136790706Y-69477702D01*
X136744404Y-69623208D01*
X136743425Y-69627227D01*
X136731361Y-69704006D01*
X136722739Y-69810868D01*
X136717567Y-69937962D01*
X136715852Y-70075441D01*
X136441022Y-70075441D01*
X136442406Y-69977517D01*
X136458069Y-69754236D01*
X136491496Y-69564233D01*
X136543494Y-69404724D01*
X136614869Y-69272925D01*
X136706429Y-69166054D01*
X136798193Y-69096636D01*
X136927419Y-69039424D01*
X137064968Y-69015542D01*
X137203695Y-69024361D01*
X137336454Y-69065253D01*
X137456100Y-69137588D01*
X137555488Y-69240740D01*
X137557200Y-69243095D01*
X137600703Y-69314602D01*
X137645148Y-69405541D01*
X137681169Y-69496830D01*
X137687369Y-69515375D01*
X137703836Y-69568294D01*
X137715926Y-69617788D01*
X137724324Y-69671222D01*
X137729718Y-69735963D01*
X137732794Y-69819376D01*
X137734238Y-69928828D01*
X137734737Y-70071683D01*
X137734729Y-70081875D01*
X137734624Y-70210727D01*
G37*
G36*
X139426598Y-70210727D02*
G01*
X139425326Y-70323582D01*
X139422277Y-70410179D01*
X139416847Y-70477944D01*
X139408431Y-70534298D01*
X139396424Y-70586665D01*
X139380223Y-70642469D01*
X139352637Y-70721507D01*
X139276684Y-70873628D01*
X139181355Y-70994514D01*
X139068894Y-71081655D01*
X138941547Y-71132545D01*
X138806500Y-71149983D01*
X138656984Y-71134623D01*
X138518666Y-71083209D01*
X138398037Y-70997354D01*
X138357935Y-70956275D01*
X138274808Y-70839355D01*
X138211535Y-70696196D01*
X138167323Y-70524057D01*
X138141377Y-70320197D01*
X138132905Y-70081875D01*
X138132996Y-70075441D01*
X138407826Y-70075441D01*
X138409576Y-70213455D01*
X138414798Y-70342156D01*
X138423499Y-70451694D01*
X138435688Y-70532219D01*
X138463095Y-70629832D01*
X138513132Y-70744885D01*
X138574277Y-70834193D01*
X138642218Y-70890280D01*
X138666217Y-70901742D01*
X138770033Y-70926353D01*
X138872399Y-70914758D01*
X138964442Y-70869168D01*
X139037291Y-70791794D01*
X139061847Y-70751855D01*
X139097507Y-70680015D01*
X139124020Y-70601233D01*
X139142575Y-70508768D01*
X139154358Y-70395881D01*
X139160557Y-70255830D01*
X139162360Y-70081875D01*
X139161995Y-69971601D01*
X139160042Y-69850163D01*
X139155922Y-69756829D01*
X139149103Y-69684277D01*
X139139050Y-69625189D01*
X139125231Y-69572244D01*
X139091745Y-69478384D01*
X139028913Y-69363570D01*
X138952278Y-69286283D01*
X138860921Y-69245702D01*
X138753923Y-69241008D01*
X138696549Y-69252377D01*
X138610449Y-69295075D01*
X138539931Y-69369253D01*
X138482680Y-69477702D01*
X138436379Y-69623208D01*
X138435399Y-69627227D01*
X138423335Y-69704006D01*
X138414713Y-69810868D01*
X138409541Y-69937962D01*
X138407826Y-70075441D01*
X138132996Y-70075441D01*
X138134381Y-69977517D01*
X138150044Y-69754236D01*
X138183470Y-69564233D01*
X138235468Y-69404724D01*
X138306843Y-69272925D01*
X138398403Y-69166054D01*
X138490167Y-69096636D01*
X138619393Y-69039424D01*
X138756942Y-69015542D01*
X138895669Y-69024361D01*
X139028428Y-69065253D01*
X139148074Y-69137588D01*
X139247462Y-69240740D01*
X139249174Y-69243095D01*
X139292677Y-69314602D01*
X139337122Y-69405541D01*
X139373144Y-69496830D01*
X139379343Y-69515375D01*
X139395810Y-69568294D01*
X139407900Y-69617788D01*
X139416299Y-69671222D01*
X139421693Y-69735963D01*
X139424768Y-69819376D01*
X139426212Y-69928828D01*
X139426711Y-70071683D01*
X139426703Y-70081875D01*
X139426598Y-70210727D01*
G37*
G36*
X151674392Y-69146066D02*
G01*
X151741417Y-69150199D01*
X151791775Y-69159272D01*
X151835988Y-69174951D01*
X151884580Y-69198905D01*
X151996355Y-69273935D01*
X152088928Y-69378486D01*
X152146878Y-69504309D01*
X152151520Y-69520059D01*
X152169971Y-69590923D01*
X152176468Y-69646949D01*
X152171589Y-69706238D01*
X152155912Y-69786893D01*
X152153560Y-69797286D01*
X152112765Y-69902499D01*
X152043023Y-69990946D01*
X151941610Y-70064652D01*
X151805804Y-70125643D01*
X151632881Y-70175944D01*
X151558304Y-70194343D01*
X151437466Y-70229820D01*
X151349712Y-70267201D01*
X151290086Y-70310731D01*
X151253633Y-70364656D01*
X151235395Y-70433219D01*
X151230417Y-70520668D01*
X151230441Y-70535676D01*
X151232638Y-70606730D01*
X151241675Y-70653527D01*
X151262143Y-70690223D01*
X151298634Y-70730971D01*
X151336170Y-70763967D01*
X151439273Y-70818193D01*
X151563228Y-70844964D01*
X151701377Y-70844023D01*
X151847067Y-70815110D01*
X151993640Y-70757968D01*
X152018265Y-70745876D01*
X152084299Y-70713902D01*
X152131738Y-70691611D01*
X152151626Y-70683240D01*
X152154487Y-70696521D01*
X152156984Y-70740662D01*
X152157945Y-70805028D01*
X152156787Y-70867403D01*
X152149913Y-70910846D01*
X152132674Y-70936490D01*
X152100431Y-70956557D01*
X152054487Y-70975018D01*
X151982193Y-70997379D01*
X151901675Y-71017677D01*
X151838531Y-71029044D01*
X151706922Y-71041802D01*
X151566094Y-71043975D01*
X151549371Y-71043507D01*
X151453181Y-71038551D01*
X151381742Y-71028636D01*
X151321089Y-71010998D01*
X151257255Y-70982875D01*
X151212411Y-70958772D01*
X151109817Y-70878836D01*
X151039375Y-70777865D01*
X150999263Y-70652598D01*
X150987661Y-70499773D01*
X150993122Y-70409321D01*
X151020349Y-70292724D01*
X151074314Y-70195225D01*
X151159460Y-70106655D01*
X151173125Y-70095437D01*
X151226889Y-70059390D01*
X151295140Y-70026169D01*
X151384299Y-69993325D01*
X151500786Y-69958405D01*
X151651022Y-69918957D01*
X151706652Y-69902407D01*
X151791199Y-69867434D01*
X151852873Y-69829348D01*
X151864583Y-69819314D01*
X151900411Y-69779884D01*
X151919153Y-69733305D01*
X151928426Y-69662787D01*
X151928609Y-69660494D01*
X151930342Y-69586805D01*
X151918635Y-69533194D01*
X151889388Y-69480511D01*
X151860905Y-69443783D01*
X151780037Y-69380133D01*
X151673719Y-69343021D01*
X151537862Y-69330705D01*
X151483038Y-69331561D01*
X151425580Y-69336781D01*
X151367907Y-69349017D01*
X151300851Y-69370856D01*
X151215243Y-69404884D01*
X151101915Y-69453686D01*
X151098675Y-69454857D01*
X151085334Y-69448110D01*
X151080021Y-69413798D01*
X151081530Y-69345512D01*
X151087721Y-69225696D01*
X151199840Y-69186101D01*
X151250065Y-69170775D01*
X151326635Y-69156253D01*
X151421733Y-69148203D01*
X151546388Y-69145330D01*
X151580177Y-69145206D01*
X151674392Y-69146066D01*
G37*
G36*
X147475264Y-67789042D02*
G01*
X147522654Y-67794072D01*
X147546304Y-67807845D01*
X147557060Y-67834403D01*
X147560303Y-67849404D01*
X147571517Y-67902520D01*
X147589842Y-67989898D01*
X147614584Y-68108207D01*
X147645048Y-68254117D01*
X147680540Y-68424297D01*
X147720365Y-68615419D01*
X147763828Y-68824150D01*
X147810233Y-69047161D01*
X147858887Y-69281122D01*
X147894916Y-69453992D01*
X147941758Y-69677415D01*
X147985844Y-69886199D01*
X148026492Y-70077183D01*
X148063017Y-70247205D01*
X148094734Y-70393104D01*
X148120961Y-70511719D01*
X148141013Y-70599886D01*
X148154205Y-70654446D01*
X148159854Y-70672235D01*
X148163898Y-70660503D01*
X148175899Y-70613713D01*
X148194120Y-70536553D01*
X148217281Y-70434589D01*
X148244103Y-70313391D01*
X148273307Y-70178526D01*
X148377022Y-69694556D01*
X148504161Y-69688487D01*
X148564433Y-69686359D01*
X148612767Y-69686304D01*
X148631300Y-69688649D01*
X148634260Y-69706966D01*
X148644693Y-69759289D01*
X148661250Y-69838459D01*
X148682466Y-69937804D01*
X148706876Y-70050653D01*
X148733016Y-70170334D01*
X148759422Y-70290175D01*
X148784628Y-70403505D01*
X148807170Y-70503652D01*
X148825583Y-70583944D01*
X148838403Y-70637709D01*
X148844165Y-70658277D01*
X148844899Y-70658901D01*
X148849499Y-70657147D01*
X148854659Y-70643275D01*
X148860869Y-70613734D01*
X148868618Y-70564973D01*
X148878397Y-70493442D01*
X148890696Y-70395590D01*
X148906005Y-70267866D01*
X148924813Y-70106720D01*
X148947610Y-69908601D01*
X148966589Y-69741494D01*
X148985137Y-69576954D01*
X149000296Y-69445921D01*
X149013094Y-69344638D01*
X149024557Y-69269346D01*
X149035712Y-69216286D01*
X149047585Y-69181700D01*
X149061204Y-69161831D01*
X149077595Y-69152919D01*
X149097784Y-69151207D01*
X149122800Y-69152936D01*
X149153667Y-69154347D01*
X149158031Y-69154347D01*
X149220268Y-69155377D01*
X149251220Y-69161752D01*
X149259892Y-69178439D01*
X149255290Y-69210407D01*
X149253496Y-69220569D01*
X149245674Y-69269716D01*
X149232972Y-69352530D01*
X149216071Y-69464463D01*
X149195652Y-69600968D01*
X149172397Y-69757499D01*
X149146988Y-69929510D01*
X149120106Y-70112453D01*
X149106620Y-70204270D01*
X149080609Y-70380272D01*
X149056502Y-70541966D01*
X149034959Y-70685012D01*
X149016640Y-70805070D01*
X149002204Y-70897801D01*
X148992311Y-70958865D01*
X148987621Y-70983922D01*
X148982451Y-70990932D01*
X148943094Y-71004588D01*
X148871022Y-71009403D01*
X148762916Y-71009403D01*
X148642755Y-70474291D01*
X148642616Y-70473673D01*
X148610316Y-70331417D01*
X148580313Y-70202252D01*
X148553903Y-70091524D01*
X148532382Y-70004577D01*
X148517045Y-69946755D01*
X148509189Y-69923403D01*
X148502088Y-69935897D01*
X148487196Y-69983127D01*
X148466065Y-70060463D01*
X148440012Y-70162879D01*
X148410354Y-70285347D01*
X148378405Y-70422841D01*
X148350342Y-70545800D01*
X148320376Y-70676575D01*
X148294150Y-70790476D01*
X148272986Y-70881783D01*
X148258205Y-70944775D01*
X148251130Y-70973729D01*
X148250668Y-70975306D01*
X148235030Y-70996172D01*
X148198341Y-71006576D01*
X148130877Y-71009403D01*
X148093231Y-71008972D01*
X148044955Y-71004067D01*
X148020761Y-70990306D01*
X148009672Y-70963537D01*
X148003751Y-70936880D01*
X147990016Y-70874140D01*
X147969287Y-70779095D01*
X147942381Y-70655516D01*
X147910118Y-70507178D01*
X147873316Y-70337851D01*
X147832793Y-70151309D01*
X147789367Y-69951324D01*
X147743857Y-69741667D01*
X147697081Y-69526112D01*
X147649858Y-69308431D01*
X147603005Y-69092396D01*
X147557342Y-68881779D01*
X147513687Y-68680354D01*
X147472857Y-68491891D01*
X147435672Y-68320164D01*
X147402950Y-68168945D01*
X147375509Y-68042007D01*
X147354167Y-67943121D01*
X147339743Y-67876060D01*
X147333056Y-67844596D01*
X147332651Y-67842624D01*
X147328296Y-67811473D01*
X147337744Y-67795403D01*
X147369984Y-67789421D01*
X147434006Y-67788537D01*
X147475264Y-67789042D01*
G37*
%TO.C,TP12*%
D14*
X122800000Y-75550000D02*
G75*
G02*
X121400000Y-75550000I-700000J0D01*
G01*
X121400000Y-75550000D02*
G75*
G02*
X122800000Y-75550000I700000J0D01*
G01*
%TO.C,TP8*%
X115822374Y-72765635D02*
G75*
G02*
X114422374Y-72765635I-700000J0D01*
G01*
X114422374Y-72765635D02*
G75*
G02*
X115822374Y-72765635I700000J0D01*
G01*
%TO.C,TP4*%
X99700000Y-78600000D02*
G75*
G02*
X98300000Y-78600000I-700000J0D01*
G01*
X98300000Y-78600000D02*
G75*
G02*
X99700000Y-78600000I700000J0D01*
G01*
%TO.C,TP15*%
X104900000Y-66850000D02*
G75*
G02*
X103500000Y-66850000I-700000J0D01*
G01*
X103500000Y-66850000D02*
G75*
G02*
X104900000Y-66850000I700000J0D01*
G01*
%TO.C,TP14*%
X121385000Y-73425000D02*
G75*
G02*
X119985000Y-73425000I-700000J0D01*
G01*
X119985000Y-73425000D02*
G75*
G02*
X121385000Y-73425000I700000J0D01*
G01*
%TO.C,TP13*%
X101025000Y-70850000D02*
G75*
G02*
X99625000Y-70850000I-700000J0D01*
G01*
X99625000Y-70850000D02*
G75*
G02*
X101025000Y-70850000I700000J0D01*
G01*
%TO.C,TP5*%
X116911012Y-83242500D02*
G75*
G02*
X115511012Y-83242500I-700000J0D01*
G01*
X115511012Y-83242500D02*
G75*
G02*
X116911012Y-83242500I700000J0D01*
G01*
%TO.C,TP7*%
X104950000Y-77075000D02*
G75*
G02*
X103550000Y-77075000I-700000J0D01*
G01*
X103550000Y-77075000D02*
G75*
G02*
X104950000Y-77075000I700000J0D01*
G01*
%TO.C,TP6*%
X114597500Y-71125000D02*
G75*
G02*
X113197500Y-71125000I-700000J0D01*
G01*
X113197500Y-71125000D02*
G75*
G02*
X114597500Y-71125000I700000J0D01*
G01*
%TO.C,TP3*%
X108400000Y-79850000D02*
G75*
G02*
X107000000Y-79850000I-700000J0D01*
G01*
X107000000Y-79850000D02*
G75*
G02*
X108400000Y-79850000I700000J0D01*
G01*
D15*
%TO.C,G\u002A\u002A\u002A*%
G36*
X118845859Y-81119439D02*
G01*
X118960139Y-81153388D01*
X119053628Y-81204754D01*
X119154154Y-81289754D01*
X119224203Y-81392232D01*
X119265004Y-81475069D01*
X119264813Y-86025242D01*
X119264621Y-90575415D01*
X119207123Y-90658498D01*
X119163182Y-90715096D01*
X119067799Y-90802230D01*
X118961401Y-90858340D01*
X118946607Y-90862969D01*
X118875928Y-90875719D01*
X118789498Y-90881638D01*
X118699888Y-90880724D01*
X118619669Y-90872977D01*
X118561413Y-90858393D01*
X118556565Y-90856292D01*
X118488271Y-90814647D01*
X118415283Y-90752401D01*
X118348064Y-90679541D01*
X118297074Y-90606053D01*
X118252221Y-90525802D01*
X118256949Y-86009237D01*
X118261678Y-81492671D01*
X118299042Y-81411888D01*
X118324541Y-81364193D01*
X118401245Y-81268141D01*
X118497994Y-81193190D01*
X118608522Y-81141790D01*
X118726565Y-81116390D01*
X118845859Y-81119439D01*
G37*
G36*
X103981628Y-81138517D02*
G01*
X104025446Y-81154152D01*
X104108721Y-81197329D01*
X104186486Y-81252795D01*
X104249268Y-81313327D01*
X104287591Y-81371704D01*
X104298154Y-81409507D01*
X104309984Y-81475152D01*
X104320949Y-81557571D01*
X104329600Y-81647268D01*
X104329811Y-81650238D01*
X104331511Y-81694180D01*
X104333145Y-81771985D01*
X104334709Y-81882456D01*
X104336199Y-82024395D01*
X104337609Y-82196606D01*
X104338936Y-82397891D01*
X104340175Y-82627054D01*
X104341321Y-82882898D01*
X104342370Y-83164226D01*
X104343318Y-83469842D01*
X104344159Y-83798547D01*
X104344890Y-84149146D01*
X104345505Y-84520441D01*
X104346001Y-84911236D01*
X104346373Y-85320333D01*
X104346616Y-85746536D01*
X104346725Y-86188648D01*
X104347125Y-90514978D01*
X104304694Y-90598710D01*
X104301219Y-90605360D01*
X104251610Y-90678612D01*
X104184723Y-90752412D01*
X104111408Y-90816003D01*
X104042514Y-90858630D01*
X104040354Y-90859585D01*
X103990787Y-90873065D01*
X103918214Y-90879309D01*
X103816811Y-90878839D01*
X103758824Y-90876637D01*
X103693900Y-90871533D01*
X103646516Y-90862130D01*
X103606054Y-90846010D01*
X103561897Y-90820754D01*
X103528252Y-90797130D01*
X103464959Y-90741644D01*
X103412249Y-90682982D01*
X103348048Y-90598037D01*
X103335450Y-88993726D01*
X103335270Y-88970411D01*
X103333875Y-88761848D01*
X103332604Y-88521900D01*
X103331464Y-88253966D01*
X103330460Y-87961448D01*
X103329595Y-87647746D01*
X103328876Y-87316261D01*
X103328307Y-86970393D01*
X103327892Y-86613543D01*
X103327637Y-86249111D01*
X103327546Y-85880497D01*
X103327624Y-85511103D01*
X103327877Y-85144329D01*
X103328309Y-84783574D01*
X103328925Y-84432241D01*
X103334997Y-81475069D01*
X103375798Y-81392232D01*
X103418095Y-81322578D01*
X103503525Y-81233229D01*
X103608436Y-81167701D01*
X103726985Y-81128442D01*
X103853330Y-81117899D01*
X103981628Y-81138517D01*
G37*
G36*
X108696994Y-83852824D02*
G01*
X108816584Y-83859005D01*
X108918503Y-83869392D01*
X108994110Y-83883977D01*
X109058915Y-83903923D01*
X109231626Y-83977801D01*
X109390860Y-84079605D01*
X109542664Y-84212962D01*
X109595558Y-84267000D01*
X109653582Y-84331799D01*
X109698883Y-84392790D01*
X109739589Y-84461284D01*
X109783828Y-84548594D01*
X109818143Y-84622126D01*
X109859890Y-84725263D01*
X109890079Y-84824443D01*
X109910078Y-84927433D01*
X109921254Y-85042004D01*
X109924976Y-85175923D01*
X109922611Y-85336960D01*
X109921432Y-85375660D01*
X109914759Y-85514405D01*
X109903796Y-85628205D01*
X109886806Y-85725248D01*
X109862048Y-85813723D01*
X109827784Y-85901821D01*
X109782274Y-85997730D01*
X109779365Y-86003462D01*
X109671117Y-86177936D01*
X109537264Y-86329153D01*
X109379661Y-86455854D01*
X109200160Y-86556780D01*
X109000616Y-86630672D01*
X108782883Y-86676273D01*
X108779695Y-86676705D01*
X108635197Y-86686811D01*
X108476005Y-86682277D01*
X108311937Y-86664528D01*
X108152811Y-86634993D01*
X108008444Y-86595099D01*
X107888655Y-86546273D01*
X107816188Y-86505123D01*
X107723608Y-86433734D01*
X107660394Y-86357764D01*
X107627484Y-86279910D01*
X107625818Y-86202867D01*
X107656334Y-86129332D01*
X107719971Y-86062001D01*
X107753413Y-86041309D01*
X107813448Y-86027779D01*
X107887691Y-86037694D01*
X107981982Y-86071260D01*
X108000094Y-86078967D01*
X108127223Y-86129852D01*
X108234810Y-86165443D01*
X108332429Y-86188019D01*
X108429651Y-86199860D01*
X108536048Y-86203248D01*
X108686624Y-86194907D01*
X108848882Y-86161777D01*
X108988065Y-86102522D01*
X109105411Y-86016188D01*
X109202158Y-85901823D01*
X109279544Y-85758474D01*
X109338806Y-85585187D01*
X109348074Y-85545974D01*
X109366024Y-85411860D01*
X109369547Y-85262068D01*
X109359553Y-85106491D01*
X109336955Y-84955025D01*
X109302665Y-84817563D01*
X109257594Y-84704000D01*
X109226235Y-84649430D01*
X109132962Y-84535533D01*
X109015189Y-84443499D01*
X108876482Y-84375275D01*
X108720405Y-84332805D01*
X108550520Y-84318036D01*
X108534196Y-84318085D01*
X108417435Y-84324127D01*
X108309750Y-84342209D01*
X108198578Y-84375155D01*
X108071359Y-84425790D01*
X107986515Y-84459813D01*
X107889643Y-84488119D01*
X107812924Y-84494745D01*
X107752117Y-84479900D01*
X107702979Y-84443790D01*
X107669985Y-84397410D01*
X107644144Y-84319452D01*
X107641577Y-84235685D01*
X107662194Y-84156927D01*
X107705904Y-84094000D01*
X107723484Y-84079229D01*
X107788168Y-84036373D01*
X107872724Y-83990501D01*
X107967091Y-83946445D01*
X108061208Y-83909037D01*
X108145013Y-83883110D01*
X108214776Y-83870342D01*
X108318626Y-83859609D01*
X108439373Y-83853117D01*
X108568377Y-83850859D01*
X108696994Y-83852824D01*
G37*
G36*
X111538648Y-83856511D02*
G01*
X111658683Y-83879361D01*
X111775158Y-83916452D01*
X111897779Y-83969543D01*
X111993617Y-84021628D01*
X112127704Y-84121884D01*
X112233739Y-84239755D01*
X112309949Y-84373103D01*
X112354559Y-84519792D01*
X112368620Y-84623391D01*
X112368009Y-84789855D01*
X112337480Y-84942185D01*
X112278145Y-85078127D01*
X112191113Y-85195425D01*
X112077495Y-85291823D01*
X111938402Y-85365066D01*
X111917527Y-85372843D01*
X111851684Y-85394293D01*
X111761532Y-85421116D01*
X111653797Y-85451399D01*
X111535201Y-85483230D01*
X111412467Y-85514696D01*
X111344829Y-85531804D01*
X111230143Y-85561712D01*
X111126718Y-85589788D01*
X111040294Y-85614419D01*
X110976609Y-85633996D01*
X110941403Y-85646907D01*
X110924655Y-85655298D01*
X110848740Y-85710845D01*
X110804125Y-85781371D01*
X110789536Y-85868738D01*
X110789593Y-85876807D01*
X110803442Y-85979565D01*
X110843338Y-86061597D01*
X110911723Y-86128086D01*
X110971084Y-86164658D01*
X111046191Y-86194464D01*
X111136391Y-86213559D01*
X111248169Y-86223261D01*
X111388012Y-86224889D01*
X111413527Y-86224451D01*
X111579941Y-86214223D01*
X111728596Y-86189371D01*
X111873198Y-86146868D01*
X112027453Y-86083687D01*
X112088880Y-86057238D01*
X112178526Y-86027387D01*
X112248533Y-86018789D01*
X112304041Y-86031132D01*
X112350190Y-86064104D01*
X112353486Y-86067532D01*
X112388650Y-86127381D01*
X112406518Y-86204410D01*
X112405537Y-86285255D01*
X112384155Y-86356555D01*
X112370109Y-86378713D01*
X112312660Y-86435610D01*
X112228254Y-86491906D01*
X112122693Y-86544904D01*
X112001779Y-86591910D01*
X111871314Y-86630227D01*
X111737100Y-86657161D01*
X111715158Y-86660067D01*
X111629407Y-86666783D01*
X111523332Y-86670158D01*
X111404859Y-86670420D01*
X111281914Y-86667799D01*
X111162424Y-86662524D01*
X111054316Y-86654825D01*
X110965516Y-86644930D01*
X110903951Y-86633069D01*
X110784928Y-86592284D01*
X110635127Y-86517563D01*
X110505599Y-86424464D01*
X110401033Y-86316521D01*
X110326114Y-86197269D01*
X110293117Y-86103188D01*
X110270918Y-85976765D01*
X110264907Y-85836831D01*
X110276060Y-85693203D01*
X110278651Y-85676306D01*
X110312461Y-85553921D01*
X110371710Y-85448366D01*
X110458663Y-85357196D01*
X110575581Y-85277965D01*
X110724729Y-85208226D01*
X110734939Y-85204335D01*
X110795862Y-85183880D01*
X110882037Y-85157740D01*
X110986249Y-85127988D01*
X111101288Y-85096695D01*
X111219941Y-85065935D01*
X111353447Y-85031724D01*
X111482516Y-84996680D01*
X111584154Y-84965627D01*
X111662127Y-84936647D01*
X111720202Y-84907820D01*
X111762146Y-84877225D01*
X111791726Y-84842943D01*
X111812709Y-84803055D01*
X111828863Y-84755642D01*
X111837091Y-84695430D01*
X111827920Y-84607458D01*
X111799826Y-84521074D01*
X111756318Y-84451007D01*
X111742751Y-84436343D01*
X111671929Y-84380245D01*
X111582750Y-84340576D01*
X111470214Y-84315610D01*
X111329320Y-84303621D01*
X111266334Y-84301930D01*
X111138184Y-84305384D01*
X111022271Y-84320998D01*
X110904687Y-84351130D01*
X110771523Y-84398134D01*
X110722754Y-84416105D01*
X110613347Y-84447458D01*
X110526914Y-84456084D01*
X110460249Y-84441524D01*
X110410147Y-84403316D01*
X110373401Y-84341003D01*
X110356582Y-84278039D01*
X110365066Y-84198847D01*
X110408454Y-84124126D01*
X110486734Y-84053893D01*
X110599895Y-83988166D01*
X110691313Y-83946743D01*
X110808666Y-83904542D01*
X110929545Y-83875474D01*
X111064332Y-83857194D01*
X111223409Y-83847358D01*
X111249079Y-83846501D01*
X111405348Y-83846144D01*
X111538648Y-83856511D01*
G37*
G36*
X114975017Y-85259335D02*
G01*
X114974315Y-85441623D01*
X114973420Y-85665515D01*
X114972421Y-85858383D01*
X114971102Y-86022656D01*
X114969250Y-86160760D01*
X114966649Y-86275124D01*
X114963083Y-86368174D01*
X114958339Y-86442339D01*
X114952202Y-86500045D01*
X114944455Y-86543721D01*
X114934885Y-86575794D01*
X114923277Y-86598692D01*
X114909416Y-86614842D01*
X114893086Y-86626671D01*
X114874073Y-86636608D01*
X114852162Y-86647079D01*
X114771703Y-86672247D01*
X114684582Y-86675187D01*
X114601334Y-86657350D01*
X114531332Y-86620763D01*
X114483946Y-86567452D01*
X114479034Y-86552982D01*
X114472153Y-86508777D01*
X114466325Y-86436907D01*
X114461446Y-86335489D01*
X114457408Y-86202638D01*
X114454107Y-86036472D01*
X114446172Y-85546040D01*
X114215255Y-85554825D01*
X114128365Y-85558917D01*
X114021920Y-85567752D01*
X113940845Y-85581085D01*
X113879249Y-85600420D01*
X113831238Y-85627260D01*
X113790920Y-85663109D01*
X113786713Y-85667905D01*
X113758719Y-85706376D01*
X113718020Y-85768823D01*
X113668097Y-85849641D01*
X113612427Y-85943225D01*
X113554490Y-86043972D01*
X113549355Y-86053050D01*
X113488014Y-86160608D01*
X113426641Y-86266760D01*
X113369532Y-86364174D01*
X113320985Y-86445513D01*
X113285296Y-86503446D01*
X113233232Y-86579703D01*
X113186329Y-86630175D01*
X113135700Y-86659530D01*
X113071987Y-86673177D01*
X112985833Y-86676524D01*
X112948627Y-86675980D01*
X112899331Y-86670321D01*
X112864309Y-86654840D01*
X112830039Y-86625071D01*
X112819904Y-86614310D01*
X112791491Y-86571450D01*
X112778168Y-86521232D01*
X112780767Y-86460064D01*
X112800121Y-86384354D01*
X112837063Y-86290508D01*
X112892425Y-86174936D01*
X112967040Y-86034043D01*
X112978195Y-86013681D01*
X113063915Y-85862061D01*
X113137845Y-85740962D01*
X113201264Y-85648504D01*
X113255449Y-85582807D01*
X113301679Y-85541992D01*
X113363721Y-85499833D01*
X113258527Y-85446731D01*
X113231877Y-85432693D01*
X113092618Y-85337222D01*
X112976992Y-85217870D01*
X112888762Y-85078385D01*
X112822592Y-84944467D01*
X112823961Y-84733111D01*
X113342244Y-84733111D01*
X113345506Y-84814938D01*
X113357964Y-84877680D01*
X113382600Y-84935537D01*
X113427377Y-84997661D01*
X113505354Y-85062787D01*
X113599659Y-85110526D01*
X113700202Y-85134557D01*
X113743401Y-85137750D01*
X113816360Y-85141638D01*
X113910011Y-85145732D01*
X114016895Y-85149706D01*
X114129557Y-85153237D01*
X114468400Y-85162830D01*
X114468400Y-84722726D01*
X114468400Y-84282623D01*
X114305579Y-84283486D01*
X114178348Y-84285260D01*
X114010342Y-84291399D01*
X113862631Y-84301464D01*
X113738921Y-84315106D01*
X113642915Y-84331979D01*
X113578318Y-84351735D01*
X113529147Y-84375914D01*
X113443353Y-84437403D01*
X113385533Y-84514317D01*
X113352794Y-84611328D01*
X113342244Y-84733111D01*
X112823961Y-84733111D01*
X112824149Y-84704087D01*
X112824185Y-84698609D01*
X112825259Y-84602216D01*
X112827861Y-84532214D01*
X112833306Y-84480198D01*
X112842910Y-84437761D01*
X112857986Y-84396497D01*
X112879852Y-84348001D01*
X112958400Y-84214247D01*
X113066559Y-84095134D01*
X113200128Y-84000245D01*
X113359460Y-83929271D01*
X113362108Y-83928365D01*
X113392881Y-83918435D01*
X113423855Y-83910302D01*
X113458919Y-83903731D01*
X113501963Y-83898486D01*
X113556875Y-83894333D01*
X113627545Y-83891036D01*
X113717862Y-83888360D01*
X113831714Y-83886069D01*
X113972991Y-83883928D01*
X114145582Y-83881701D01*
X114817289Y-83873382D01*
X114898630Y-83941375D01*
X114979972Y-84009368D01*
X114977144Y-84722726D01*
X114975017Y-85259335D01*
G37*
G36*
X115987305Y-85873322D02*
G01*
X115987759Y-86170665D01*
X115987994Y-86438046D01*
X115987955Y-86677213D01*
X115987583Y-86889914D01*
X115986821Y-87077897D01*
X115985613Y-87242909D01*
X115983901Y-87386699D01*
X115981627Y-87511013D01*
X115978735Y-87617600D01*
X115975167Y-87708207D01*
X115970866Y-87784583D01*
X115965774Y-87848474D01*
X115959835Y-87901629D01*
X115952991Y-87945796D01*
X115945185Y-87982721D01*
X115936359Y-88014154D01*
X115926457Y-88041840D01*
X115915421Y-88067530D01*
X115903193Y-88092969D01*
X115889718Y-88119906D01*
X115818203Y-88233898D01*
X115716542Y-88349382D01*
X115595336Y-88453187D01*
X115462508Y-88537565D01*
X115322107Y-88611980D01*
X111302089Y-88612374D01*
X107282071Y-88612768D01*
X107139512Y-88537959D01*
X106992075Y-88445624D01*
X106858191Y-88326621D01*
X106752241Y-88189915D01*
X106676150Y-88038025D01*
X106631846Y-87873475D01*
X106628862Y-87847645D01*
X106626032Y-87805110D01*
X106623516Y-87745500D01*
X106621306Y-87667420D01*
X106619393Y-87569476D01*
X106617768Y-87450274D01*
X106616422Y-87308419D01*
X106615346Y-87142516D01*
X106614531Y-86951170D01*
X106613968Y-86732989D01*
X106613764Y-86575420D01*
X106718219Y-86575420D01*
X106718362Y-86787240D01*
X106718683Y-86973587D01*
X106719201Y-87136227D01*
X106719934Y-87276925D01*
X106720903Y-87397448D01*
X106722125Y-87499561D01*
X106723621Y-87585031D01*
X106725409Y-87655622D01*
X106727508Y-87713102D01*
X106729939Y-87759236D01*
X106732719Y-87795790D01*
X106735867Y-87824530D01*
X106739404Y-87847222D01*
X106743348Y-87865631D01*
X106747719Y-87881524D01*
X106759425Y-87918559D01*
X106813557Y-88051094D01*
X106883578Y-88164022D01*
X106976531Y-88269276D01*
X107066208Y-88346920D01*
X107207799Y-88434309D01*
X107359122Y-88490243D01*
X107382561Y-88492186D01*
X107439626Y-88494183D01*
X107527957Y-88496134D01*
X107645539Y-88498033D01*
X107790356Y-88499875D01*
X107960391Y-88501655D01*
X108153629Y-88503367D01*
X108368052Y-88505006D01*
X108601646Y-88506568D01*
X108852394Y-88508047D01*
X109118280Y-88509437D01*
X109397288Y-88510734D01*
X109687401Y-88511932D01*
X109986604Y-88513026D01*
X110292880Y-88514011D01*
X110604214Y-88514882D01*
X110918589Y-88515633D01*
X111233989Y-88516259D01*
X111548398Y-88516756D01*
X111859800Y-88517117D01*
X112166179Y-88517338D01*
X112465519Y-88517414D01*
X112755803Y-88517338D01*
X113035016Y-88517107D01*
X113301141Y-88516715D01*
X113552162Y-88516156D01*
X113786064Y-88515425D01*
X114000829Y-88514518D01*
X114194443Y-88513429D01*
X114364888Y-88512152D01*
X114510149Y-88510683D01*
X114628210Y-88509017D01*
X115254478Y-88498354D01*
X115405304Y-88423585D01*
X115439633Y-88405769D01*
X115582617Y-88309937D01*
X115697810Y-88192594D01*
X115785843Y-88052979D01*
X115847351Y-87890325D01*
X115848213Y-87886959D01*
X115855089Y-87839350D01*
X115861343Y-87758032D01*
X115866962Y-87644334D01*
X115871934Y-87499586D01*
X115876247Y-87325120D01*
X115879889Y-87122265D01*
X115882848Y-86892353D01*
X115885113Y-86636713D01*
X115886670Y-86356676D01*
X115887507Y-86053572D01*
X115887614Y-85728732D01*
X115886977Y-85383486D01*
X115885585Y-85019164D01*
X115883425Y-84637098D01*
X115880485Y-84238617D01*
X115867776Y-82689622D01*
X115799206Y-82552538D01*
X115759035Y-82479969D01*
X115656230Y-82342545D01*
X115532889Y-82232071D01*
X115391288Y-82150374D01*
X115233706Y-82099279D01*
X115213869Y-82097468D01*
X115159091Y-82095262D01*
X115072784Y-82093102D01*
X114956983Y-82090992D01*
X114813723Y-82088940D01*
X114645036Y-82086951D01*
X114452957Y-82085030D01*
X114239520Y-82083184D01*
X114006759Y-82081418D01*
X113756708Y-82079738D01*
X113491400Y-82078150D01*
X113212871Y-82076661D01*
X112923153Y-82075275D01*
X112624280Y-82073998D01*
X112318288Y-82072837D01*
X112007209Y-82071797D01*
X111693078Y-82070884D01*
X111377928Y-82070103D01*
X111063794Y-82069462D01*
X110752709Y-82068965D01*
X110446708Y-82068618D01*
X110147824Y-82068427D01*
X109858092Y-82068398D01*
X109579545Y-82068537D01*
X109314218Y-82068850D01*
X109064144Y-82069342D01*
X108831357Y-82070019D01*
X108617892Y-82070888D01*
X108425782Y-82071953D01*
X108257061Y-82073221D01*
X108113763Y-82074698D01*
X107997923Y-82076389D01*
X107911574Y-82078300D01*
X107784987Y-82082005D01*
X107651501Y-82086326D01*
X107545624Y-82090510D01*
X107463102Y-82094903D01*
X107399679Y-82099855D01*
X107351101Y-82105712D01*
X107313114Y-82112822D01*
X107281463Y-82121532D01*
X107251892Y-82132191D01*
X107238390Y-82137617D01*
X107088995Y-82217558D01*
X106960667Y-82325582D01*
X106853802Y-82461287D01*
X106768794Y-82624273D01*
X106722422Y-82734946D01*
X106719262Y-85255805D01*
X106719038Y-85438088D01*
X106718663Y-85769460D01*
X106718388Y-86068296D01*
X106718234Y-86336360D01*
X106718219Y-86575420D01*
X106613764Y-86575420D01*
X106613649Y-86486576D01*
X106613563Y-86210537D01*
X106613703Y-85903478D01*
X106614059Y-85564004D01*
X106614623Y-85190720D01*
X106618959Y-82639983D01*
X106692772Y-82497581D01*
X106765746Y-82379136D01*
X106876125Y-82246500D01*
X107003822Y-82131310D01*
X107140109Y-82042445D01*
X107265595Y-81976142D01*
X111303027Y-81980837D01*
X115340458Y-81985533D01*
X115462749Y-82045739D01*
X115471668Y-82050215D01*
X115596652Y-82130146D01*
X115716118Y-82236641D01*
X115822238Y-82361745D01*
X115907187Y-82497501D01*
X115980958Y-82639822D01*
X115985975Y-85181839D01*
X115986692Y-85544270D01*
X115987036Y-85728732D01*
X115987305Y-85873322D01*
G37*
G36*
X117989518Y-88790919D02*
G01*
X117915170Y-88935073D01*
X117878291Y-89000706D01*
X117765318Y-89152871D01*
X117627174Y-89281534D01*
X117466890Y-89383664D01*
X117323384Y-89457674D01*
X115990796Y-89457674D01*
X114658208Y-89457674D01*
X114670136Y-89506081D01*
X114672044Y-89513264D01*
X114693942Y-89574166D01*
X114729643Y-89655223D01*
X114774927Y-89748069D01*
X114825576Y-89844335D01*
X114877371Y-89935655D01*
X114926091Y-90013660D01*
X114927205Y-90015326D01*
X115005528Y-90119317D01*
X115108138Y-90235965D01*
X115229351Y-90359720D01*
X115363480Y-90485031D01*
X115504841Y-90606350D01*
X115647748Y-90718125D01*
X115710409Y-90764611D01*
X115819662Y-90845703D01*
X115939287Y-90934531D01*
X116058624Y-91023180D01*
X116167014Y-91103734D01*
X116238501Y-91157653D01*
X116445868Y-91325133D01*
X116623345Y-91488138D01*
X116773977Y-91650519D01*
X116900809Y-91816128D01*
X117006888Y-91988817D01*
X117095260Y-92172437D01*
X117168970Y-92370841D01*
X117180618Y-92406538D01*
X117202521Y-92470542D01*
X117212005Y-92492760D01*
X117220521Y-92512709D01*
X117239514Y-92541221D01*
X117264392Y-92564259D01*
X117300049Y-92590006D01*
X117320551Y-92606463D01*
X117368275Y-92655771D01*
X117410063Y-92711419D01*
X117460777Y-92791386D01*
X117460777Y-93483227D01*
X117460777Y-94175069D01*
X111300000Y-94175069D01*
X105139224Y-94175069D01*
X105139224Y-93478552D01*
X105139224Y-92782035D01*
X105192072Y-92705224D01*
X105210274Y-92680707D01*
X105257376Y-92627675D01*
X105302086Y-92588486D01*
X105310625Y-92582525D01*
X105338855Y-92561809D01*
X105359901Y-92541431D01*
X105377525Y-92514678D01*
X105387408Y-92492760D01*
X105526473Y-92492760D01*
X105526690Y-92493616D01*
X105530398Y-92496141D01*
X105539553Y-92498505D01*
X105555257Y-92500712D01*
X105578613Y-92502768D01*
X105610721Y-92504678D01*
X105652685Y-92506447D01*
X105705606Y-92508081D01*
X105770586Y-92509584D01*
X105848729Y-92510963D01*
X105941135Y-92512222D01*
X106048907Y-92513367D01*
X106173148Y-92514402D01*
X106314958Y-92515334D01*
X106475441Y-92516168D01*
X106655699Y-92516908D01*
X106856833Y-92517560D01*
X107079946Y-92518130D01*
X107326140Y-92518623D01*
X107596517Y-92519043D01*
X107892179Y-92519397D01*
X108214229Y-92519689D01*
X108563768Y-92519926D01*
X108941898Y-92520111D01*
X109349723Y-92520251D01*
X109788343Y-92520350D01*
X110258861Y-92520415D01*
X110762380Y-92520450D01*
X111300000Y-92520460D01*
X111478358Y-92520459D01*
X112004786Y-92520442D01*
X112497469Y-92520398D01*
X112957510Y-92520322D01*
X113386011Y-92520210D01*
X113784074Y-92520056D01*
X114152801Y-92519855D01*
X114493294Y-92519601D01*
X114806655Y-92519289D01*
X115093987Y-92518914D01*
X115356392Y-92518471D01*
X115594971Y-92517954D01*
X115810827Y-92517358D01*
X116005062Y-92516677D01*
X116178779Y-92515907D01*
X116333079Y-92515043D01*
X116469064Y-92514078D01*
X116587837Y-92513007D01*
X116690499Y-92511826D01*
X116778153Y-92510529D01*
X116851902Y-92509110D01*
X116912846Y-92507565D01*
X116962089Y-92505888D01*
X117000732Y-92504074D01*
X117029877Y-92502117D01*
X117050628Y-92500013D01*
X117064085Y-92497755D01*
X117071351Y-92495339D01*
X117073528Y-92492760D01*
X117070122Y-92460354D01*
X117050897Y-92387175D01*
X117017528Y-92295609D01*
X116973232Y-92192543D01*
X116921230Y-92084866D01*
X116864740Y-91979464D01*
X116806981Y-91883227D01*
X116751174Y-91803041D01*
X116707236Y-91749545D01*
X116617168Y-91652132D01*
X116508536Y-91545510D01*
X116388024Y-91435898D01*
X116262316Y-91329513D01*
X116138096Y-91232577D01*
X115967070Y-91105318D01*
X115813361Y-90990626D01*
X115682922Y-90892842D01*
X115573153Y-90809946D01*
X115481452Y-90739918D01*
X115405217Y-90680735D01*
X115341846Y-90630379D01*
X115288739Y-90586828D01*
X115243292Y-90548061D01*
X115202905Y-90512059D01*
X115164976Y-90476800D01*
X115120117Y-90432761D01*
X115039999Y-90348248D01*
X114962683Y-90260508D01*
X114900038Y-90182719D01*
X114865536Y-90134572D01*
X114796116Y-90027203D01*
X114725748Y-89906840D01*
X114660030Y-89783711D01*
X114604556Y-89668049D01*
X114564923Y-89570081D01*
X114533575Y-89480062D01*
X113131968Y-89471839D01*
X112949191Y-89470905D01*
X112694045Y-89469952D01*
X112413409Y-89469232D01*
X112112672Y-89468744D01*
X111797221Y-89468488D01*
X111472445Y-89468466D01*
X111143731Y-89468675D01*
X110816468Y-89469118D01*
X110496044Y-89469792D01*
X110187846Y-89470700D01*
X109897262Y-89471840D01*
X108064164Y-89480064D01*
X108025187Y-89587684D01*
X107961764Y-89743217D01*
X107833490Y-89984878D01*
X107675696Y-90211265D01*
X107491353Y-90417760D01*
X107440328Y-90467577D01*
X107387643Y-90516961D01*
X107331842Y-90566742D01*
X107269749Y-90619452D01*
X107198191Y-90677624D01*
X107113994Y-90743791D01*
X107013985Y-90820483D01*
X106894989Y-90910234D01*
X106753832Y-91015576D01*
X106587342Y-91139041D01*
X106456706Y-91237648D01*
X106264627Y-91391811D01*
X106100907Y-91536632D01*
X105962976Y-91674758D01*
X105848264Y-91808835D01*
X105754203Y-91941509D01*
X105678222Y-92075427D01*
X105645956Y-92144464D01*
X105611129Y-92227464D01*
X105578697Y-92312238D01*
X105551730Y-92390340D01*
X105533299Y-92453328D01*
X105526473Y-92492760D01*
X105387408Y-92492760D01*
X105395490Y-92474836D01*
X105417559Y-92415192D01*
X105447492Y-92329034D01*
X105482589Y-92233042D01*
X105561233Y-92052530D01*
X105653427Y-91885241D01*
X105762467Y-91727076D01*
X105891648Y-91573941D01*
X106044265Y-91421736D01*
X106223613Y-91266366D01*
X106432987Y-91103734D01*
X106504636Y-91050481D01*
X106621601Y-90963582D01*
X106742298Y-90873946D01*
X106856069Y-90789488D01*
X106952253Y-90718125D01*
X106954722Y-90716292D01*
X107097650Y-90604303D01*
X107238934Y-90482868D01*
X107372887Y-90357536D01*
X107493825Y-90233857D01*
X107596061Y-90117382D01*
X107673910Y-90013660D01*
X107681184Y-90002636D01*
X107730665Y-89921987D01*
X107782559Y-89829337D01*
X107832645Y-89733054D01*
X107876705Y-89641505D01*
X107910518Y-89563058D01*
X107929865Y-89506081D01*
X107941793Y-89457674D01*
X106609205Y-89457674D01*
X105276617Y-89457674D01*
X105133111Y-89383664D01*
X105067614Y-89346850D01*
X104915677Y-89233921D01*
X104787073Y-89095651D01*
X104684831Y-88935073D01*
X104610483Y-88790919D01*
X104610552Y-88739637D01*
X104716771Y-88739637D01*
X104781967Y-88865426D01*
X104849606Y-88974625D01*
X104956466Y-89100329D01*
X105080964Y-89207999D01*
X105214336Y-89289049D01*
X105345344Y-89352061D01*
X111301848Y-89351768D01*
X117258351Y-89351474D01*
X117388648Y-89288086D01*
X117494802Y-89225501D01*
X117620447Y-89122521D01*
X117730854Y-88999664D01*
X117817402Y-88865426D01*
X117883230Y-88739637D01*
X117883128Y-85371386D01*
X117883105Y-85183183D01*
X117882922Y-84765420D01*
X117882561Y-84372694D01*
X117882026Y-84005786D01*
X117881320Y-83665479D01*
X117880448Y-83352555D01*
X117879413Y-83067796D01*
X117878220Y-82811984D01*
X117876871Y-82585902D01*
X117875372Y-82390331D01*
X117873726Y-82226053D01*
X117871938Y-82093852D01*
X117870010Y-81994508D01*
X117867946Y-81928804D01*
X117865752Y-81897522D01*
X117829347Y-81763965D01*
X117761710Y-81626165D01*
X117669709Y-81500627D01*
X117558784Y-81394688D01*
X117434373Y-81315685D01*
X117408618Y-81303341D01*
X117375054Y-81289027D01*
X117340876Y-81278283D01*
X117300323Y-81270318D01*
X117247631Y-81264342D01*
X117177040Y-81259563D01*
X117082788Y-81255190D01*
X116959113Y-81250433D01*
X116910203Y-81249113D01*
X116823063Y-81247690D01*
X116705268Y-81246396D01*
X116558426Y-81245231D01*
X116384142Y-81244191D01*
X116184024Y-81243272D01*
X115959677Y-81242473D01*
X115712707Y-81241791D01*
X115444722Y-81241223D01*
X115157326Y-81240766D01*
X114852128Y-81240418D01*
X114530732Y-81240175D01*
X114194745Y-81240036D01*
X113845774Y-81239997D01*
X113485425Y-81240055D01*
X113115303Y-81240208D01*
X112737016Y-81240454D01*
X112352170Y-81240789D01*
X111962370Y-81241211D01*
X111569224Y-81241716D01*
X111174337Y-81242303D01*
X110779316Y-81242969D01*
X110385768Y-81243710D01*
X109995297Y-81244524D01*
X109609512Y-81245409D01*
X109230017Y-81246361D01*
X108858420Y-81247378D01*
X108496327Y-81248457D01*
X108145343Y-81249596D01*
X107807076Y-81250791D01*
X107483131Y-81252040D01*
X107175115Y-81253341D01*
X106884634Y-81254690D01*
X106613295Y-81256084D01*
X106362703Y-81257522D01*
X106134465Y-81259000D01*
X105930188Y-81260516D01*
X105751478Y-81262066D01*
X105599940Y-81263649D01*
X105477181Y-81265261D01*
X105384808Y-81266900D01*
X105324427Y-81268562D01*
X105297644Y-81270246D01*
X105260894Y-81278339D01*
X105138312Y-81326971D01*
X105023637Y-81404255D01*
X104921366Y-81505171D01*
X104835996Y-81624699D01*
X104772023Y-81757818D01*
X104733945Y-81899510D01*
X104732497Y-81916826D01*
X104730493Y-81971023D01*
X104728605Y-82058766D01*
X104726841Y-82179077D01*
X104725203Y-82330972D01*
X104723697Y-82513474D01*
X104722327Y-82725599D01*
X104721100Y-82966368D01*
X104720018Y-83234799D01*
X104719088Y-83529913D01*
X104718314Y-83850728D01*
X104717700Y-84196264D01*
X104717253Y-84565539D01*
X104716975Y-84957573D01*
X104716873Y-85371386D01*
X104716771Y-88739637D01*
X104610552Y-88739637D01*
X104615221Y-85282237D01*
X104619959Y-81773555D01*
X104680051Y-81650715D01*
X104693480Y-81624660D01*
X104779423Y-81495720D01*
X104890738Y-81374747D01*
X105019261Y-81269657D01*
X105156827Y-81188370D01*
X105306445Y-81116712D01*
X107448051Y-81111067D01*
X107668444Y-81110427D01*
X107932383Y-81109503D01*
X108184782Y-81108446D01*
X108423490Y-81107273D01*
X108646355Y-81106002D01*
X108851226Y-81104649D01*
X109035952Y-81103231D01*
X109198381Y-81101764D01*
X109336363Y-81100266D01*
X109447746Y-81098753D01*
X109530377Y-81097242D01*
X109582108Y-81095749D01*
X109600785Y-81094292D01*
X109601327Y-81093517D01*
X109606788Y-81068953D01*
X109613300Y-81017120D01*
X109620093Y-80945064D01*
X109626396Y-80859834D01*
X109631048Y-80791327D01*
X109637484Y-80717342D01*
X109645211Y-80665304D01*
X109656001Y-80627419D01*
X109671625Y-80595891D01*
X109693852Y-80562926D01*
X109714625Y-80536817D01*
X109769838Y-80479516D01*
X109828013Y-80430570D01*
X109909202Y-80371796D01*
X111260284Y-80368962D01*
X111352121Y-80368783D01*
X111604261Y-80368459D01*
X111823979Y-80368478D01*
X112013360Y-80368869D01*
X112174488Y-80369660D01*
X112309448Y-80370882D01*
X112420323Y-80372563D01*
X112509200Y-80374732D01*
X112578162Y-80377418D01*
X112629294Y-80380651D01*
X112664681Y-80384460D01*
X112686406Y-80388873D01*
X112775590Y-80430975D01*
X112860063Y-80506076D01*
X112927022Y-80607999D01*
X112946834Y-80651132D01*
X112960194Y-80692712D01*
X112967873Y-80740823D01*
X112971377Y-80805017D01*
X112972211Y-80894844D01*
X112972211Y-81091005D01*
X113371106Y-81102614D01*
X113391736Y-81103159D01*
X113477663Y-81104799D01*
X113594661Y-81106363D01*
X113739607Y-81107834D01*
X113909377Y-81109194D01*
X114100847Y-81110428D01*
X114310896Y-81111518D01*
X114536399Y-81112447D01*
X114774233Y-81113199D01*
X115021276Y-81113757D01*
X115274403Y-81114104D01*
X115530492Y-81114223D01*
X117290985Y-81114223D01*
X117441889Y-81187126D01*
X117469564Y-81201110D01*
X117606816Y-81288529D01*
X117732984Y-81397793D01*
X117840038Y-81521117D01*
X117919950Y-81650715D01*
X117980042Y-81773555D01*
X117984780Y-85282237D01*
X117989449Y-88739637D01*
X117989518Y-88790919D01*
G37*
%TO.C,TP16*%
D14*
X126500000Y-79600000D02*
G75*
G02*
X125100000Y-79600000I-700000J0D01*
G01*
X125100000Y-79600000D02*
G75*
G02*
X126500000Y-79600000I700000J0D01*
G01*
%TD*%
M02*
