%TF.GenerationSoftware,KiCad,Pcbnew,10.0.4*%
%TF.CreationDate,2026-07-20T12:11:53+03:00*%
%TF.ProjectId,RSC_extension_board,5253435f-6578-4746-956e-73696f6e5f62,rev?*%
%TF.SameCoordinates,Original*%
%TF.FileFunction,Soldermask,Bot*%
%TF.FilePolarity,Negative*%
%FSLAX46Y46*%
G04 Gerber Fmt 4.6, Leading zero omitted, Abs format (unit mm)*
G04 Created by KiCad (PCBNEW 10.0.4) date 2026-07-20 12:11:53*
%MOMM*%
%LPD*%
G01*
G04 APERTURE LIST*
G04 Aperture macros list*
%AMRoundRect*
0 Rectangle with rounded corners*
0 $1 Rounding radius*
0 $2 $3 $4 $5 $6 $7 $8 $9 X,Y pos of 4 corners*
0 Add a 4 corners polygon primitive as box body*
4,1,4,$2,$3,$4,$5,$6,$7,$8,$9,$2,$3,0*
0 Add four circle primitives for the rounded corners*
1,1,$1+$1,$2,$3*
1,1,$1+$1,$4,$5*
1,1,$1+$1,$6,$7*
1,1,$1+$1,$8,$9*
0 Add four rect primitives between the rounded corners*
20,1,$1+$1,$2,$3,$4,$5,0*
20,1,$1+$1,$4,$5,$6,$7,0*
20,1,$1+$1,$6,$7,$8,$9,0*
20,1,$1+$1,$8,$9,$2,$3,0*%
G04 Aperture macros list end*
%ADD10R,0.990600X1.549400*%
%ADD11C,1.574000*%
%ADD12RoundRect,0.102000X-0.685000X-0.685000X0.685000X-0.685000X0.685000X0.685000X-0.685000X0.685000X0*%
%ADD13C,2.700000*%
%ADD14RoundRect,0.250000X-0.350000X-0.625000X0.350000X-0.625000X0.350000X0.625000X-0.350000X0.625000X0*%
%ADD15O,1.200000X1.750000*%
%ADD16RoundRect,0.250000X0.625000X-0.350000X0.625000X0.350000X-0.625000X0.350000X-0.625000X-0.350000X0*%
%ADD17O,1.750000X1.200000*%
%ADD18R,1.700000X1.700000*%
%ADD19C,1.700000*%
%ADD20C,0.450000*%
%ADD21O,1.100000X1.700000*%
%ADD22C,1.000000*%
G04 APERTURE END LIST*
D10*
%TO.C,J1*%
X151663400Y-45675000D03*
X151663400Y-51491600D03*
X149123400Y-45675000D03*
X149123400Y-51491600D03*
X146583400Y-45675000D03*
X146583400Y-51491600D03*
X144043400Y-45675000D03*
X144043400Y-51491600D03*
X141503400Y-45675000D03*
X141503400Y-51491600D03*
X138963400Y-45675000D03*
X138963400Y-51491600D03*
X136423400Y-45675000D03*
X136423400Y-51491600D03*
X133883400Y-45675000D03*
X133883400Y-51491600D03*
X131343400Y-45675000D03*
X131343400Y-51491600D03*
X128803400Y-45675000D03*
X128803400Y-51491600D03*
X126263400Y-45675000D03*
X126263400Y-51491600D03*
X123723400Y-45675000D03*
X123723400Y-51491600D03*
X121183400Y-45675000D03*
X121183400Y-51491600D03*
X118643400Y-45675000D03*
X118643400Y-51491600D03*
X116103400Y-45675000D03*
X116103400Y-51491600D03*
X113563400Y-45675000D03*
X113563400Y-51491600D03*
X111023400Y-45675000D03*
X111023400Y-51491600D03*
X108483400Y-45675000D03*
X108483400Y-51491600D03*
X105943400Y-45675000D03*
X105943400Y-51491600D03*
X103403400Y-45675000D03*
X103403400Y-51491600D03*
%TD*%
D11*
%TO.C,J4*%
X151663400Y-56785000D03*
X151663400Y-59325000D03*
X149123400Y-56785000D03*
X149123400Y-59325000D03*
X146583400Y-56785000D03*
X146583400Y-59325000D03*
X144043400Y-56785000D03*
X144043400Y-59325000D03*
X141503400Y-56785000D03*
X141503400Y-59325000D03*
X138963400Y-56785000D03*
X138963400Y-59325000D03*
X136423400Y-56785000D03*
X136423400Y-59325000D03*
X133883400Y-56785000D03*
X133883400Y-59325000D03*
X131343400Y-56785000D03*
X131343400Y-59325000D03*
X128803400Y-56785000D03*
X128803400Y-59325000D03*
X126263400Y-56785000D03*
X126263400Y-59325000D03*
X123723400Y-56785000D03*
X123723400Y-59325000D03*
X121183400Y-56785000D03*
X121183400Y-59325000D03*
X118643400Y-56785000D03*
X118643400Y-59325000D03*
X116103400Y-56785000D03*
X116103400Y-59325000D03*
X113563400Y-56785000D03*
X113563400Y-59325000D03*
X111023400Y-56785000D03*
X111023400Y-59325000D03*
X108483400Y-56785000D03*
X108483400Y-59325000D03*
X105943400Y-56785000D03*
X105943400Y-59325000D03*
X103403400Y-56785000D03*
D12*
X103403400Y-59325000D03*
%TD*%
D13*
%TO.C,REF\u002A\u002A*%
X98500000Y-48500000D03*
%TD*%
D14*
%TO.C,J3*%
X142450000Y-72625000D03*
D15*
X144450000Y-72625000D03*
X146450000Y-72625000D03*
X148450000Y-72625000D03*
%TD*%
D13*
%TO.C,REF\u002A\u002A*%
X156500000Y-48500000D03*
%TD*%
D16*
%TO.C,J5*%
X120625000Y-95825000D03*
D17*
X120625000Y-93825000D03*
%TD*%
D13*
%TO.C,REF\u002A\u002A*%
X98500000Y-97500000D03*
%TD*%
D18*
%TO.C,J8*%
X121600000Y-84305000D03*
D19*
X121600000Y-86845000D03*
X121600000Y-89385000D03*
%TD*%
D20*
%TO.C,U4*%
X118310000Y-76400000D03*
X118310000Y-75700000D03*
X118310000Y-75000000D03*
%TD*%
D18*
%TO.C,J7*%
X127325000Y-84305000D03*
D19*
X127325000Y-86845000D03*
X127325000Y-89385000D03*
%TD*%
D14*
%TO.C,J2*%
X133400000Y-72625000D03*
D15*
X135400000Y-72625000D03*
X137400000Y-72625000D03*
%TD*%
D20*
%TO.C,U3*%
X106100000Y-75575000D03*
X105400000Y-75575000D03*
X104700000Y-75575000D03*
%TD*%
D16*
%TO.C,J10*%
X156775000Y-70475000D03*
D17*
X156775000Y-68475000D03*
X156775000Y-66475000D03*
X156775000Y-64475000D03*
%TD*%
D21*
%TO.C,J16*%
X102500000Y-95700000D03*
X102500000Y-99500000D03*
X111140000Y-95700000D03*
X111140000Y-99500000D03*
%TD*%
D22*
%TO.C,TP1*%
X103025000Y-78675000D03*
%TD*%
%TO.C,TP2*%
X115135000Y-75175000D03*
%TD*%
%TO.C,TP11*%
X107175000Y-71525000D03*
%TD*%
%TO.C,TP12*%
X122100000Y-75550000D03*
%TD*%
%TO.C,TP8*%
X115122374Y-72765635D03*
%TD*%
%TO.C,TP4*%
X99000000Y-78600000D03*
%TD*%
%TO.C,TP15*%
X104200000Y-66850000D03*
%TD*%
%TO.C,TP14*%
X120685000Y-73425000D03*
%TD*%
%TO.C,TP13*%
X100325000Y-70850000D03*
%TD*%
%TO.C,TP5*%
X116211012Y-83242500D03*
%TD*%
%TO.C,TP7*%
X104250000Y-77075000D03*
%TD*%
%TO.C,TP6*%
X113897500Y-71125000D03*
%TD*%
%TO.C,TP3*%
X107700000Y-79850000D03*
%TD*%
%TO.C,TP16*%
X125800000Y-79600000D03*
%TD*%
M02*
